Literata-M1.ufo
<glyph name="exclam" format="2">
	<unicode hex="0021"/>
	<advance width="349"/>
	<outline>
		<contour>
			<point x="147" y="205" type="line"/>
			<point x="208" y="205" type="line"/>
			<point x="208" y="264" type="line" smooth="yes"/>
			<point x="208" y="436"/>
			<point x="250" y="570"/>
			<point x="250" y="644" type="curve" smooth="yes"/>
			<point x="250" y="685"/>
			<point x="226" y="714"/>
			<point x="183" y="714" type="curve" smooth="yes"/>
			<point x="137" y="714"/>
			<point x="109" y="683"/>
			<point x="109" y="643" type="curve" smooth="yes"/>
			<point x="109" y="561"/>
			<point x="147" y="422"/>
			<point x="147" y="265" type="curve" smooth="yes"/>
		</contour>
		<contour>
			<point x="174" y="-14" type="curve" smooth="yes"/>
			<point x="219" y="-14"/>
			<point x="251" y="18"/>
			<point x="251" y="62" type="curve" smooth="yes"/>
			<point x="251" y="106"/>
			<point x="219" y="137"/>
			<point x="174" y="137" type="curve" smooth="yes"/>
			<point x="130" y="137"/>
			<point x="98" y="105"/>
			<point x="98" y="61" type="curve" smooth="yes"/>
			<point x="98" y="17"/>
			<point x="130" y="-14"/>
		</contour>
	</outline>
</glyph>
<glyph name="quotedbl" format="2">
	<unicode hex="0022"/>
	<advance width="427"/>
	<outline>
		<contour>
			<point x="106" y="539" type="line"/>
			<point x="151" y="539" type="line"/>
			<point x="179" y="719" type="line" smooth="yes"/>
			<point x="181" y="730"/>
			<point x="182" y="738"/>
			<point x="182" y="745" type="curve" smooth="yes"/>
			<point x="182" y="768"/>
			<point x="158" y="782"/>
			<point x="137" y="782" type="curve" smooth="yes"/>
			<point x="103" y="782"/>
			<point x="80" y="755"/>
			<point x="80" y="726" type="curve" smooth="yes"/>
			<point x="80" y="720"/>
			<point x="81" y="713"/>
			<point x="82" y="707" type="curve" smooth="yes"/>
		</contour>
		<contour>
			<point x="269" y="539" type="line"/>
			<point x="314" y="539" type="line"/>
			<point x="342" y="719" type="line" smooth="yes"/>
			<point x="344" y="730"/>
			<point x="345" y="738"/>
			<point x="345" y="745" type="curve" smooth="yes"/>
			<point x="345" y="768"/>
			<point x="321" y="782"/>
			<point x="300" y="782" type="curve" smooth="yes"/>
			<point x="266" y="782"/>
			<point x="243" y="755"/>
			<point x="243" y="726" type="curve" smooth="yes"/>
			<point x="243" y="720"/>
			<point x="244" y="713"/>
			<point x="245" y="707" type="curve" smooth="yes"/>
		</contour>
	</outline>
</glyph>
<glyph name="ampersand" format="2">
	<unicode hex="0026"/>
	<advance width="877"/>
	<outline>
		<contour>
			<point x="312" y="-14" type="curve" smooth="yes"/>
			<point x="428" y="-14"/>
			<point x="502" y="33"/>
			<point x="539" y="90" type="curve"/>
			<point x="604" y="30"/>
			<point x="643" y="0"/>
			<point x="697" y="0" type="curve" smooth="yes"/>
			<point x="755" y="0"/>
			<point x="816" y="48"/>
			<point x="842" y="90" type="curve"/>
			<point x="816" y="130" type="line"/>
			<point x="788" y="106"/>
			<point x="753" y="90"/>
			<point x="722" y="90" type="curve" smooth="yes"/>
			<point x="692" y="90"/>
			<point x="668" y="105"/>
			<point x="585" y="188" type="curve"/>
			<point x="618" y="360"/>
			<point x="678" y="410"/>
			<point x="714" y="414" type="curve"/>
			<point x="734" y="365"/>
			<point x="746" y="352"/>
			<point x="773" y="352" type="curve" smooth="yes"/>
			<point x="806" y="352"/>
			<point x="826" y="381"/>
			<point x="826" y="418" type="curve" smooth="yes"/>
			<point x="826" y="460"/>
			<point x="788" y="487"/>
			<point x="744" y="487" type="curve" smooth="yes"/>
			<point x="670" y="487"/>
			<point x="587" y="443"/>
			<point x="536" y="234" type="curve"/>
			<point x="371" y="390" type="line"/>
			<point x="452" y="430"/>
			<point x="507" y="494"/>
			<point x="507" y="573" type="curve" smooth="yes"/>
			<point x="507" y="656"/>
			<point x="439" y="714"/>
			<point x="345" y="714" type="curve" smooth="yes"/>
			<point x="229" y="714"/>
			<point x="145" y="653"/>
			<point x="145" y="544" type="curve" smooth="yes"/>
			<point x="145" y="478"/>
			<point x="188" y="426"/>
			<point x="228" y="388" type="curve"/>
			<point x="140" y="352"/>
			<point x="65" y="286"/>
			<point x="65" y="181" type="curve" smooth="yes"/>
			<point x="65" y="58"/>
			<point x="171" y="-14"/>
		</contour>
		<contour>
			<point x="330" y="50" type="curve" smooth="yes"/>
			<point x="240" y="50"/>
			<point x="174" y="99"/>
			<point x="174" y="198" type="curve" smooth="yes"/>
			<point x="174" y="282"/>
			<point x="218" y="319"/>
			<point x="272" y="344" type="curve"/>
			<point x="494" y="131" type="line"/>
			<point x="466" y="79"/>
			<point x="413" y="50"/>
		</contour>
		<contour>
			<point x="323" y="432" type="curve"/>
			<point x="272" y="479"/>
			<point x="239" y="523"/>
			<point x="239" y="568" type="curve" smooth="yes"/>
			<point x="239" y="625"/>
			<point x="282" y="650"/>
			<point x="338" y="650" type="curve" smooth="yes"/>
			<point x="390" y="650"/>
			<point x="430" y="624"/>
			<point x="430" y="570" type="curve" smooth="yes"/>
			<point x="430" y="525"/>
			<point x="410" y="472"/>
		</contour>
	</outline>
</glyph>
<glyph name="quotesingle" format="2">
	<unicode hex="0027"/>
	<advance width="264"/>
	<outline>
		<contour>
			<point x="106" y="539" type="line"/>
			<point x="151" y="539" type="line"/>
			<point x="179" y="719" type="line" smooth="yes"/>
			<point x="181" y="730"/>
			<point x="182" y="738"/>
			<point x="182" y="745" type="curve" smooth="yes"/>
			<point x="182" y="768"/>
			<point x="158" y="782"/>
			<point x="137" y="782" type="curve" smooth="yes"/>
			<point x="103" y="782"/>
			<point x="80" y="755"/>
			<point x="80" y="726" type="curve" smooth="yes"/>
			<point x="80" y="720"/>
			<point x="81" y="713"/>
			<point x="82" y="707" type="curve" smooth="yes"/>
		</contour>
	</outline>
</glyph>
<glyph name="parenleft" format="2">
	<unicode hex="0028"/>
	<advance width="368"/>
	<outline>
		<contour>
			<point x="292" y="-204" type="curve"/>
			<point x="333" y="-180" type="line"/>
			<point x="248" y="-30"/>
			<point x="185" y="132"/>
			<point x="185" y="317" type="curve" smooth="yes"/>
			<point x="185" y="485"/>
			<point x="253" y="662"/>
			<point x="339" y="794" type="curve"/>
			<point x="298" y="817" type="line"/>
			<point x="199" y="721"/>
			<point x="88" y="528"/>
			<point x="88" y="306" type="curve" smooth="yes"/>
			<point x="88" y="86"/>
			<point x="190" y="-102"/>
		</contour>
	</outline>
</glyph>
<glyph name="plus" format="2">
	<unicode hex="002B"/>
	<advance width="620"/>
	<outline>
		<contour>
			<point x="268" y="81" type="line"/>
			<point x="345" y="81" type="line"/>
			<point x="345" y="271" type="line"/>
			<point x="524" y="271" type="line"/>
			<point x="524" y="344" type="line"/>
			<point x="345" y="344" type="line"/>
			<point x="345" y="521" type="line"/>
			<point x="268" y="521" type="line"/>
			<point x="268" y="344" type="line"/>
			<point x="96" y="344" type="line"/>
			<point x="96" y="271" type="line"/>
			<point x="268" y="271" type="line"/>
		</contour>
	</outline>
</glyph>
<glyph name="comma" format="2">
	<unicode hex="002C"/>
	<advance width="337"/>
	<outline>
		<contour>
			<point x="119" y="-160" type="line"/>
			<point x="213" y="-106"/>
			<point x="248" y="-29"/>
			<point x="248" y="35" type="curve" smooth="yes"/>
			<point x="248" y="90"/>
			<point x="225" y="129"/>
			<point x="168" y="129" type="curve" smooth="yes"/>
			<point x="123" y="129"/>
			<point x="97" y="102"/>
			<point x="97" y="59" type="curve" smooth="yes"/>
			<point x="97" y="25"/>
			<point x="121" y="0"/>
			<point x="156" y="0" type="curve" smooth="yes"/>
			<point x="174" y="0" type="line"/>
			<point x="170" y="-44"/>
			<point x="154" y="-69"/>
			<point x="91" y="-117" type="curve"/>
		</contour>
	</outline>
</glyph>
<glyph name="one" format="2">
	<unicode hex="0031"/>
	<advance width="466"/>
	<outline>
		<contour>
			<point x="64" y="0" type="line"/>
			<point x="431" y="0" type="line"/>
			<point x="431" y="53" type="line"/>
			<point x="337" y="61" type="line" smooth="yes"/>
			<point x="308" y="63"/>
			<point x="300" y="72"/>
			<point x="300" y="107" type="curve"/>
			<point x="300" y="701" type="line"/>
			<point x="289" y="712" type="line"/>
			<point x="66" y="677" type="line"/>
			<point x="60" y="624" type="line"/>
			<point x="150" y="621" type="line" smooth="yes"/>
			<point x="198" y="619"/>
			<point x="198" y="601"/>
			<point x="198" y="562" type="curve" smooth="yes"/>
			<point x="198" y="110" type="line"/>
			<point x="198" y="81"/>
			<point x="192" y="64"/>
			<point x="161" y="61" type="curve" smooth="yes"/>
			<point x="64" y="53" type="line"/>
		</contour>
	</outline>
</glyph>
<glyph name="two" format="2">
	<unicode hex="0032"/>
	<advance width="564"/>
	<outline>
		<contour>
			<point x="49" y="0" type="line"/>
			<point x="492" y="0" type="line"/>
			<point x="509" y="197" type="line"/>
			<point x="454" y="197" type="line"/>
			<point x="415" y="89"/>
			<point x="402" y="89"/>
			<point x="316" y="89" type="curve" smooth="yes"/>
			<point x="158" y="89" type="line"/>
			<point x="427" y="313"/>
			<point x="493" y="415"/>
			<point x="493" y="519" type="curve" smooth="yes"/>
			<point x="493" y="641"/>
			<point x="399" y="714"/>
			<point x="269" y="714" type="curve" smooth="yes"/>
			<point x="129" y="714"/>
			<point x="40" y="643"/>
			<point x="40" y="568" type="curve" smooth="yes"/>
			<point x="40" y="533"/>
			<point x="62" y="498"/>
			<point x="105" y="498" type="curve" smooth="yes"/>
			<point x="143" y="498"/>
			<point x="165" y="524"/>
			<point x="165" y="549" type="curve" smooth="yes"/>
			<point x="165" y="561"/>
			<point x="157" y="578"/>
			<point x="135" y="607" type="curve"/>
			<point x="152" y="629"/>
			<point x="196" y="647"/>
			<point x="253" y="647" type="curve" smooth="yes"/>
			<point x="337" y="647"/>
			<point x="388" y="601"/>
			<point x="388" y="518" type="curve" smooth="yes"/>
			<point x="388" y="417"/>
			<point x="325" y="338"/>
			<point x="40" y="67" type="curve"/>
		</contour>
	</outline>
</glyph>
<glyph name="three" format="2">
	<unicode hex="0033"/>
	<advance width="591"/>
	<outline>
		<contour>
			<point x="279" y="-13" type="curve" smooth="yes"/>
			<point x="422" y="-13"/>
			<point x="526" y="67"/>
			<point x="526" y="194" type="curve" smooth="yes"/>
			<point x="526" y="303"/>
			<point x="453" y="352"/>
			<point x="357" y="368" type="curve"/>
			<point x="357" y="371" type="line"/>
			<point x="440" y="393"/>
			<point x="499" y="460"/>
			<point x="499" y="540" type="curve" smooth="yes"/>
			<point x="499" y="650"/>
			<point x="418" y="714"/>
			<point x="286" y="714" type="curve" smooth="yes"/>
			<point x="149" y="714"/>
			<point x="67" y="639"/>
			<point x="67" y="567" type="curve" smooth="yes"/>
			<point x="67" y="532"/>
			<point x="85" y="497"/>
			<point x="134" y="497" type="curve" smooth="yes"/>
			<point x="171" y="497"/>
			<point x="193" y="523"/>
			<point x="193" y="548" type="curve" smooth="yes"/>
			<point x="193" y="560"/>
			<point x="187" y="576"/>
			<point x="162" y="605" type="curve"/>
			<point x="178" y="627"/>
			<point x="224" y="649"/>
			<point x="275" y="649" type="curve" smooth="yes"/>
			<point x="361" y="649"/>
			<point x="401" y="601"/>
			<point x="401" y="538" type="curve" smooth="yes"/>
			<point x="401" y="468"/>
			<point x="347" y="403"/>
			<point x="227" y="392" type="curve"/>
			<point x="221" y="328" type="line"/>
			<point x="352" y="328"/>
			<point x="419" y="287"/>
			<point x="419" y="201" type="curve" smooth="yes"/>
			<point x="419" y="126"/>
			<point x="371" y="69"/>
			<point x="270" y="69" type="curve" smooth="yes"/>
			<point x="172" y="69"/>
			<point x="122" y="112"/>
			<point x="86" y="158" type="curve"/>
			<point x="35" y="119" type="line"/>
			<point x="62" y="70"/>
			<point x="126" y="-13"/>
		</contour>
	</outline>
</glyph>
<glyph name="six" format="2">
	<unicode hex="0036"/>
	<advance width="611"/>
	<outline>
		<contour>
			<point x="311" y="-13" type="curve" smooth="yes"/>
			<point x="455" y="-13"/>
			<point x="560" y="71"/>
			<point x="560" y="236" type="curve" smooth="yes"/>
			<point x="560" y="372"/>
			<point x="470" y="450"/>
			<point x="346" y="450" type="curve" smooth="yes"/>
			<point x="258" y="450"/>
			<point x="195" y="409"/>
			<point x="165" y="365" type="curve"/>
			<point x="174" y="487"/>
			<point x="214" y="647"/>
			<point x="370" y="647" type="curve" smooth="yes"/>
			<point x="414" y="647"/>
			<point x="437" y="640"/>
			<point x="455" y="627" type="curve"/>
			<point x="440" y="601"/>
			<point x="435" y="587"/>
			<point x="435" y="573" type="curve" smooth="yes"/>
			<point x="435" y="551"/>
			<point x="451" y="531"/>
			<point x="496" y="531" type="curve" smooth="yes"/>
			<point x="537" y="531"/>
			<point x="561" y="562"/>
			<point x="561" y="598" type="curve" smooth="yes"/>
			<point x="561" y="678"/>
			<point x="460" y="714"/>
			<point x="378" y="714" type="curve" smooth="yes"/>
			<point x="137" y="714"/>
			<point x="60" y="503"/>
			<point x="60" y="291" type="curve" smooth="yes"/>
			<point x="60" y="120"/>
			<point x="131" y="-13"/>
		</contour>
		<contour>
			<point x="314" y="50" type="curve" smooth="yes"/>
			<point x="199" y="50"/>
			<point x="165" y="134"/>
			<point x="165" y="241" type="curve" smooth="yes"/>
			<point x="165" y="331"/>
			<point x="244" y="376"/>
			<point x="319" y="376" type="curve" smooth="yes"/>
			<point x="404" y="376"/>
			<point x="459" y="331"/>
			<point x="459" y="225" type="curve" smooth="yes"/>
			<point x="459" y="98"/>
			<point x="401" y="50"/>
		</contour>
	</outline>
</glyph>
<glyph name="seven" format="2">
	<unicode hex="0037"/>
	<advance width="556"/>
	<outline>
		<contour>
			<point x="211" y="-11" type="line"/>
			<point x="314" y="0" type="line"/>
			<point x="315" y="262"/>
			<point x="390" y="435"/>
			<point x="546" y="636" type="curve"/>
			<point x="537" y="700" type="line"/>
			<point x="63" y="700" type="line"/>
			<point x="44" y="511" type="line"/>
			<point x="105" y="511" type="line"/>
			<point x="131" y="603"/>
			<point x="145" y="609"/>
			<point x="234" y="609" type="curve" smooth="yes"/>
			<point x="447" y="609" type="line"/>
			<point x="212" y="344"/>
			<point x="198" y="101"/>
			<point x="198" y="-1" type="curve"/>
		</contour>
	</outline>
</glyph>
<glyph name="nine" format="2">
	<unicode hex="0039"/>
	<advance width="606"/>
	<outline>
		<contour>
			<point x="267" y="-14" type="curve" smooth="yes"/>
			<point x="466" y="-14"/>
			<point x="546" y="117"/>
			<point x="546" y="409" type="curve" smooth="yes"/>
			<point x="546" y="575"/>
			<point x="484" y="714"/>
			<point x="299" y="714" type="curve" smooth="yes"/>
			<point x="155" y="714"/>
			<point x="50" y="630"/>
			<point x="50" y="460" type="curve" smooth="yes"/>
			<point x="50" y="326"/>
			<point x="136" y="243"/>
			<point x="266" y="243" type="curve" smooth="yes"/>
			<point x="348" y="243"/>
			<point x="406" y="279"/>
			<point x="442" y="327" type="curve"/>
			<point x="432" y="175"/>
			<point x="393" y="64"/>
			<point x="263" y="64" type="curve" smooth="yes"/>
			<point x="192" y="64"/>
			<point x="141" y="89"/>
			<point x="96" y="127" type="curve"/>
			<point x="52" y="78" type="line"/>
			<point x="102" y="15"/>
			<point x="187" y="-14"/>
		</contour>
		<contour>
			<point x="291" y="323" type="curve" smooth="yes"/>
			<point x="205" y="323"/>
			<point x="147" y="368"/>
			<point x="147" y="479" type="curve" smooth="yes"/>
			<point x="147" y="604"/>
			<point x="204" y="652"/>
			<point x="295" y="652" type="curve" smooth="yes"/>
			<point x="404" y="652"/>
			<point x="443" y="570"/>
			<point x="443" y="482" type="curve" smooth="yes"/>
			<point x="443" y="360"/>
			<point x="365" y="323"/>
		</contour>
	</outline>
</glyph>
<glyph name="colon" format="2">
	<unicode hex="003A"/>
	<advance width="345"/>
	<outline>
		<contour>
			<point x="172" y="-14" type="curve" smooth="yes"/>
			<point x="217" y="-14"/>
			<point x="249" y="18"/>
			<point x="249" y="62" type="curve" smooth="yes"/>
			<point x="249" y="106"/>
			<point x="217" y="137"/>
			<point x="172" y="137" type="curve" smooth="yes"/>
			<point x="128" y="137"/>
			<point x="96" y="105"/>
			<point x="96" y="61" type="curve" smooth="yes"/>
			<point x="96" y="17"/>
			<point x="128" y="-14"/>
		</contour>
		<contour>
			<point x="172" y="382" type="curve" smooth="yes"/>
			<point x="217" y="382"/>
			<point x="249" y="414"/>
			<point x="249" y="458" type="curve" smooth="yes"/>
			<point x="249" y="502"/>
			<point x="217" y="533"/>
			<point x="172" y="533" type="curve" smooth="yes"/>
			<point x="128" y="533"/>
			<point x="96" y="501"/>
			<point x="96" y="457" type="curve" smooth="yes"/>
			<point x="96" y="413"/>
			<point x="128" y="382"/>
		</contour>
	</outline>
</glyph>
<glyph name="semicolon" format="2">
	<unicode hex="003B"/>
	<advance width="345"/>
	<outline>
		<contour>
			<point x="123" y="-160" type="line"/>
			<point x="217" y="-106"/>
			<point x="252" y="-29"/>
			<point x="252" y="35" type="curve" smooth="yes"/>
			<point x="252" y="90"/>
			<point x="229" y="129"/>
			<point x="172" y="129" type="curve" smooth="yes"/>
			<point x="127" y="129"/>
			<point x="101" y="102"/>
			<point x="101" y="59" type="curve" smooth="yes"/>
			<point x="101" y="25"/>
			<point x="125" y="0"/>
			<point x="160" y="0" type="curve" smooth="yes"/>
			<point x="178" y="0" type="line"/>
			<point x="174" y="-44"/>
			<point x="158" y="-69"/>
			<point x="95" y="-117" type="curve"/>
		</contour>
		<contour>
			<point x="172" y="382" type="curve" smooth="yes"/>
			<point x="217" y="382"/>
			<point x="249" y="414"/>
			<point x="249" y="458" type="curve" smooth="yes"/>
			<point x="249" y="502"/>
			<point x="217" y="533"/>
			<point x="172" y="533" type="curve" smooth="yes"/>
			<point x="128" y="533"/>
			<point x="96" y="501"/>
			<point x="96" y="457" type="curve" smooth="yes"/>
			<point x="96" y="413"/>
			<point x="128" y="382"/>
		</contour>
	</outline>
</glyph>
<glyph name="greater" format="2">
	<unicode hex="003E"/>
	<advance width="620"/>
	<outline>
		<contour>
			<point x="129" y="37" type="line"/>
			<point x="507" y="263" type="line"/>
			<point x="507" y="305" type="line"/>
			<point x="129" y="532" type="line"/>
			<point x="93" y="472" type="line"/>
			<point x="410" y="285" type="line"/>
			<point x="93" y="99" type="line"/>
		</contour>
	</outline>
</glyph>
<glyph name="C" format="2">
	<unicode hex="0043"/>
	<advance width="751"/>
	<outline>
		<contour>
			<point x="417" y="-14" type="curve" smooth="yes"/>
			<point x="534" y="-14"/>
			<point x="637" y="42"/>
			<point x="696" y="137" type="curve"/>
			<point x="650" y="173" type="line"/>
			<point x="588" y="97"/>
			<point x="526" y="61"/>
			<point x="426" y="61" type="curve" smooth="yes"/>
			<point x="277" y="61"/>
			<point x="174" y="175"/>
			<point x="174" y="366" type="curve" smooth="yes"/>
			<point x="174" y="547"/>
			<point x="256" y="647"/>
			<point x="407" y="647" type="curve" smooth="yes"/>
			<point x="519" y="647"/>
			<point x="585" y="591"/>
			<point x="627" y="470" type="curve"/>
			<point x="681" y="482" type="line"/>
			<point x="642" y="714" type="line"/>
			<point x="593" y="714" type="line"/>
			<point x="581" y="651" type="line"/>
			<point x="539" y="690"/>
			<point x="483" y="714"/>
			<point x="403" y="714" type="curve" smooth="yes"/>
			<point x="203" y="714"/>
			<point x="64" y="573"/>
			<point x="64" y="351" type="curve" smooth="yes"/>
			<point x="64" y="131"/>
			<point x="196" y="-14"/>
		</contour>
	</outline>
	<anchor name="bottom" x="404" y="-30"/>
	<anchor name="top" x="395" y="730"/>
</glyph>
<glyph name="E" format="2">
	<unicode hex="0045"/>
	<advance width="686"/>
	<outline>
		<contour>
			<point x="69" y="0" type="line"/>
			<point x="603" y="0" type="line"/>
			<point x="626" y="189" type="line"/>
			<point x="570" y="189" type="line"/>
			<point x="540" y="82"/>
			<point x="511" y="60"/>
			<point x="409" y="60" type="curve" smooth="yes"/>
			<point x="269" y="60" type="line"/>
			<point x="269" y="326" type="line"/>
			<point x="361" y="326" type="line" smooth="yes"/>
			<point x="432" y="326"/>
			<point x="444" y="319"/>
			<point x="459" y="237" type="curve"/>
			<point x="507" y="245" type="line"/>
			<point x="507" y="475" type="line"/>
			<point x="459" y="469" type="line"/>
			<point x="439" y="393"/>
			<point x="435" y="386"/>
			<point x="363" y="386" type="curve" smooth="yes"/>
			<point x="269" y="386" type="line"/>
			<point x="269" y="640" type="line"/>
			<point x="378" y="640" type="line" smooth="yes"/>
			<point x="478" y="640"/>
			<point x="505" y="630"/>
			<point x="550" y="515" type="curve"/>
			<point x="604" y="532" type="line"/>
			<point x="567" y="700" type="line"/>
			<point x="69" y="700" type="line"/>
			<point x="69" y="647" type="line"/>
			<point x="136" y="643" type="line" smooth="yes"/>
			<point x="165" y="641"/>
			<point x="171" y="629"/>
			<point x="171" y="596" type="curve" smooth="yes"/>
			<point x="171" y="108" type="line" smooth="yes"/>
			<point x="171" y="68"/>
			<point x="162" y="58"/>
			<point x="138" y="57" type="curve" smooth="yes"/>
			<point x="69" y="53" type="line"/>
		</contour>
	</outline>
	<anchor name="bottom" x="368" y="-30"/>
	<anchor name="top" x="345" y="730"/>
</glyph>
<glyph name="G" format="2">
	<unicode hex="0047"/>
	<advance width="819"/>
	<outline>
		<contour>
			<point x="409" y="-14" type="curve" smooth="yes"/>
			<point x="484" y="-14"/>
			<point x="557" y="7"/>
			<point x="613" y="48" type="curve"/>
			<point x="641" y="-3" type="line"/>
			<point x="691" y="-3" type="line"/>
			<point x="691" y="226" type="line" smooth="yes"/>
			<point x="691" y="266"/>
			<point x="700" y="275"/>
			<point x="723" y="277" type="curve" smooth="yes"/>
			<point x="776" y="281" type="line"/>
			<point x="776" y="334" type="line"/>
			<point x="490" y="334" type="line"/>
			<point x="490" y="281" type="line"/>
			<point x="556" y="277" type="line" smooth="yes"/>
			<point x="589" y="275"/>
			<point x="592" y="259"/>
			<point x="592" y="230" type="curve" smooth="yes"/>
			<point x="592" y="117" type="line"/>
			<point x="556" y="81"/>
			<point x="500" y="62"/>
			<point x="427" y="62" type="curve" smooth="yes"/>
			<point x="263" y="62"/>
			<point x="174" y="188"/>
			<point x="174" y="366" type="curve" smooth="yes"/>
			<point x="174" y="550"/>
			<point x="258" y="646"/>
			<point x="404" y="646" type="curve" smooth="yes"/>
			<point x="517" y="646"/>
			<point x="594" y="598"/>
			<point x="638" y="478" type="curve"/>
			<point x="694" y="490" type="line"/>
			<point x="652" y="714" type="line"/>
			<point x="603" y="714" type="line"/>
			<point x="592" y="654" type="line"/>
			<point x="545" y="691"/>
			<point x="486" y="714"/>
			<point x="401" y="714" type="curve" smooth="yes"/>
			<point x="198" y="714"/>
			<point x="64" y="580"/>
			<point x="64" y="345" type="curve" smooth="yes"/>
			<point x="64" y="133"/>
			<point x="194" y="-14"/>
		</contour>
	</outline>
	<anchor name="bottom" x="406" y="-30"/>
	<anchor name="top" x="402" y="730"/>
</glyph>
<glyph name="I" format="2">
	<unicode hex="0049"/>
	<advance width="440"/>
	<outline>
		<contour>
			<point x="69" y="0" type="line"/>
			<point x="371" y="0" type="line"/>
			<point x="371" y="53" type="line"/>
			<point x="303" y="57" type="line" smooth="yes"/>
			<point x="273" y="59"/>
			<point x="269" y="74"/>
			<point x="269" y="104" type="curve" smooth="yes"/>
			<point x="269" y="592" type="line" smooth="yes"/>
			<point x="269" y="629"/>
			<point x="276" y="642"/>
			<point x="301" y="643" type="curve" smooth="yes"/>
			<point x="371" y="647" type="line"/>
			<point x="371" y="700" type="line"/>
			<point x="69" y="700" type="line"/>
			<point x="69" y="647" type="line"/>
			<point x="135" y="643" type="line" smooth="yes"/>
			<point x="168" y="641"/>
			<point x="171" y="624"/>
			<point x="171" y="596" type="curve" smooth="yes"/>
			<point x="171" y="108" type="line" smooth="yes"/>
			<point x="171" y="67"/>
			<point x="161" y="58"/>
			<point x="138" y="57" type="curve" smooth="yes"/>
			<point x="69" y="53" type="line"/>
		</contour>
	</outline>
	<anchor name="bottom" x="216" y="-30"/>
	<anchor name="top" x="220" y="730"/>
</glyph>
<glyph name="P" format="2">
	<unicode hex="0050"/>
	<advance width="657"/>
	<outline>
		<contour>
			<point x="69" y="0" type="line"/>
			<point x="395" y="0" type="line"/>
			<point x="395" y="52" type="line"/>
			<point x="309" y="56" type="line" smooth="yes"/>
			<point x="278" y="57"/>
			<point x="269" y="71"/>
			<point x="269" y="106" type="curve" smooth="yes"/>
			<point x="269" y="279" type="line"/>
			<point x="285" y="276"/>
			<point x="316" y="274"/>
			<point x="354" y="274" type="curve" smooth="yes"/>
			<point x="521" y="274"/>
			<point x="621" y="360"/>
			<point x="621" y="498" type="curve" smooth="yes"/>
			<point x="621" y="639"/>
			<point x="531" y="700"/>
			<point x="334" y="700" type="curve" smooth="yes"/>
			<point x="69" y="700" type="line"/>
			<point x="69" y="647" type="line"/>
			<point x="135" y="643" type="line" smooth="yes"/>
			<point x="168" y="641"/>
			<point x="171" y="624"/>
			<point x="171" y="596" type="curve" smooth="yes"/>
			<point x="171" y="108" type="line" smooth="yes"/>
			<point x="171" y="66"/>
			<point x="160" y="58"/>
			<point x="137" y="57" type="curve" smooth="yes"/>
			<point x="69" y="53" type="line"/>
		</contour>
		<contour>
			<point x="334" y="332" type="curve" smooth="yes"/>
			<point x="308" y="332"/>
			<point x="285" y="334"/>
			<point x="269" y="337" type="curve"/>
			<point x="269" y="642" type="line"/>
			<point x="328" y="642" type="line" smooth="yes"/>
			<point x="444" y="642"/>
			<point x="511" y="612"/>
			<point x="511" y="495" type="curve" smooth="yes"/>
			<point x="511" y="383"/>
			<point x="454" y="332"/>
		</contour>
	</outline>
</glyph>
<glyph name="R" format="2">
	<unicode hex="0052"/>
	<advance width="760"/>
	<outline>
		<contour>
			<point x="648" y="-14" type="curve" smooth="yes"/>
			<point x="691" y="-14"/>
			<point x="725" y="-1"/>
			<point x="755" y="26" type="curve"/>
			<point x="743" y="64" type="line"/>
			<point x="720" y="57"/>
			<point x="708" y="55"/>
			<point x="695" y="55" type="curve" smooth="yes"/>
			<point x="641" y="55"/>
			<point x="625" y="80"/>
			<point x="587" y="162" type="curve" smooth="yes"/>
			<point x="549" y="244" type="line" smooth="yes"/>
			<point x="523" y="300"/>
			<point x="495" y="316"/>
			<point x="441" y="332" type="curve"/>
			<point x="441" y="335" type="line"/>
			<point x="556" y="353"/>
			<point x="628" y="426"/>
			<point x="628" y="521" type="curve" smooth="yes"/>
			<point x="628" y="647"/>
			<point x="530" y="700"/>
			<point x="347" y="700" type="curve" smooth="yes"/>
			<point x="69" y="700" type="line"/>
			<point x="69" y="647" type="line"/>
			<point x="135" y="643" type="line" smooth="yes"/>
			<point x="168" y="641"/>
			<point x="171" y="624"/>
			<point x="171" y="596" type="curve" smooth="yes"/>
			<point x="171" y="108" type="line" smooth="yes"/>
			<point x="171" y="66"/>
			<point x="160" y="58"/>
			<point x="137" y="57" type="curve" smooth="yes"/>
			<point x="69" y="53" type="line"/>
			<point x="69" y="0" type="line"/>
			<point x="380" y="0" type="line"/>
			<point x="380" y="53" type="line"/>
			<point x="309" y="57" type="line" smooth="yes"/>
			<point x="276" y="59"/>
			<point x="269" y="68"/>
			<point x="269" y="107" type="curve" smooth="yes"/>
			<point x="269" y="313" type="line"/>
			<point x="284" y="315"/>
			<point x="301" y="316"/>
			<point x="321" y="316" type="curve" smooth="yes"/>
			<point x="398" y="316"/>
			<point x="412" y="286"/>
			<point x="438" y="229" type="curve" smooth="yes"/>
			<point x="490" y="114" type="line" smooth="yes"/>
			<point x="534" y="16"/>
			<point x="573" y="-14"/>
		</contour>
		<contour>
			<point x="333" y="369" type="curve" smooth="yes"/>
			<point x="318" y="369"/>
			<point x="290" y="370"/>
			<point x="269" y="371" type="curve"/>
			<point x="269" y="642" type="line"/>
			<point x="331" y="642" type="line" smooth="yes"/>
			<point x="444" y="642"/>
			<point x="518" y="617"/>
			<point x="518" y="515" type="curve" smooth="yes"/>
			<point x="518" y="422"/>
			<point x="448" y="369"/>
		</contour>
	</outline>
	<anchor name="bottom" x="396" y="-30"/>
	<anchor name="top" x="343" y="730"/>
</glyph>
<glyph name="S" format="2">
	<unicode hex="0053"/>
	<advance width="651"/>
	<outline>
		<contour>
			<point x="346" y="-14" type="curve" smooth="yes"/>
			<point x="486" y="-14"/>
			<point x="586" y="75"/>
			<point x="586" y="200" type="curve" smooth="yes"/>
			<point x="586" y="303"/>
			<point x="533" y="357"/>
			<point x="362" y="409" type="curve" smooth="yes"/>
			<point x="234" y="448"/>
			<point x="194" y="483"/>
			<point x="194" y="549" type="curve" smooth="yes"/>
			<point x="194" y="615"/>
			<point x="247" y="650"/>
			<point x="326" y="650" type="curve" smooth="yes"/>
			<point x="418" y="650"/>
			<point x="478" y="609"/>
			<point x="511" y="504" type="curve"/>
			<point x="565" y="516" type="line"/>
			<point x="546" y="714" type="line"/>
			<point x="497" y="714" type="line"/>
			<point x="482" y="662" type="line"/>
			<point x="441" y="694"/>
			<point x="381" y="714"/>
			<point x="323" y="714" type="curve" smooth="yes"/>
			<point x="189" y="714"/>
			<point x="94" y="636"/>
			<point x="94" y="521" type="curve" smooth="yes"/>
			<point x="94" y="418"/>
			<point x="148" y="361"/>
			<point x="315" y="313" type="curve" smooth="yes"/>
			<point x="444" y="276"/>
			<point x="486" y="238"/>
			<point x="486" y="165" type="curve" smooth="yes"/>
			<point x="486" y="92"/>
			<point x="432" y="58"/>
			<point x="344" y="58" type="curve" smooth="yes"/>
			<point x="244" y="58"/>
			<point x="165" y="99"/>
			<point x="120" y="220" type="curve"/>
			<point x="65" y="215" type="line"/>
			<point x="88" y="-6" type="line"/>
			<point x="133" y="-6" type="line"/>
			<point x="151" y="53" type="line"/>
			<point x="196" y="12"/>
			<point x="272" y="-14"/>
		</contour>
	</outline>
	<anchor name="bottom" x="326" y="-30"/>
	<anchor name="top" x="323" y="730"/>
</glyph>
<glyph name="U" format="2">
	<unicode hex="0055"/>
	<advance width="890"/>
	<outline>
		<contour>
			<point x="442" y="-14" type="curve" smooth="yes"/>
			<point x="639" y="-14"/>
			<point x="738" y="88"/>
			<point x="738" y="291" type="curve" smooth="yes"/>
			<point x="738" y="592" type="line" smooth="yes"/>
			<point x="738" y="632"/>
			<point x="749" y="642"/>
			<point x="770" y="643" type="curve" smooth="yes"/>
			<point x="833" y="647" type="line"/>
			<point x="833" y="700" type="line"/>
			<point x="568" y="700" type="line"/>
			<point x="568" y="647" type="line"/>
			<point x="628" y="643" type="line" smooth="yes"/>
			<point x="657" y="641"/>
			<point x="664" y="630"/>
			<point x="664" y="596" type="curve" smooth="yes"/>
			<point x="664" y="279" type="line" smooth="yes"/>
			<point x="664" y="127"/>
			<point x="596" y="58"/>
			<point x="457" y="58" type="curve" smooth="yes"/>
			<point x="305" y="58"/>
			<point x="258" y="134"/>
			<point x="258" y="272" type="curve" smooth="yes"/>
			<point x="258" y="592" type="line" smooth="yes"/>
			<point x="258" y="632"/>
			<point x="269" y="642"/>
			<point x="290" y="643" type="curve" smooth="yes"/>
			<point x="353" y="647" type="line"/>
			<point x="353" y="700" type="line"/>
			<point x="60" y="700" type="line"/>
			<point x="60" y="647" type="line"/>
			<point x="120" y="643" type="line" smooth="yes"/>
			<point x="149" y="641"/>
			<point x="156" y="630"/>
			<point x="156" y="596" type="curve" smooth="yes"/>
			<point x="156" y="265" type="line" smooth="yes"/>
			<point x="156" y="76"/>
			<point x="251" y="-14"/>
		</contour>
	</outline>
	<anchor name="bottom" x="441" y="-30"/>
	<anchor name="top" x="454" y="730"/>
</glyph>
<glyph name="V" format="2">
	<unicode hex="0056"/>
	<advance width="791"/>
	<outline>
		<contour>
			<point x="340" y="0" type="line"/>
			<point x="448" y="0" type="line"/>
			<point x="671" y="590" type="line" smooth="yes"/>
			<point x="688" y="635"/>
			<point x="696" y="639"/>
			<point x="719" y="642" type="curve" smooth="yes"/>
			<point x="764" y="647" type="line"/>
			<point x="764" y="700" type="line"/>
			<point x="517" y="700" type="line"/>
			<point x="517" y="647" type="line"/>
			<point x="569" y="644" type="line" smooth="yes"/>
			<point x="600" y="642"/>
			<point x="607" y="626"/>
			<point x="593" y="589" type="curve" smooth="yes"/>
			<point x="410" y="94" type="line"/>
			<point x="405" y="94" type="line"/>
			<point x="222" y="595" type="line" smooth="yes"/>
			<point x="208" y="633"/>
			<point x="219" y="644"/>
			<point x="244" y="645" type="curve" smooth="yes"/>
			<point x="305" y="647" type="line"/>
			<point x="305" y="700" type="line"/>
			<point x="27" y="700" type="line"/>
			<point x="27" y="647" type="line"/>
			<point x="66" y="641" type="line" smooth="yes"/>
			<point x="94" y="637"/>
			<point x="101" y="629"/>
			<point x="115" y="591" type="curve" smooth="yes"/>
		</contour>
	</outline>
	<anchor name="top" x="413" y="730"/>
</glyph>
<glyph name="W" format="2">
	<unicode hex="0057"/>
	<advance width="1171"/>
	<outline>
		<contour>
			<point x="282" y="0" type="line"/>
			<point x="409" y="0" type="line"/>
			<point x="579" y="601" type="line"/>
			<point x="582" y="601" type="line"/>
			<point x="772" y="0" type="line"/>
			<point x="897" y="0" type="line"/>
			<point x="1042" y="590" type="line" smooth="yes"/>
			<point x="1051" y="627"/>
			<point x="1066" y="643"/>
			<point x="1093" y="645" type="curve" smooth="yes"/>
			<point x="1144" y="647" type="line"/>
			<point x="1144" y="700" type="line"/>
			<point x="890" y="700" type="line"/>
			<point x="890" y="647" type="line"/>
			<point x="943" y="641" type="line" smooth="yes"/>
			<point x="973" y="638"/>
			<point x="977" y="624"/>
			<point x="969" y="589" type="curve" smooth="yes"/>
			<point x="849" y="94" type="line"/>
			<point x="844" y="94" type="line"/>
			<point x="657" y="700" type="line"/>
			<point x="530" y="700" type="line"/>
			<point x="360" y="94" type="line"/>
			<point x="355" y="94" type="line"/>
			<point x="226" y="595" type="line" smooth="yes"/>
			<point x="216" y="633"/>
			<point x="224" y="644"/>
			<point x="251" y="645" type="curve" smooth="yes"/>
			<point x="306" y="647" type="line"/>
			<point x="306" y="700" type="line"/>
			<point x="27" y="700" type="line"/>
			<point x="27" y="647" type="line"/>
			<point x="70" y="641" type="line" smooth="yes"/>
			<point x="101" y="637"/>
			<point x="111" y="624"/>
			<point x="119" y="591" type="curve" smooth="yes"/>
		</contour>
	</outline>
	<anchor name="top" x="592" y="730"/>
</glyph>
<glyph name="Y" format="2">
	<unicode hex="0059"/>
	<advance width="756"/>
	<outline>
		<contour>
			<point x="224" y="0" type="line"/>
			<point x="524" y="0" type="line"/>
			<point x="524" y="53" type="line"/>
			<point x="458" y="57" type="line" smooth="yes"/>
			<point x="430" y="59"/>
			<point x="423" y="70"/>
			<point x="423" y="104" type="curve" smooth="yes"/>
			<point x="423" y="284" type="line"/>
			<point x="623" y="589" type="line" smooth="yes"/>
			<point x="647" y="626"/>
			<point x="661" y="645"/>
			<point x="684" y="645" type="curve" smooth="yes"/>
			<point x="739" y="647" type="line"/>
			<point x="739" y="700" type="line"/>
			<point x="478" y="700" type="line"/>
			<point x="478" y="647" type="line"/>
			<point x="527" y="641" type="line" smooth="yes"/>
			<point x="568" y="636"/>
			<point x="560" y="613"/>
			<point x="546" y="590" type="curve" smooth="yes"/>
			<point x="396" y="358" type="line"/>
			<point x="391" y="358" type="line"/>
			<point x="233" y="595" type="line" smooth="yes"/>
			<point x="212" y="626"/>
			<point x="223" y="644"/>
			<point x="254" y="645" type="curve" smooth="yes"/>
			<point x="314" y="647" type="line"/>
			<point x="314" y="700" type="line"/>
			<point x="17" y="700" type="line"/>
			<point x="17" y="647" type="line"/>
			<point x="57" y="641" type="line" smooth="yes"/>
			<point x="92" y="636"/>
			<point x="103" y="618"/>
			<point x="122" y="591" type="curve" smooth="yes"/>
			<point x="324" y="289" type="line"/>
			<point x="324" y="108" type="line" smooth="yes"/>
			<point x="324" y="65"/>
			<point x="313" y="58"/>
			<point x="291" y="57" type="curve" smooth="yes"/>
			<point x="224" y="53" type="line"/>
		</contour>
	</outline>
	<anchor name="bottom" x="372" y="-30"/>
	<anchor name="top" x="390" y="730"/>
</glyph>
<glyph name="Z" format="2">
	<unicode hex="005A"/>
	<advance width="706"/>
	<outline>
		<contour>
			<point x="62" y="0" type="line"/>
			<point x="621" y="0" type="line"/>
			<point x="642" y="209" type="line"/>
			<point x="586" y="209" type="line"/>
			<point x="539" y="81"/>
			<point x="503" y="60"/>
			<point x="414" y="60" type="curve" smooth="yes"/>
			<point x="193" y="60" type="line"/>
			<point x="632" y="650" type="line"/>
			<point x="632" y="700" type="line"/>
			<point x="85" y="700" type="line"/>
			<point x="72" y="499" type="line"/>
			<point x="129" y="504" type="line"/>
			<point x="171" y="624"/>
			<point x="200" y="640"/>
			<point x="270" y="640" type="curve" smooth="yes"/>
			<point x="505" y="640" type="line"/>
			<point x="62" y="48" type="line"/>
		</contour>
	</outline>
	<anchor name="bottom" x="344" y="-30"/>
	<anchor name="top" x="349" y="730"/>
</glyph>
<glyph name="bracketleft" format="2">
	<unicode hex="005B"/>
	<advance width="376"/>
	<outline>
		<contour>
			<point x="121" y="-212" type="line"/>
			<point x="331" y="-212" type="line"/>
			<point x="335" y="-157" type="line"/>
			<point x="241" y="-151" type="line" smooth="yes"/>
			<point x="215" y="-149"/>
			<point x="211" y="-142"/>
			<point x="211" y="-105" type="curve" smooth="yes"/>
			<point x="211" y="705" type="line" smooth="yes"/>
			<point x="211" y="740"/>
			<point x="215" y="749"/>
			<point x="241" y="751" type="curve" smooth="yes"/>
			<point x="335" y="757" type="line"/>
			<point x="331" y="812" type="line"/>
			<point x="121" y="812" type="line"/>
		</contour>
	</outline>
</glyph>
<glyph name="asciicircum" format="2">
	<unicode hex="005E"/>
	<advance width="620"/>
	<outline>
		<contour>
			<point x="101" y="341" type="line"/>
			<point x="310" y="626" type="line"/>
			<point x="519" y="341" type="line"/>
			<point x="573" y="374" type="line"/>
			<point x="331" y="712" type="line"/>
			<point x="289" y="712" type="line"/>
			<point x="47" y="374" type="line"/>
		</contour>
	</outline>
</glyph>
<glyph name="a" format="2">
	<unicode hex="0061"/>
	<advance width="597"/>
	<outline>
		<contour>
			<point x="215" y="-14" type="curve" smooth="yes"/>
			<point x="287" y="-14"/>
			<point x="343" y="14"/>
			<point x="385" y="72" type="curve"/>
			<point x="394" y="15"/>
			<point x="423" y="-14"/>
			<point x="483" y="-14" type="curve" smooth="yes"/>
			<point x="522" y="-14"/>
			<point x="564" y="5"/>
			<point x="587" y="26" type="curve"/>
			<point x="575" y="71" type="line"/>
			<point x="556" y="64"/>
			<point x="540" y="61"/>
			<point x="520" y="61" type="curve" smooth="yes"/>
			<point x="488" y="61"/>
			<point x="471" y="75"/>
			<point x="471" y="105" type="curve" smooth="yes"/>
			<point x="471" y="353" type="line" smooth="yes"/>
			<point x="471" y="475"/>
			<point x="404" y="533"/>
			<point x="270" y="533" type="curve" smooth="yes"/>
			<point x="162" y="533"/>
			<point x="67" y="471"/>
			<point x="67" y="401" type="curve" smooth="yes"/>
			<point x="67" y="359"/>
			<point x="90" y="340"/>
			<point x="130" y="340" type="curve" smooth="yes"/>
			<point x="162" y="340"/>
			<point x="190" y="360"/>
			<point x="190" y="389" type="curve" smooth="yes"/>
			<point x="190" y="399"/>
			<point x="182" y="418"/>
			<point x="162" y="448" type="curve"/>
			<point x="178" y="464"/>
			<point x="217" y="475"/>
			<point x="255" y="475" type="curve" smooth="yes"/>
			<point x="349" y="475"/>
			<point x="378" y="433"/>
			<point x="378" y="364" type="curve" smooth="yes"/>
			<point x="378" y="293" type="line"/>
			<point x="142" y="283"/>
			<point x="65" y="238"/>
			<point x="65" y="124" type="curve" smooth="yes"/>
			<point x="65" y="41"/>
			<point x="126" y="-14"/>
		</contour>
		<contour>
			<point x="254" y="60" type="curve" smooth="yes"/>
			<point x="199" y="60"/>
			<point x="164" y="87"/>
			<point x="164" y="137" type="curve" smooth="yes"/>
			<point x="164" y="204"/>
			<point x="228" y="231"/>
			<point x="378" y="232" type="curve"/>
			<point x="378" y="164" type="line" smooth="yes"/>
			<point x="378" y="107"/>
			<point x="322" y="60"/>
		</contour>
	</outline>
	<anchor name="bottom" x="286" y="-30"/>
	<anchor name="top" x="270" y="550"/>
</glyph>
<glyph name="b" format="2">
	<unicode hex="0062"/>
	<advance width="666"/>
	<outline>
		<contour>
			<point x="146" y="-14" type="line"/>
			<point x="193" y="33" type="line"/>
			<point x="238" y="2"/>
			<point x="293" y="-14"/>
			<point x="347" y="-14" type="curve" smooth="yes"/>
			<point x="520" y="-14"/>
			<point x="606" y="100"/>
			<point x="606" y="281" type="curve" smooth="yes"/>
			<point x="606" y="438"/>
			<point x="523" y="533"/>
			<point x="391" y="533" type="curve" smooth="yes"/>
			<point x="313" y="533"/>
			<point x="254" y="504"/>
			<point x="211" y="443" type="curve"/>
			<point x="209" y="443" type="line"/>
			<point x="209" y="755" type="line"/>
			<point x="197" y="766" type="line"/>
			<point x="16" y="761" type="line"/>
			<point x="10" y="708" type="line"/>
			<point x="69" y="704" type="line" smooth="yes"/>
			<point x="110" y="701"/>
			<point x="116" y="690"/>
			<point x="116" y="644" type="curve" smooth="yes"/>
			<point x="116" y="-6" type="line"/>
		</contour>
		<contour>
			<point x="345" y="53" type="curve" smooth="yes"/>
			<point x="296" y="53"/>
			<point x="243" y="69"/>
			<point x="209" y="98" type="curve"/>
			<point x="209" y="310" type="line" smooth="yes"/>
			<point x="209" y="405"/>
			<point x="272" y="457"/>
			<point x="367" y="457" type="curve" smooth="yes"/>
			<point x="455" y="457"/>
			<point x="507" y="402"/>
			<point x="507" y="267" type="curve" smooth="yes"/>
			<point x="507" y="121"/>
			<point x="437" y="53"/>
		</contour>
	</outline>
</glyph>
<glyph name="e" format="2">
	<unicode hex="0065"/>
	<advance width="575"/>
	<outline>
		<contour>
			<point x="317" y="-14" type="curve" smooth="yes"/>
			<point x="397" y="-14"/>
			<point x="476" y="24"/>
			<point x="525" y="85" type="curve"/>
			<point x="488" y="124" type="line"/>
			<point x="448" y="87"/>
			<point x="394" y="65"/>
			<point x="340" y="65" type="curve" smooth="yes"/>
			<point x="234" y="65"/>
			<point x="165" y="126"/>
			<point x="161" y="247" type="curve"/>
			<point x="507" y="247" type="line"/>
			<point x="513" y="283"/>
			<point x="515" y="314"/>
			<point x="515" y="349" type="curve" smooth="yes"/>
			<point x="515" y="462"/>
			<point x="438" y="533"/>
			<point x="319" y="533" type="curve" smooth="yes"/>
			<point x="163" y="533"/>
			<point x="62" y="424"/>
			<point x="62" y="247" type="curve" smooth="yes"/>
			<point x="62" y="88"/>
			<point x="162" y="-14"/>
		</contour>
		<contour>
			<point x="161" y="310" type="line"/>
			<point x="172" y="413"/>
			<point x="227" y="468"/>
			<point x="309" y="468" type="curve" smooth="yes"/>
			<point x="382" y="468"/>
			<point x="421" y="426"/>
			<point x="421" y="353" type="curve" smooth="yes"/>
			<point x="421" y="337"/>
			<point x="420" y="323"/>
			<point x="418" y="310" type="curve"/>
		</contour>
	</outline>
	<anchor name="bottom" x="309" y="-30"/>
	<anchor name="top" x="306" y="550"/>
</glyph>
<glyph name="f" format="2">
	<unicode hex="0066"/>
	<advance width="424"/>
	<outline>
		<contour>
			<point x="58" y="0" type="line"/>
			<point x="360" y="0" type="line"/>
			<point x="360" y="53" type="line"/>
			<point x="275" y="58" type="line" smooth="yes"/>
			<point x="246" y="60"/>
			<point x="240" y="76"/>
			<point x="240" y="107" type="curve" smooth="yes"/>
			<point x="240" y="456" type="line"/>
			<point x="398" y="456" type="line"/>
			<point x="398" y="519" type="line"/>
			<point x="240" y="519" type="line"/>
			<point x="240" y="593" type="line" smooth="yes"/>
			<point x="240" y="675"/>
			<point x="264" y="727"/>
			<point x="335" y="727" type="curve" smooth="yes"/>
			<point x="361" y="727"/>
			<point x="379" y="722"/>
			<point x="397" y="714" type="curve"/>
			<point x="378" y="683"/>
			<point x="372" y="669"/>
			<point x="372" y="655" type="curve" smooth="yes"/>
			<point x="372" y="631"/>
			<point x="393" y="616"/>
			<point x="427" y="616" type="curve" smooth="yes"/>
			<point x="463" y="616"/>
			<point x="487" y="644"/>
			<point x="487" y="682" type="curve" smooth="yes"/>
			<point x="487" y="743"/>
			<point x="427" y="782"/>
			<point x="341" y="782" type="curve" smooth="yes"/>
			<point x="219" y="782"/>
			<point x="147" y="695"/>
			<point x="147" y="545" type="curve" smooth="yes"/>
			<point x="147" y="516" type="line"/>
			<point x="60" y="506" type="line"/>
			<point x="60" y="456" type="line"/>
			<point x="147" y="456" type="line"/>
			<point x="147" y="104" type="line" smooth="yes"/>
			<point x="147" y="68"/>
			<point x="136" y="58"/>
			<point x="113" y="57" type="curve" smooth="yes"/>
			<point x="58" y="54" type="line"/>
		</contour>
	</outline>
</glyph>
<glyph name="j" format="2">
	<unicode hex="006A"/>
	<advance width="337"/>
	<outline>
		<contour>
			<point x="76" y="-229" type="line"/>
			<point x="201" y="-166"/>
			<point x="235" y="-85"/>
			<point x="235" y="95" type="curve" smooth="yes"/>
			<point x="235" y="519" type="line"/>
			<point x="222" y="526" type="line"/>
			<point x="51" y="516" type="line"/>
			<point x="43" y="462" type="line"/>
			<point x="103" y="458" type="line" smooth="yes"/>
			<point x="135" y="456"/>
			<point x="142" y="444"/>
			<point x="142" y="397" type="curve" smooth="yes"/>
			<point x="142" y="28" type="line" smooth="yes"/>
			<point x="142" y="-81"/>
			<point x="116" y="-142"/>
			<point x="50" y="-191" type="curve"/>
		</contour>
		<contour>
			<point x="174" y="620" type="curve" smooth="yes"/>
			<point x="215" y="620"/>
			<point x="244" y="648"/>
			<point x="244" y="687" type="curve" smooth="yes"/>
			<point x="244" y="726"/>
			<point x="214" y="753"/>
			<point x="174" y="753" type="curve" smooth="yes"/>
			<point x="134" y="753"/>
			<point x="105" y="725"/>
			<point x="105" y="686" type="curve" smooth="yes"/>
			<point x="105" y="647"/>
			<point x="134" y="620"/>
		</contour>
	</outline>
</glyph>
<glyph name="k" format="2">
	<unicode hex="006B"/>
	<advance width="663"/>
	<outline>
		<contour>
			<point x="568" y="-9" type="curve" smooth="yes"/>
			<point x="600" y="-9"/>
			<point x="635" y="6"/>
			<point x="663" y="31" type="curve"/>
			<point x="652" y="67" type="line"/>
			<point x="632" y="61"/>
			<point x="622" y="59"/>
			<point x="610" y="59" type="curve" smooth="yes"/>
			<point x="578" y="59"/>
			<point x="554" y="72"/>
			<point x="529" y="100" type="curve" smooth="yes"/>
			<point x="351" y="294" type="line"/>
			<point x="518" y="428" type="line" smooth="yes"/>
			<point x="541" y="446"/>
			<point x="569" y="462"/>
			<point x="595" y="465" type="curve" smooth="yes"/>
			<point x="626" y="468" type="line"/>
			<point x="626" y="519" type="line"/>
			<point x="398" y="519" type="line"/>
			<point x="386" y="466" type="line"/>
			<point x="428" y="462" type="line" smooth="yes"/>
			<point x="446" y="460"/>
			<point x="447" y="437"/>
			<point x="428" y="422" type="curve" smooth="yes"/>
			<point x="248" y="280" type="line"/>
			<point x="247" y="272" type="line"/>
			<point x="432" y="65" type="line" smooth="yes"/>
			<point x="478" y="13"/>
			<point x="506" y="-9"/>
		</contour>
		<contour>
			<point x="61" y="0" type="line"/>
			<point x="313" y="0" type="line"/>
			<point x="313" y="53" type="line"/>
			<point x="268" y="57" type="line" smooth="yes"/>
			<point x="245" y="59"/>
			<point x="239" y="72"/>
			<point x="239" y="103" type="curve" smooth="yes"/>
			<point x="239" y="755" type="line"/>
			<point x="227" y="766" type="line"/>
			<point x="46" y="761" type="line"/>
			<point x="40" y="708" type="line"/>
			<point x="99" y="704" type="line" smooth="yes"/>
			<point x="140" y="701"/>
			<point x="146" y="689"/>
			<point x="146" y="644" type="curve" smooth="yes"/>
			<point x="146" y="104" type="line" smooth="yes"/>
			<point x="146" y="70"/>
			<point x="141" y="59"/>
			<point x="116" y="57" type="curve" smooth="yes"/>
			<point x="61" y="53" type="line"/>
		</contour>
	</outline>
	<anchor name="bottom" x="344" y="-30"/>
	<anchor name="top" x="141" y="780"/>
</glyph>
<glyph name="l" format="2">
	<unicode hex="006C"/>
	<advance width="369"/>
	<outline>
		<contour>
			<point x="61" y="0" type="line"/>
			<point x="329" y="0" type="line"/>
			<point x="329" y="53" type="line"/>
			<point x="272" y="56" type="line" smooth="yes"/>
			<point x="243" y="58"/>
			<point x="239" y="70"/>
			<point x="239" y="101" type="curve" smooth="yes"/>
			<point x="239" y="755" type="line"/>
			<point x="227" y="766" type="line"/>
			<point x="46" y="761" type="line"/>
			<point x="40" y="708" type="line"/>
			<point x="99" y="704" type="line" smooth="yes"/>
			<point x="139" y="701"/>
			<point x="146" y="689"/>
			<point x="146" y="643" type="curve" smooth="yes"/>
			<point x="146" y="104" type="line" smooth="yes"/>
			<point x="146" y="66"/>
			<point x="139" y="59"/>
			<point x="114" y="57" type="curve" smooth="yes"/>
			<point x="61" y="53" type="line"/>
		</contour>
	</outline>
	<anchor name="bottom" x="191" y="-30"/>
	<anchor name="top" x="141" y="780"/>
</glyph>
<glyph name="m" format="2">
	<unicode hex="006D"/>
	<advance width="1054"/>
	<outline>
		<contour>
			<point x="62" y="0" type="line"/>
			<point x="320" y="0" type="line"/>
			<point x="320" y="54" type="line"/>
			<point x="267" y="59" type="line" smooth="yes"/>
			<point x="245" y="61"/>
			<point x="240" y="71"/>
			<point x="240" y="101" type="curve" smooth="yes"/>
			<point x="240" y="317" type="line" smooth="yes"/>
			<point x="240" y="400"/>
			<point x="299" y="456"/>
			<point x="386" y="456" type="curve" smooth="yes"/>
			<point x="470" y="456"/>
			<point x="491" y="414"/>
			<point x="491" y="328" type="curve" smooth="yes"/>
			<point x="491" y="99" type="line" smooth="yes"/>
			<point x="491" y="63"/>
			<point x="479" y="57"/>
			<point x="458" y="56" type="curve" smooth="yes"/>
			<point x="415" y="53" type="line"/>
			<point x="415" y="0" type="line"/>
			<point x="664" y="0" type="line"/>
			<point x="664" y="53" type="line"/>
			<point x="617" y="56" type="line" smooth="yes"/>
			<point x="589" y="58"/>
			<point x="584" y="67"/>
			<point x="584" y="100" type="curve" smooth="yes"/>
			<point x="584" y="317" type="line" smooth="yes"/>
			<point x="584" y="400"/>
			<point x="642" y="456"/>
			<point x="732" y="456" type="curve" smooth="yes"/>
			<point x="814" y="456"/>
			<point x="835" y="413"/>
			<point x="835" y="328" type="curve" smooth="yes"/>
			<point x="835" y="98" type="line" smooth="yes"/>
			<point x="835" y="66"/>
			<point x="827" y="58"/>
			<point x="802" y="56" type="curve" smooth="yes"/>
			<point x="759" y="53" type="line"/>
			<point x="759" y="0" type="line"/>
			<point x="1018" y="0" type="line"/>
			<point x="1018" y="53" type="line"/>
			<point x="962" y="56" type="line" smooth="yes"/>
			<point x="933" y="58"/>
			<point x="928" y="68"/>
			<point x="928" y="97" type="curve" smooth="yes"/>
			<point x="928" y="362" type="line" smooth="yes"/>
			<point x="928" y="472"/>
			<point x="864" y="533"/>
			<point x="760" y="533" type="curve" smooth="yes"/>
			<point x="688" y="533"/>
			<point x="610" y="492"/>
			<point x="575" y="428" type="curve"/>
			<point x="553" y="497"/>
			<point x="499" y="533"/>
			<point x="415" y="533" type="curve" smooth="yes"/>
			<point x="337" y="533"/>
			<point x="271" y="493"/>
			<point x="232" y="430" type="curve"/>
			<point x="226" y="430" type="line"/>
			<point x="218" y="519" type="line"/>
			<point x="206" y="526" type="line"/>
			<point x="60" y="515" type="line"/>
			<point x="52" y="462" type="line"/>
			<point x="110" y="458" type="line" smooth="yes"/>
			<point x="141" y="456"/>
			<point x="147" y="444"/>
			<point x="147" y="398" type="curve" smooth="yes"/>
			<point x="147" y="104" type="line" smooth="yes"/>
			<point x="147" y="65"/>
			<point x="138" y="58"/>
			<point x="119" y="57" type="curve" smooth="yes"/>
			<point x="62" y="53" type="line"/>
		</contour>
	</outline>
	<anchor name="bottom" x="538" y="-30"/>
</glyph>
<glyph name="p" format="2">
	<unicode hex="0070"/>
	<advance width="680"/>
	<outline>
		<contour>
			<point x="41" y="-216" type="line"/>
			<point x="328" y="-216" type="line"/>
			<point x="328" y="-163" type="line"/>
			<point x="257" y="-158" type="line" smooth="yes"/>
			<point x="231" y="-156"/>
			<point x="223" y="-140"/>
			<point x="223" y="-109" type="curve" smooth="yes"/>
			<point x="223" y="19" type="line"/>
			<point x="256" y="0"/>
			<point x="315" y="-14"/>
			<point x="369" y="-14" type="curve" smooth="yes"/>
			<point x="525" y="-14"/>
			<point x="620" y="90"/>
			<point x="620" y="277" type="curve" smooth="yes"/>
			<point x="620" y="439"/>
			<point x="539" y="533"/>
			<point x="409" y="533" type="curve" smooth="yes"/>
			<point x="323" y="533"/>
			<point x="263" y="501"/>
			<point x="216" y="430" type="curve"/>
			<point x="209" y="430" type="line"/>
			<point x="201" y="519" type="line"/>
			<point x="186" y="526" type="line"/>
			<point x="43" y="515" type="line"/>
			<point x="35" y="462" type="line"/>
			<point x="90" y="458" type="line" smooth="yes"/>
			<point x="123" y="456"/>
			<point x="130" y="446"/>
			<point x="130" y="396" type="curve" smooth="yes"/>
			<point x="130" y="-112" type="line" smooth="yes"/>
			<point x="130" y="-150"/>
			<point x="116" y="-158"/>
			<point x="98" y="-159" type="curve" smooth="yes"/>
			<point x="41" y="-162" type="line"/>
		</contour>
		<contour>
			<point x="364" y="55" type="curve" smooth="yes"/>
			<point x="310" y="55"/>
			<point x="251" y="71"/>
			<point x="223" y="95" type="curve"/>
			<point x="223" y="310" type="line" smooth="yes"/>
			<point x="223" y="401"/>
			<point x="284" y="457"/>
			<point x="381" y="457" type="curve" smooth="yes"/>
			<point x="474" y="457"/>
			<point x="521" y="391"/>
			<point x="521" y="263" type="curve" smooth="yes"/>
			<point x="521" y="129"/>
			<point x="462" y="55"/>
		</contour>
	</outline>
</glyph>
<glyph name="q" format="2">
	<unicode hex="0071"/>
	<advance width="658"/>
	<outline>
		<contour>
			<point x="353" y="-216" type="line"/>
			<point x="640" y="-216" type="line"/>
			<point x="640" y="-162" type="line"/>
			<point x="583" y="-159" type="line" smooth="yes"/>
			<point x="564" y="-158"/>
			<point x="551" y="-149"/>
			<point x="551" y="-112" type="curve" smooth="yes"/>
			<point x="551" y="523" type="line"/>
			<point x="523" y="531" type="line"/>
			<point x="478" y="488" type="line"/>
			<point x="439" y="515"/>
			<point x="382" y="533"/>
			<point x="325" y="533" type="curve" smooth="yes"/>
			<point x="165" y="533"/>
			<point x="60" y="428"/>
			<point x="60" y="245" type="curve" smooth="yes"/>
			<point x="60" y="79"/>
			<point x="145" y="-14"/>
			<point x="281" y="-14" type="curve" smooth="yes"/>
			<point x="350" y="-14"/>
			<point x="408" y="7"/>
			<point x="455" y="64" type="curve"/>
			<point x="458" y="64" type="line"/>
			<point x="458" y="-109" type="line" smooth="yes"/>
			<point x="458" y="-141"/>
			<point x="451" y="-156"/>
			<point x="424" y="-158" type="curve" smooth="yes"/>
			<point x="353" y="-163" type="line"/>
		</contour>
		<contour>
			<point x="311" y="63" type="curve" smooth="yes"/>
			<point x="215" y="63"/>
			<point x="159" y="130"/>
			<point x="159" y="257" type="curve" smooth="yes"/>
			<point x="159" y="395"/>
			<point x="217" y="464"/>
			<point x="319" y="464" type="curve" smooth="yes"/>
			<point x="374" y="464"/>
			<point x="423" y="448"/>
			<point x="458" y="423" type="curve"/>
			<point x="458" y="212" type="line" smooth="yes"/>
			<point x="458" y="126"/>
			<point x="395" y="63"/>
		</contour>
	</outline>
</glyph>
<glyph name="t" format="2">
	<unicode hex="0074"/>
	<advance width="445"/>
	<outline>
		<contour>
			<point x="273" y="-14" type="curve" smooth="yes"/>
			<point x="326" y="-14"/>
			<point x="381" y="8"/>
			<point x="427" y="53" type="curve"/>
			<point x="398" y="95" type="line"/>
			<point x="366" y="72"/>
			<point x="338" y="59"/>
			<point x="300" y="59" type="curve" smooth="yes"/>
			<point x="249" y="59"/>
			<point x="224" y="86"/>
			<point x="224" y="142" type="curve" smooth="yes"/>
			<point x="224" y="456" type="line"/>
			<point x="394" y="456" type="line"/>
			<point x="394" y="519" type="line"/>
			<point x="224" y="519" type="line"/>
			<point x="224" y="674" type="line"/>
			<point x="210" y="680" type="line"/>
			<point x="164" y="674" type="line"/>
			<point x="154" y="552"/>
			<point x="129" y="514"/>
			<point x="45" y="508" type="curve"/>
			<point x="45" y="456" type="line"/>
			<point x="131" y="456" type="line"/>
			<point x="131" y="135" type="line" smooth="yes"/>
			<point x="131" y="43"/>
			<point x="170" y="-14"/>
		</contour>
	</outline>
	<anchor name="bottom" x="275" y="-30"/>
</glyph>
<glyph name="v" format="2">
	<unicode hex="0076"/>
	<advance width="631"/>
	<outline>
		<contour>
			<point x="267" y="0" type="line"/>
			<point x="364" y="0" type="line"/>
			<point x="533" y="410" type="line" smooth="yes"/>
			<point x="552" y="456"/>
			<point x="559" y="462"/>
			<point x="583" y="464" type="curve" smooth="yes"/>
			<point x="626" y="467" type="line"/>
			<point x="626" y="519" type="line"/>
			<point x="405" y="519" type="line"/>
			<point x="399" y="468" type="line"/>
			<point x="437" y="463" type="line" smooth="yes"/>
			<point x="469" y="459"/>
			<point x="476" y="445"/>
			<point x="462" y="409" type="curve" smooth="yes"/>
			<point x="337" y="86" type="line"/>
			<point x="329" y="86" type="line"/>
			<point x="202" y="416" type="line" smooth="yes"/>
			<point x="189" y="450"/>
			<point x="194" y="465"/>
			<point x="223" y="466" type="curve" smooth="yes"/>
			<point x="269" y="468" type="line"/>
			<point x="269" y="519" type="line"/>
			<point x="21" y="519" type="line"/>
			<point x="10" y="465" type="line"/>
			<point x="48" y="462" type="line" smooth="yes"/>
			<point x="76" y="460"/>
			<point x="83" y="448"/>
			<point x="99" y="411" type="curve" smooth="yes"/>
		</contour>
	</outline>
	<anchor name="top" x="335" y="550"/>
</glyph>
<glyph name="w" format="2">
	<unicode hex="0077"/>
	<advance width="940"/>
	<outline>
		<contour>
			<point x="234" y="0" type="line"/>
			<point x="349" y="0" type="line"/>
			<point x="471" y="417" type="line"/>
			<point x="476" y="417" type="line"/>
			<point x="599" y="0" type="line"/>
			<point x="710" y="0" type="line"/>
			<point x="844" y="410" type="line" smooth="yes"/>
			<point x="858" y="453"/>
			<point x="871" y="462"/>
			<point x="894" y="464" type="curve" smooth="yes"/>
			<point x="935" y="467" type="line"/>
			<point x="935" y="519" type="line"/>
			<point x="717" y="519" type="line"/>
			<point x="711" y="468" type="line"/>
			<point x="748" y="463" type="line" smooth="yes"/>
			<point x="779" y="459"/>
			<point x="784" y="444"/>
			<point x="773" y="409" type="curve" smooth="yes"/>
			<point x="674" y="88" type="line"/>
			<point x="668" y="88" type="line"/>
			<point x="539" y="519" type="line"/>
			<point x="435" y="519" type="line"/>
			<point x="304" y="86" type="line"/>
			<point x="298" y="86" type="line"/>
			<point x="197" y="416" type="line" smooth="yes"/>
			<point x="186" y="452"/>
			<point x="191" y="465"/>
			<point x="221" y="466" type="curve" smooth="yes"/>
			<point x="269" y="468" type="line"/>
			<point x="269" y="519" type="line"/>
			<point x="21" y="519" type="line"/>
			<point x="10" y="465" type="line"/>
			<point x="49" y="462" type="line" smooth="yes"/>
			<point x="80" y="460"/>
			<point x="85" y="446"/>
			<point x="97" y="411" type="curve" smooth="yes"/>
		</contour>
	</outline>
	<anchor name="top" x="487" y="550"/>
</glyph>
<glyph name="z" format="2">
	<unicode hex="007A"/>
	<advance width="537"/>
	<outline>
		<contour>
			<point x="50" y="0" type="line"/>
			<point x="486" y="0" type="line"/>
			<point x="501" y="191" type="line"/>
			<point x="449" y="191" type="line"/>
			<point x="399" y="55"/>
			<point x="382" y="57"/>
			<point x="298" y="57" type="curve" smooth="yes"/>
			<point x="172" y="57" type="line"/>
			<point x="486" y="471" type="line"/>
			<point x="486" y="517" type="line"/>
			<point x="66" y="517" type="line"/>
			<point x="53" y="340" type="line"/>
			<point x="109" y="345" type="line"/>
			<point x="139" y="449"/>
			<point x="156" y="462"/>
			<point x="239" y="462" type="curve" smooth="yes"/>
			<point x="365" y="462" type="line"/>
			<point x="50" y="44" type="line"/>
		</contour>
	</outline>
	<anchor name="bottom" x="270" y="-30"/>
	<anchor name="top" x="272" y="550"/>
</glyph>
<glyph name="braceleft" format="2">
	<unicode hex="007B"/>
	<advance width="415"/>
	<outline>
		<contour>
			<point x="292" y="-227" type="curve" smooth="yes"/>
			<point x="319" y="-227"/>
			<point x="345" y="-224"/>
			<point x="368" y="-218" type="curve"/>
			<point x="358" y="-167" type="line"/>
			<point x="343" y="-169"/>
			<point x="322" y="-171"/>
			<point x="305" y="-171" type="curve" smooth="yes"/>
			<point x="271" y="-171"/>
			<point x="246" y="-160"/>
			<point x="246" y="-103" type="curve" smooth="yes"/>
			<point x="246" y="-63"/>
			<point x="265" y="109"/>
			<point x="265" y="174" type="curve" smooth="yes"/>
			<point x="265" y="267"/>
			<point x="200" y="291"/>
			<point x="162" y="308" type="curve"/>
			<point x="199" y="323"/>
			<point x="265" y="344"/>
			<point x="265" y="440" type="curve" smooth="yes"/>
			<point x="265" y="507"/>
			<point x="246" y="657"/>
			<point x="246" y="702" type="curve" smooth="yes"/>
			<point x="246" y="757"/>
			<point x="270" y="766"/>
			<point x="295" y="766" type="curve" smooth="yes"/>
			<point x="315" y="766"/>
			<point x="332" y="764"/>
			<point x="349" y="762" type="curve"/>
			<point x="359" y="813" type="line"/>
			<point x="338" y="818"/>
			<point x="309" y="822"/>
			<point x="283" y="822" type="curve" smooth="yes"/>
			<point x="199" y="822"/>
			<point x="149" y="776"/>
			<point x="149" y="703" type="curve" smooth="yes"/>
			<point x="149" y="638"/>
			<point x="169" y="506"/>
			<point x="169" y="431" type="curve" smooth="yes"/>
			<point x="169" y="346"/>
			<point x="124" y="339"/>
			<point x="67" y="338" type="curve"/>
			<point x="67" y="275" type="line"/>
			<point x="125" y="274"/>
			<point x="169" y="264"/>
			<point x="169" y="182" type="curve" smooth="yes"/>
			<point x="169" y="110"/>
			<point x="149" y="-45"/>
			<point x="149" y="-106" type="curve" smooth="yes"/>
			<point x="149" y="-180"/>
			<point x="203" y="-227"/>
		</contour>
	</outline>
</glyph>
<glyph name="braceright" format="2">
	<unicode hex="007D"/>
	<advance width="415"/>
	<outline>
		<contour>
			<point x="123" y="-227" type="curve" smooth="yes"/>
			<point x="212" y="-227"/>
			<point x="266" y="-180"/>
			<point x="266" y="-106" type="curve" smooth="yes"/>
			<point x="266" y="-45"/>
			<point x="246" y="110"/>
			<point x="246" y="182" type="curve" smooth="yes"/>
			<point x="246" y="264"/>
			<point x="290" y="274"/>
			<point x="348" y="275" type="curve"/>
			<point x="348" y="338" type="line"/>
			<point x="291" y="339"/>
			<point x="246" y="346"/>
			<point x="246" y="431" type="curve" smooth="yes"/>
			<point x="246" y="506"/>
			<point x="266" y="638"/>
			<point x="266" y="703" type="curve" smooth="yes"/>
			<point x="266" y="776"/>
			<point x="216" y="822"/>
			<point x="132" y="822" type="curve" smooth="yes"/>
			<point x="106" y="822"/>
			<point x="77" y="818"/>
			<point x="56" y="813" type="curve"/>
			<point x="67" y="762" type="line"/>
			<point x="84" y="764"/>
			<point x="100" y="766"/>
			<point x="120" y="766" type="curve" smooth="yes"/>
			<point x="145" y="766"/>
			<point x="169" y="757"/>
			<point x="169" y="702" type="curve" smooth="yes"/>
			<point x="169" y="657"/>
			<point x="150" y="507"/>
			<point x="150" y="440" type="curve" smooth="yes"/>
			<point x="150" y="344"/>
			<point x="216" y="323"/>
			<point x="253" y="308" type="curve"/>
			<point x="215" y="291"/>
			<point x="150" y="267"/>
			<point x="150" y="174" type="curve" smooth="yes"/>
			<point x="150" y="109"/>
			<point x="169" y="-63"/>
			<point x="169" y="-103" type="curve" smooth="yes"/>
			<point x="169" y="-160"/>
			<point x="144" y="-171"/>
			<point x="110" y="-171" type="curve" smooth="yes"/>
			<point x="93" y="-171"/>
			<point x="73" y="-169"/>
			<point x="58" y="-167" type="curve"/>
			<point x="47" y="-218" type="line"/>
			<point x="70" y="-224"/>
			<point x="96" y="-227"/>
		</contour>
	</outline>
</glyph>
<glyph name="asciitilde" format="2">
	<unicode hex="007E"/>
	<advance width="620"/>
	<outline>
		<contour>
			<point x="133" y="235" type="line"/>
			<point x="154" y="273"/>
			<point x="161" y="276"/>
			<point x="186" y="276" type="curve" smooth="yes"/>
			<point x="213" y="276"/>
			<point x="239" y="271"/>
			<point x="286" y="259" type="curve" smooth="yes"/>
			<point x="354" y="242"/>
			<point x="395" y="234"/>
			<point x="434" y="234" type="curve" smooth="yes"/>
			<point x="482" y="234"/>
			<point x="505" y="253"/>
			<point x="539" y="333" type="curve"/>
			<point x="487" y="352" type="line"/>
			<point x="469" y="319"/>
			<point x="460" y="311"/>
			<point x="434" y="311" type="curve" smooth="yes"/>
			<point x="404" y="311"/>
			<point x="372" y="317"/>
			<point x="318" y="331" type="curve" smooth="yes"/>
			<point x="265" y="345"/>
			<point x="220" y="353"/>
			<point x="183" y="353" type="curve" smooth="yes"/>
			<point x="133" y="353"/>
			<point x="113" y="327"/>
			<point x="81" y="254" type="curve"/>
		</contour>
	</outline>
</glyph>
<glyph name="sterling" format="2">
	<unicode hex="00A3"/>
	<advance width="620"/>
	<outline>
		<contour>
			<point x="65" y="0" type="line"/>
			<point x="532" y="0" type="line"/>
			<point x="560" y="188" type="line"/>
			<point x="501" y="188" type="line"/>
			<point x="464" y="89"/>
			<point x="445" y="77"/>
			<point x="353" y="77" type="curve" smooth="yes"/>
			<point x="206" y="77" type="line"/>
			<point x="204" y="81" type="line"/>
			<point x="256" y="119"/>
			<point x="286" y="177"/>
			<point x="286" y="240" type="curve" smooth="yes"/>
			<point x="286" y="266"/>
			<point x="281" y="289"/>
			<point x="272" y="311" type="curve"/>
			<point x="454" y="311" type="line"/>
			<point x="454" y="371" type="line"/>
			<point x="246" y="371" type="line"/>
			<point x="223" y="417"/>
			<point x="200" y="466"/>
			<point x="200" y="532" type="curve" smooth="yes"/>
			<point x="200" y="613"/>
			<point x="243" y="656"/>
			<point x="326" y="656" type="curve" smooth="yes"/>
			<point x="367" y="656"/>
			<point x="402" y="646"/>
			<point x="425" y="631" type="curve"/>
			<point x="403" y="596"/>
			<point x="396" y="582"/>
			<point x="396" y="566" type="curve" smooth="yes"/>
			<point x="396" y="534"/>
			<point x="418" y="516"/>
			<point x="456" y="516" type="curve" smooth="yes"/>
			<point x="498" y="516"/>
			<point x="524" y="541"/>
			<point x="524" y="583" type="curve" smooth="yes"/>
			<point x="524" y="661"/>
			<point x="451" y="715"/>
			<point x="333" y="715" type="curve" smooth="yes"/>
			<point x="189" y="715"/>
			<point x="101" y="635"/>
			<point x="101" y="509" type="curve" smooth="yes"/>
			<point x="101" y="455"/>
			<point x="116" y="410"/>
			<point x="133" y="371" type="curve"/>
			<point x="53" y="371" type="line"/>
			<point x="45" y="311" type="line"/>
			<point x="162" y="311" type="line"/>
			<point x="179" y="277"/>
			<point x="192" y="245"/>
			<point x="192" y="211" type="curve" smooth="yes"/>
			<point x="192" y="124"/>
			<point x="161" y="83"/>
			<point x="57" y="46" type="curve"/>
		</contour>
	</outline>
</glyph>
<glyph name="currency" format="2">
	<unicode hex="00A4"/>
	<advance width="595"/>
	<outline>
		<contour>
			<point x="492" y="105" type="line"/>
			<point x="530" y="143" type="line"/>
			<point x="464" y="222" type="line"/>
			<point x="484" y="250"/>
			<point x="499" y="287"/>
			<point x="499" y="335" type="curve" smooth="yes"/>
			<point x="499" y="375"/>
			<point x="489" y="410"/>
			<point x="468" y="439" type="curve"/>
			<point x="531" y="513" type="line"/>
			<point x="493" y="551" type="line"/>
			<point x="408" y="490" type="line"/>
			<point x="375" y="508"/>
			<point x="336" y="514"/>
			<point x="303" y="514" type="curve" smooth="yes"/>
			<point x="263" y="514"/>
			<point x="222" y="505"/>
			<point x="189" y="486" type="curve"/>
			<point x="102" y="548" type="line"/>
			<point x="64" y="510" type="line"/>
			<point x="129" y="432" type="line"/>
			<point x="109" y="405"/>
			<point x="97" y="369"/>
			<point x="97" y="326" type="curve" smooth="yes"/>
			<point x="97" y="284"/>
			<point x="109" y="247"/>
			<point x="129" y="220" type="curve"/>
			<point x="65" y="144" type="line"/>
			<point x="103" y="106" type="line"/>
			<point x="190" y="168" type="line"/>
			<point x="219" y="153"/>
			<point x="255" y="145"/>
			<point x="296" y="145" type="curve" smooth="yes"/>
			<point x="333" y="145"/>
			<point x="370" y="153"/>
			<point x="401" y="169" type="curve"/>
		</contour>
		<contour>
			<point x="296" y="206" type="curve" smooth="yes"/>
			<point x="227" y="206"/>
			<point x="185" y="252"/>
			<point x="185" y="329" type="curve" smooth="yes"/>
			<point x="185" y="411"/>
			<point x="230" y="451"/>
			<point x="300" y="451" type="curve" smooth="yes"/>
			<point x="369" y="451"/>
			<point x="411" y="414"/>
			<point x="411" y="331" type="curve" smooth="yes"/>
			<point x="411" y="253"/>
			<point x="374" y="206"/>
		</contour>
	</outline>
</glyph>
<glyph name="section" format="2">
	<unicode hex="00A7"/>
	<advance width="672"/>
	<outline>
		<contour>
			<point x="305" y="-156" type="curve" smooth="yes"/>
			<point x="423" y="-156"/>
			<point x="504" y="-92"/>
			<point x="504" y="1" type="curve" smooth="yes"/>
			<point x="504" y="17"/>
			<point x="500" y="37"/>
			<point x="493" y="56" type="curve"/>
			<point x="558" y="86"/>
			<point x="599" y="147"/>
			<point x="599" y="206" type="curve" smooth="yes"/>
			<point x="599" y="287"/>
			<point x="539" y="354"/>
			<point x="421" y="418" type="curve" smooth="yes"/>
			<point x="291" y="488"/>
			<point x="256" y="528"/>
			<point x="256" y="581" type="curve" smooth="yes"/>
			<point x="256" y="632"/>
			<point x="295" y="655"/>
			<point x="352" y="655" type="curve" smooth="yes"/>
			<point x="371" y="655"/>
			<point x="395" y="650"/>
			<point x="409" y="643" type="curve"/>
			<point x="389" y="611"/>
			<point x="385" y="597"/>
			<point x="385" y="584" type="curve" smooth="yes"/>
			<point x="385" y="558"/>
			<point x="407" y="544"/>
			<point x="442" y="544" type="curve" smooth="yes"/>
			<point x="478" y="544"/>
			<point x="507" y="573"/>
			<point x="507" y="618" type="curve" smooth="yes"/>
			<point x="507" y="675"/>
			<point x="445" y="714"/>
			<point x="356" y="714" type="curve" smooth="yes"/>
			<point x="249" y="714"/>
			<point x="172" y="649"/>
			<point x="172" y="558" type="curve" smooth="yes"/>
			<point x="172" y="542"/>
			<point x="176" y="520"/>
			<point x="181" y="501" type="curve"/>
			<point x="115" y="472"/>
			<point x="77" y="416"/>
			<point x="77" y="356" type="curve" smooth="yes"/>
			<point x="77" y="276"/>
			<point x="130" y="210"/>
			<point x="260" y="139" type="curve" smooth="yes"/>
			<point x="381" y="73"/>
			<point x="422" y="31"/>
			<point x="422" y="-17" type="curve" smooth="yes"/>
			<point x="422" y="-69"/>
			<point x="380" y="-97"/>
			<point x="313" y="-97" type="curve" smooth="yes"/>
			<point x="283" y="-97"/>
			<point x="260" y="-93"/>
			<point x="246" y="-85" type="curve"/>
			<point x="260" y="-64"/>
			<point x="271" y="-44"/>
			<point x="271" y="-24" type="curve" smooth="yes"/>
			<point x="271" y="0"/>
			<point x="250" y="16"/>
			<point x="219" y="16" type="curve" smooth="yes"/>
			<point x="177" y="16"/>
			<point x="147" y="-14"/>
			<point x="147" y="-60" type="curve" smooth="yes"/>
			<point x="147" y="-119"/>
			<point x="209" y="-156"/>
		</contour>
		<contour>
			<point x="464" y="107" type="curve"/>
			<point x="429" y="147"/>
			<point x="377" y="185"/>
			<point x="299" y="228" type="curve" smooth="yes"/>
			<point x="204" y="280"/>
			<point x="162" y="325"/>
			<point x="162" y="376" type="curve" smooth="yes"/>
			<point x="162" y="408"/>
			<point x="179" y="432"/>
			<point x="209" y="451" type="curve"/>
			<point x="248" y="409"/>
			<point x="295" y="374"/>
			<point x="393" y="320" type="curve" smooth="yes"/>
			<point x="479" y="273"/>
			<point x="514" y="233"/>
			<point x="514" y="185" type="curve" smooth="yes"/>
			<point x="514" y="153"/>
			<point x="495" y="124"/>
		</contour>
	</outline>
</glyph>
<glyph name="dieresis" format="2">
	<unicode hex="00A8"/>
	<advance width="500"/>
	<outline>
		<contour>
			<point x="352" y="620" type="curve" smooth="yes"/>
			<point x="389" y="620"/>
			<point x="416" y="647"/>
			<point x="416" y="683" type="curve" smooth="yes"/>
			<point x="416" y="719"/>
			<point x="389" y="745"/>
			<point x="352" y="745" type="curve" smooth="yes"/>
			<point x="315" y="745"/>
			<point x="288" y="718"/>
			<point x="288" y="682" type="curve" smooth="yes"/>
			<point x="288" y="646"/>
			<point x="315" y="620"/>
		</contour>
		<contour>
			<point x="147" y="620" type="curve" smooth="yes"/>
			<point x="185" y="620"/>
			<point x="212" y="647"/>
			<point x="212" y="683" type="curve" smooth="yes"/>
			<point x="212" y="719"/>
			<point x="185" y="745"/>
			<point x="147" y="745" type="curve" smooth="yes"/>
			<point x="111" y="745"/>
			<point x="84" y="718"/>
			<point x="84" y="682" type="curve" smooth="yes"/>
			<point x="84" y="646"/>
			<point x="111" y="620"/>
		</contour>
	</outline>
	<anchor name="_top" x="250" y="550"/>
</glyph>
<glyph name="ordfeminine" format="2">
	<unicode hex="00AA"/>
	<advance width="430"/>
	<outline>
		<contour>
			<point x="151" y="362" type="curve" smooth="yes"/>
			<point x="203" y="362"/>
			<point x="240" y="379"/>
			<point x="270" y="417" type="curve"/>
			<point x="274" y="382"/>
			<point x="296" y="362"/>
			<point x="339" y="362" type="curve" smooth="yes"/>
			<point x="374" y="362"/>
			<point x="399" y="372"/>
			<point x="420" y="391" type="curve"/>
			<point x="409" y="427" type="line"/>
			<point x="394" y="422"/>
			<point x="384" y="420"/>
			<point x="374" y="420" type="curve" smooth="yes"/>
			<point x="351" y="420"/>
			<point x="340" y="434"/>
			<point x="340" y="454" type="curve" smooth="yes"/>
			<point x="340" y="611" type="line" smooth="yes"/>
			<point x="340" y="714"/>
			<point x="275" y="742"/>
			<point x="194" y="742" type="curve" smooth="yes"/>
			<point x="109" y="742"/>
			<point x="44" y="699"/>
			<point x="44" y="650" type="curve" smooth="yes"/>
			<point x="44" y="628"/>
			<point x="56" y="608"/>
			<point x="89" y="608" type="curve" smooth="yes"/>
			<point x="120" y="608"/>
			<point x="134" y="626"/>
			<point x="134" y="644" type="curve" smooth="yes"/>
			<point x="134" y="651"/>
			<point x="131" y="657"/>
			<point x="120" y="675" type="curve"/>
			<point x="134" y="685"/>
			<point x="152" y="691"/>
			<point x="183" y="691" type="curve" smooth="yes"/>
			<point x="233" y="691"/>
			<point x="261" y="670"/>
			<point x="261" y="617" type="curve" smooth="yes"/>
			<point x="261" y="580" type="line"/>
			<point x="228" y="578"/>
			<point x="193" y="576"/>
			<point x="161" y="571" type="curve" smooth="yes"/>
			<point x="86" y="559"/>
			<point x="40" y="528"/>
			<point x="40" y="461" type="curve" smooth="yes"/>
			<point x="40" y="390"/>
			<point x="95" y="362"/>
		</contour>
		<contour>
			<point x="182" y="423" type="curve" smooth="yes"/>
			<point x="151" y="423"/>
			<point x="123" y="432"/>
			<point x="123" y="467" type="curve" smooth="yes"/>
			<point x="123" y="518"/>
			<point x="183" y="530"/>
			<point x="261" y="530" type="curve"/>
			<point x="261" y="499" type="line" smooth="yes"/>
			<point x="261" y="445"/>
			<point x="213" y="423"/>
		</contour>
	</outline>
</glyph>
<glyph name="registered" format="2">
	<unicode hex="00AE"/>
	<advance width="538"/>
	<outline>
		<contour>
			<point x="268" y="384" type="curve" smooth="yes"/>
			<point x="384" y="384"/>
			<point x="466" y="458"/>
			<point x="466" y="576" type="curve" smooth="yes"/>
			<point x="466" y="692"/>
			<point x="389" y="762"/>
			<point x="270" y="762" type="curve" smooth="yes"/>
			<point x="161" y="762"/>
			<point x="72" y="692"/>
			<point x="72" y="569" type="curve" smooth="yes"/>
			<point x="72" y="459"/>
			<point x="139" y="384"/>
		</contour>
		<contour>
			<point x="355" y="455" type="curve" smooth="yes"/>
			<point x="327" y="455"/>
			<point x="313" y="467"/>
			<point x="306" y="493" type="curve" smooth="yes"/>
			<point x="297" y="525" type="line" smooth="yes"/>
			<point x="288" y="556"/>
			<point x="272" y="564"/>
			<point x="252" y="564" type="curve" smooth="yes"/>
			<point x="236" y="564" type="line"/>
			<point x="236" y="497" type="line" smooth="yes"/>
			<point x="236" y="486"/>
			<point x="238" y="480"/>
			<point x="250" y="479" type="curve" smooth="yes"/>
			<point x="269" y="478" type="line"/>
			<point x="269" y="459" type="line"/>
			<point x="165" y="459" type="line"/>
			<point x="165" y="478" type="line"/>
			<point x="182" y="479" type="line" smooth="yes"/>
			<point x="194" y="480"/>
			<point x="196" y="487"/>
			<point x="196" y="497" type="curve" smooth="yes"/>
			<point x="196" y="656" type="line" smooth="yes"/>
			<point x="196" y="666"/>
			<point x="194" y="672"/>
			<point x="182" y="673" type="curve" smooth="yes"/>
			<point x="163" y="674" type="line"/>
			<point x="163" y="693" type="line"/>
			<point x="256" y="693" type="line" smooth="yes"/>
			<point x="310" y="693"/>
			<point x="359" y="678"/>
			<point x="359" y="633" type="curve" smooth="yes"/>
			<point x="359" y="593"/>
			<point x="320" y="577"/>
			<point x="292" y="573" type="curve"/>
			<point x="292" y="572" type="line"/>
			<point x="328" y="565"/>
			<point x="340" y="545"/>
			<point x="346" y="520" type="curve" smooth="yes"/>
			<point x="352" y="495" type="line" smooth="yes"/>
			<point x="355" y="483"/>
			<point x="362" y="478"/>
			<point x="373" y="478" type="curve" smooth="yes"/>
			<point x="378" y="478"/>
			<point x="382" y="479"/>
			<point x="385" y="480" type="curve"/>
			<point x="392" y="465" type="line"/>
			<point x="386" y="460"/>
			<point x="374" y="455"/>
		</contour>
		<contour>
			<point x="236" y="587" type="line"/>
			<point x="257" y="587" type="line" smooth="yes"/>
			<point x="299" y="587"/>
			<point x="317" y="602"/>
			<point x="317" y="631" type="curve" smooth="yes"/>
			<point x="317" y="668"/>
			<point x="282" y="671"/>
			<point x="255" y="671" type="curve" smooth="yes"/>
			<point x="236" y="671" type="line"/>
		</contour>
	</outline>
</glyph>
<glyph name="macron" format="2">
	<unicode hex="00AF"/>
	<advance width="500"/>
	<outline>
		<contour>
			<point x="106" y="635" type="line"/>
			<point x="394" y="635" type="line"/>
			<point x="394" y="714" type="line"/>
			<point x="106" y="714" type="line"/>
		</contour>
	</outline>
	<anchor name="_top" x="250" y="550"/>
</glyph>
<glyph name="AE" format="2">
	<unicode hex="00C6"/>
	<advance width="1027"/>
	<outline>
		<contour>
			<point x="16" y="0" type="line"/>
			<point x="265" y="0" type="line"/>
			<point x="265" y="52" type="line"/>
			<point x="213" y="56" type="line" smooth="yes"/>
			<point x="177" y="59"/>
			<point x="173" y="75"/>
			<point x="189" y="109" type="curve" smooth="yes"/>
			<point x="286" y="312" type="line"/>
			<point x="512" y="312" type="line"/>
			<point x="512" y="108" type="line" smooth="yes"/>
			<point x="512" y="68"/>
			<point x="503" y="58"/>
			<point x="479" y="57" type="curve" smooth="yes"/>
			<point x="410" y="53" type="line"/>
			<point x="410" y="0" type="line"/>
			<point x="944" y="0" type="line"/>
			<point x="967" y="189" type="line"/>
			<point x="911" y="189" type="line"/>
			<point x="881" y="82"/>
			<point x="852" y="60"/>
			<point x="750" y="60" type="curve" smooth="yes"/>
			<point x="610" y="60" type="line"/>
			<point x="610" y="312" type="line"/>
			<point x="702" y="312" type="line" smooth="yes"/>
			<point x="773" y="312"/>
			<point x="785" y="305"/>
			<point x="800" y="223" type="curve"/>
			<point x="848" y="231" type="line"/>
			<point x="848" y="461" type="line"/>
			<point x="800" y="455" type="line"/>
			<point x="780" y="379"/>
			<point x="776" y="372"/>
			<point x="704" y="372" type="curve" smooth="yes"/>
			<point x="610" y="372" type="line"/>
			<point x="610" y="640" type="line"/>
			<point x="719" y="640" type="line" smooth="yes"/>
			<point x="819" y="640"/>
			<point x="846" y="630"/>
			<point x="891" y="515" type="curve"/>
			<point x="945" y="532" type="line"/>
			<point x="908" y="700" type="line"/>
			<point x="295" y="700" type="line"/>
			<point x="295" y="648" type="line"/>
			<point x="376" y="643" type="line"/>
			<point x="112" y="110" type="line" smooth="yes"/>
			<point x="88" y="61"/>
			<point x="78" y="60"/>
			<point x="62" y="58" type="curve" smooth="yes"/>
			<point x="16" y="53" type="line"/>
		</contour>
		<contour>
			<point x="315" y="372" type="line"/>
			<point x="443" y="640" type="line"/>
			<point x="512" y="640" type="line"/>
			<point x="512" y="372" type="line"/>
		</contour>
	</outline>
	<anchor name="bottom" x="541" y="-30"/>
	<anchor name="top" x="643" y="730"/>
</glyph>
<glyph name="Ccedilla" format="2">
	<unicode hex="00C7"/>
	<advance width="751"/>
	<outline>
		<contour>
			<point x="396" y="-229" type="curve" smooth="yes"/>
			<point x="476" y="-229"/>
			<point x="513" y="-189"/>
			<point x="513" y="-133" type="curve" smooth="yes"/>
			<point x="513" y="-76"/>
			<point x="473" y="-49"/>
			<point x="407" y="-53" type="curve"/>
			<point x="423" y="-14" type="line"/>
			<point x="436" y="-14"/>
			<point x="449" y="-13"/>
			<point x="462" y="-11" type="curve" smooth="yes"/>
			<point x="561" y="1"/>
			<point x="645" y="55"/>
			<point x="696" y="137" type="curve"/>
			<point x="650" y="173" type="line"/>
			<point x="588" y="97"/>
			<point x="526" y="61"/>
			<point x="426" y="61" type="curve" smooth="yes"/>
			<point x="277" y="61"/>
			<point x="174" y="175"/>
			<point x="174" y="366" type="curve" smooth="yes"/>
			<point x="174" y="547"/>
			<point x="256" y="647"/>
			<point x="407" y="647" type="curve" smooth="yes"/>
			<point x="519" y="647"/>
			<point x="585" y="591"/>
			<point x="627" y="470" type="curve"/>
			<point x="681" y="482" type="line"/>
			<point x="642" y="714" type="line"/>
			<point x="593" y="714" type="line"/>
			<point x="581" y="651" type="line"/>
			<point x="539" y="690"/>
			<point x="483" y="714"/>
			<point x="403" y="714" type="curve" smooth="yes"/>
			<point x="203" y="714"/>
			<point x="64" y="573"/>
			<point x="64" y="351" type="curve" smooth="yes"/>
			<point x="64" y="146"/>
			<point x="179" y="6"/>
			<point x="373" y="-12" type="curve"/>
			<point x="348" y="-75" type="line"/>
			<point x="356" y="-98" type="line"/>
			<point x="365" y="-96"/>
			<point x="373" y="-95"/>
			<point x="386" y="-95" type="curve" smooth="yes"/>
			<point x="423" y="-95"/>
			<point x="441" y="-104"/>
			<point x="441" y="-131" type="curve" smooth="yes"/>
			<point x="441" y="-161"/>
			<point x="414" y="-172"/>
			<point x="388" y="-172" type="curve" smooth="yes"/>
			<point x="366" y="-172"/>
			<point x="334" y="-160"/>
			<point x="317" y="-148" type="curve"/>
			<point x="291" y="-193" type="line"/>
			<point x="305" y="-206"/>
			<point x="342" y="-229"/>
		</contour>
	</outline>
	<anchor name="bottom" x="404" y="-30"/>
	<anchor name="top" x="395" y="730"/>
</glyph>
<glyph name="Eth" format="2">
	<unicode hex="00D0"/>
	<advance width="834"/>
	<outline>
		<contour>
			<point x="381" y="700" type="curve" smooth="yes"/>
			<point x="69" y="700" type="line"/>
			<point x="69" y="647" type="line"/>
			<point x="135" y="643" type="line" smooth="yes"/>
			<point x="165" y="641"/>
			<point x="171" y="630"/>
			<point x="171" y="596" type="curve" smooth="yes"/>
			<point x="171" y="393" type="line"/>
			<point x="62" y="393" type="line"/>
			<point x="54" y="328" type="line"/>
			<point x="171" y="328" type="line"/>
			<point x="171" y="108" type="line" smooth="yes"/>
			<point x="171" y="70"/>
			<point x="165" y="59"/>
			<point x="137" y="57" type="curve" smooth="yes"/>
			<point x="69" y="53" type="line"/>
			<point x="69" y="0" type="line"/>
			<point x="353" y="0" type="line" smooth="yes"/>
			<point x="610" y="0"/>
			<point x="770" y="136"/>
			<point x="770" y="372" type="curve" smooth="yes"/>
			<point x="770" y="587"/>
			<point x="636" y="700"/>
		</contour>
		<contour>
			<point x="351" y="60" type="curve" smooth="yes"/>
			<point x="324" y="60"/>
			<point x="296" y="60"/>
			<point x="269" y="60" type="curve"/>
			<point x="269" y="328" type="line"/>
			<point x="454" y="328" type="line"/>
			<point x="454" y="393" type="line"/>
			<point x="269" y="393" type="line"/>
			<point x="269" y="640" type="line"/>
			<point x="376" y="640" type="line" smooth="yes"/>
			<point x="566" y="640"/>
			<point x="660" y="549"/>
			<point x="660" y="364" type="curve" smooth="yes"/>
			<point x="660" y="152"/>
			<point x="566" y="60"/>
		</contour>
	</outline>
	<anchor name="bottom" x="394" y="-30"/>
	<anchor name="top" x="392" y="730"/>
</glyph>
<glyph name="multiply" format="2">
	<unicode hex="00D7"/>
	<advance width="620"/>
	<outline>
		<contour>
			<point x="444" y="119" type="line"/>
			<point x="496" y="171" type="line"/>
			<point x="360" y="306" type="line"/>
			<point x="496" y="443" type="line"/>
			<point x="446" y="495" type="line"/>
			<point x="309" y="358" type="line"/>
			<point x="177" y="489" type="line"/>
			<point x="124" y="439" type="line"/>
			<point x="258" y="307" type="line"/>
			<point x="125" y="172" type="line"/>
			<point x="175" y="122" type="line"/>
			<point x="309" y="255" type="line"/>
		</contour>
	</outline>
</glyph>
<glyph name="Oslash" format="2">
	<unicode hex="00D8"/>
	<advance width="834"/>
	<outline>
		<contour>
			<point x="72" y="-14" type="line"/>
			<point x="162" y="-14" type="line"/>
			<point x="209" y="42" type="line"/>
			<point x="264" y="6"/>
			<point x="333" y="-14"/>
			<point x="412" y="-14" type="curve" smooth="yes"/>
			<point x="623" y="-14"/>
			<point x="770" y="140"/>
			<point x="770" y="368" type="curve" smooth="yes"/>
			<point x="770" y="468"/>
			<point x="738" y="551"/>
			<point x="682" y="611" type="curve"/>
			<point x="768" y="714" type="line"/>
			<point x="678" y="714" type="line"/>
			<point x="630" y="656" type="line"/>
			<point x="574" y="693"/>
			<point x="503" y="714"/>
			<point x="422" y="714" type="curve" smooth="yes"/>
			<point x="198" y="714"/>
			<point x="64" y="567"/>
			<point x="64" y="336" type="curve" smooth="yes"/>
			<point x="64" y="233"/>
			<point x="97" y="148"/>
			<point x="156" y="87" type="curve"/>
		</contour>
		<contour>
			<point x="425" y="57" type="curve" smooth="yes"/>
			<point x="362" y="57"/>
			<point x="308" y="76"/>
			<point x="266" y="111" type="curve"/>
			<point x="618" y="533" type="line"/>
			<point x="645" y="486"/>
			<point x="660" y="424"/>
			<point x="660" y="348" type="curve" smooth="yes"/>
			<point x="660" y="155"/>
			<point x="577" y="57"/>
		</contour>
		<contour>
			<point x="221" y="164" type="line"/>
			<point x="191" y="213"/>
			<point x="174" y="278"/>
			<point x="174" y="356" type="curve" smooth="yes"/>
			<point x="174" y="543"/>
			<point x="259" y="644"/>
			<point x="408" y="644" type="curve" smooth="yes"/>
			<point x="475" y="644"/>
			<point x="531" y="625"/>
			<point x="573" y="588" type="curve"/>
		</contour>
	</outline>
	<anchor name="bottom" x="411" y="-30"/>
	<anchor name="top" x="417" y="730"/>
</glyph>
<glyph name="germandbls" format="2">
	<unicode hex="00DF"/>
	<advance width="761"/>
	<outline>
		<contour>
			<point x="345" y="-14" type="line"/>
			<point x="393" y="-14" type="line"/>
			<point x="405" y="25" type="line"/>
			<point x="428" y="8"/>
			<point x="474" y="-14"/>
			<point x="537" y="-14" type="curve" smooth="yes"/>
			<point x="661" y="-14"/>
			<point x="721" y="67"/>
			<point x="721" y="152" type="curve" smooth="yes"/>
			<point x="721" y="327"/>
			<point x="486" y="307"/>
			<point x="486" y="421" type="curve" smooth="yes"/>
			<point x="486" y="509"/>
			<point x="611" y="549"/>
			<point x="611" y="647" type="curve" smooth="yes"/>
			<point x="611" y="746"/>
			<point x="507" y="782"/>
			<point x="405" y="782" type="curve" smooth="yes"/>
			<point x="245" y="782"/>
			<point x="153" y="690"/>
			<point x="153" y="545" type="curve" smooth="yes"/>
			<point x="153" y="515" type="line"/>
			<point x="67" y="505" type="line"/>
			<point x="67" y="455" type="line"/>
			<point x="153" y="455" type="line"/>
			<point x="153" y="108" type="line" smooth="yes"/>
			<point x="153" y="76"/>
			<point x="149" y="59"/>
			<point x="120" y="57" type="curve" smooth="yes"/>
			<point x="58" y="53" type="line"/>
			<point x="58" y="0" type="line"/>
			<point x="246" y="0" type="line"/>
			<point x="246" y="583" type="line" smooth="yes"/>
			<point x="246" y="693"/>
			<point x="318" y="727"/>
			<point x="396" y="727" type="curve" smooth="yes"/>
			<point x="451" y="727"/>
			<point x="518" y="710"/>
			<point x="518" y="636" type="curve" smooth="yes"/>
			<point x="518" y="524"/>
			<point x="389" y="498"/>
			<point x="389" y="392" type="curve" smooth="yes"/>
			<point x="389" y="225"/>
			<point x="635" y="254"/>
			<point x="635" y="137" type="curve" smooth="yes"/>
			<point x="635" y="78"/>
			<point x="599" y="50"/>
			<point x="539" y="50" type="curve" smooth="yes"/>
			<point x="485" y="50"/>
			<point x="428" y="69"/>
			<point x="391" y="162" type="curve"/>
			<point x="333" y="158" type="line"/>
		</contour>
	</outline>
</glyph>
<glyph name="ccedilla" format="2">
	<unicode hex="00E7"/>
	<advance width="560"/>
	<outline>
		<contour>
			<point x="300" y="-229" type="curve" smooth="yes"/>
			<point x="380" y="-229"/>
			<point x="417" y="-189"/>
			<point x="417" y="-133" type="curve" smooth="yes"/>
			<point x="417" y="-76"/>
			<point x="377" y="-49"/>
			<point x="311" y="-53" type="curve"/>
			<point x="327" y="-14" type="line"/>
			<point x="406" y="-9"/>
			<point x="474" y="30"/>
			<point x="516" y="84" type="curve"/>
			<point x="479" y="124" type="line"/>
			<point x="443" y="93"/>
			<point x="396" y="65"/>
			<point x="331" y="65" type="curve" smooth="yes"/>
			<point x="231" y="65"/>
			<point x="160" y="125"/>
			<point x="160" y="278" type="curve" smooth="yes"/>
			<point x="160" y="416"/>
			<point x="227" y="471"/>
			<point x="315" y="471" type="curve" smooth="yes"/>
			<point x="356" y="471"/>
			<point x="387" y="461"/>
			<point x="410" y="445" type="curve"/>
			<point x="393" y="412"/>
			<point x="385" y="394"/>
			<point x="385" y="378" type="curve" smooth="yes"/>
			<point x="385" y="349"/>
			<point x="406" y="329"/>
			<point x="446" y="329" type="curve" smooth="yes"/>
			<point x="485" y="329"/>
			<point x="512" y="356"/>
			<point x="512" y="396" type="curve" smooth="yes"/>
			<point x="512" y="475"/>
			<point x="428" y="533"/>
			<point x="316" y="533" type="curve" smooth="yes"/>
			<point x="163" y="533"/>
			<point x="62" y="424"/>
			<point x="62" y="253" type="curve" smooth="yes"/>
			<point x="62" y="97"/>
			<point x="142" y="1"/>
			<point x="277" y="-12" type="curve"/>
			<point x="252" y="-75" type="line"/>
			<point x="260" y="-98" type="line"/>
			<point x="269" y="-96"/>
			<point x="277" y="-95"/>
			<point x="290" y="-95" type="curve" smooth="yes"/>
			<point x="327" y="-95"/>
			<point x="345" y="-104"/>
			<point x="345" y="-131" type="curve" smooth="yes"/>
			<point x="345" y="-161"/>
			<point x="318" y="-172"/>
			<point x="292" y="-172" type="curve" smooth="yes"/>
			<point x="270" y="-172"/>
			<point x="238" y="-160"/>
			<point x="221" y="-148" type="curve"/>
			<point x="195" y="-193" type="line"/>
			<point x="209" y="-206"/>
			<point x="246" y="-229"/>
		</contour>
	</outline>
	<anchor name="bottom" x="308" y="-30"/>
	<anchor name="top" x="309" y="550"/>
</glyph>
<glyph name="eth" format="2">
	<unicode hex="00F0"/>
	<advance width="641"/>
	<outline>
		<contour>
			<point x="309" y="-14" type="curve" smooth="yes"/>
			<point x="495" y="-14"/>
			<point x="583" y="121"/>
			<point x="583" y="348" type="curve" smooth="yes"/>
			<point x="583" y="519"/>
			<point x="522" y="621"/>
			<point x="451" y="683" type="curve"/>
			<point x="533" y="742" type="line"/>
			<point x="504" y="792" type="line"/>
			<point x="400" y="716" type="line"/>
			<point x="329" y="754"/>
			<point x="248" y="766"/>
			<point x="175" y="771" type="curve"/>
			<point x="163" y="718" type="line"/>
			<point x="227" y="711"/>
			<point x="291" y="697"/>
			<point x="338" y="667" type="curve"/>
			<point x="254" y="612" type="line"/>
			<point x="284" y="562" type="line"/>
			<point x="384" y="633" type="line"/>
			<point x="436" y="581"/>
			<point x="475" y="491"/>
			<point x="484" y="421" type="curve"/>
			<point x="478" y="420" type="line"/>
			<point x="443" y="468"/>
			<point x="382" y="496"/>
			<point x="305" y="496" type="curve" smooth="yes"/>
			<point x="190" y="496"/>
			<point x="62" y="421"/>
			<point x="62" y="241" type="curve" smooth="yes"/>
			<point x="62" y="81"/>
			<point x="159" y="-14"/>
		</contour>
		<contour>
			<point x="326" y="53" type="curve" smooth="yes"/>
			<point x="226" y="53"/>
			<point x="168" y="120"/>
			<point x="168" y="244" type="curve" smooth="yes"/>
			<point x="168" y="375"/>
			<point x="238" y="430"/>
			<point x="321" y="430" type="curve" smooth="yes"/>
			<point x="382" y="430"/>
			<point x="427" y="406"/>
			<point x="448" y="367" type="curve" smooth="yes"/>
			<point x="467" y="332"/>
			<point x="475" y="289"/>
			<point x="475" y="247" type="curve" smooth="yes"/>
			<point x="475" y="131"/>
			<point x="422" y="53"/>
		</contour>
	</outline>
</glyph>
<glyph name="divide" format="2">
	<unicode hex="00F7"/>
	<advance width="620"/>
	<outline>
		<contour>
			<point x="96" y="270" type="line"/>
			<point x="524" y="270" type="line"/>
			<point x="524" y="343" type="line"/>
			<point x="96" y="343" type="line"/>
		</contour>
		<contour>
			<point x="309" y="82" type="curve" smooth="yes"/>
			<point x="347" y="82"/>
			<point x="378" y="110"/>
			<point x="378" y="147" type="curve" smooth="yes"/>
			<point x="378" y="184"/>
			<point x="347" y="211"/>
			<point x="309" y="211" type="curve" smooth="yes"/>
			<point x="272" y="211"/>
			<point x="241" y="183"/>
			<point x="241" y="146" type="curve" smooth="yes"/>
			<point x="241" y="109"/>
			<point x="272" y="82"/>
		</contour>
		<contour>
			<point x="309" y="398" type="curve" smooth="yes"/>
			<point x="347" y="398"/>
			<point x="378" y="426"/>
			<point x="378" y="463" type="curve" smooth="yes"/>
			<point x="378" y="500"/>
			<point x="347" y="527"/>
			<point x="309" y="527" type="curve" smooth="yes"/>
			<point x="272" y="527"/>
			<point x="241" y="499"/>
			<point x="241" y="462" type="curve" smooth="yes"/>
			<point x="241" y="425"/>
			<point x="272" y="398"/>
		</contour>
	</outline>
</glyph>
<glyph name="aogonek" format="2">
	<unicode hex="0105"/>
	<advance width="597"/>
	<outline>
		<contour>
			<point x="478" y="-229" type="curve" smooth="yes"/>
			<point x="520" y="-229"/>
			<point x="558" y="-211"/>
			<point x="583" y="-194" type="curve"/>
			<point x="569" y="-152" type="line"/>
			<point x="555" y="-159"/>
			<point x="535" y="-165"/>
			<point x="516" y="-165" type="curve" smooth="yes"/>
			<point x="483" y="-165"/>
			<point x="471" y="-150"/>
			<point x="471" y="-123" type="curve" smooth="yes"/>
			<point x="471" y="-62"/>
			<point x="554" y="5"/>
			<point x="587" y="26" type="curve"/>
			<point x="575" y="71" type="line"/>
			<point x="556" y="64"/>
			<point x="540" y="61"/>
			<point x="520" y="61" type="curve" smooth="yes"/>
			<point x="488" y="61"/>
			<point x="471" y="75"/>
			<point x="471" y="105" type="curve" smooth="yes"/>
			<point x="471" y="353" type="line" smooth="yes"/>
			<point x="471" y="475"/>
			<point x="404" y="533"/>
			<point x="270" y="533" type="curve" smooth="yes"/>
			<point x="162" y="533"/>
			<point x="67" y="471"/>
			<point x="67" y="401" type="curve" smooth="yes"/>
			<point x="67" y="359"/>
			<point x="90" y="340"/>
			<point x="130" y="340" type="curve" smooth="yes"/>
			<point x="162" y="340"/>
			<point x="190" y="360"/>
			<point x="190" y="389" type="curve" smooth="yes"/>
			<point x="190" y="399"/>
			<point x="182" y="418"/>
			<point x="162" y="448" type="curve"/>
			<point x="178" y="464"/>
			<point x="217" y="475"/>
			<point x="255" y="475" type="curve" smooth="yes"/>
			<point x="349" y="475"/>
			<point x="378" y="433"/>
			<point x="378" y="364" type="curve" smooth="yes"/>
			<point x="378" y="293" type="line"/>
			<point x="142" y="283"/>
			<point x="65" y="238"/>
			<point x="65" y="124" type="curve" smooth="yes"/>
			<point x="65" y="41"/>
			<point x="126" y="-14"/>
			<point x="215" y="-14" type="curve" smooth="yes"/>
			<point x="287" y="-14"/>
			<point x="343" y="14"/>
			<point x="385" y="72" type="curve"/>
			<point x="394" y="17"/>
			<point x="421" y="-12"/>
			<point x="476" y="-14" type="curve"/>
			<point x="431" y="-46"/>
			<point x="384" y="-91"/>
			<point x="384" y="-147" type="curve" smooth="yes"/>
			<point x="384" y="-193"/>
			<point x="419" y="-229"/>
		</contour>
		<contour>
			<point x="254" y="60" type="curve" smooth="yes"/>
			<point x="199" y="60"/>
			<point x="164" y="87"/>
			<point x="164" y="137" type="curve" smooth="yes"/>
			<point x="164" y="204"/>
			<point x="228" y="231"/>
			<point x="378" y="232" type="curve"/>
			<point x="378" y="164" type="line" smooth="yes"/>
			<point x="378" y="107"/>
			<point x="322" y="60"/>
		</contour>
	</outline>
	<anchor name="bottom" x="286" y="-30"/>
	<anchor name="top" x="270" y="550"/>
</glyph>
<glyph name="dcroat" format="2">
	<unicode hex="0111"/>
	<advance width="674"/>
	<outline>
		<contour>
			<point x="281" y="-14" type="curve" smooth="yes"/>
			<point x="354" y="-14"/>
			<point x="413" y="11"/>
			<point x="462" y="70" type="curve"/>
			<point x="470" y="70" type="line"/>
			<point x="485" y="-9" type="line"/>
			<point x="644" y="-3" type="line"/>
			<point x="644" y="49" type="line"/>
			<point x="586" y="54" type="line" smooth="yes"/>
			<point x="552" y="57"/>
			<point x="551" y="75"/>
			<point x="551" y="99" type="curve" smooth="yes"/>
			<point x="551" y="585" type="line"/>
			<point x="646" y="585" type="line"/>
			<point x="646" y="642" type="line"/>
			<point x="551" y="642" type="line"/>
			<point x="551" y="755" type="line"/>
			<point x="539" y="766" type="line"/>
			<point x="358" y="761" type="line"/>
			<point x="352" y="708" type="line"/>
			<point x="412" y="704" type="line" smooth="yes"/>
			<point x="452" y="701"/>
			<point x="458" y="695"/>
			<point x="458" y="650" type="curve" smooth="yes"/>
			<point x="458" y="642" type="line"/>
			<point x="318" y="642" type="line"/>
			<point x="310" y="585" type="line"/>
			<point x="458" y="585" type="line"/>
			<point x="458" y="500" type="line"/>
			<point x="425" y="520"/>
			<point x="370" y="533"/>
			<point x="324" y="533" type="curve" smooth="yes"/>
			<point x="162" y="533"/>
			<point x="60" y="424"/>
			<point x="60" y="244" type="curve" smooth="yes"/>
			<point x="60" y="79"/>
			<point x="143" y="-14"/>
		</contour>
		<contour>
			<point x="309" y="63" type="curve" smooth="yes"/>
			<point x="214" y="63"/>
			<point x="159" y="130"/>
			<point x="159" y="254" type="curve" smooth="yes"/>
			<point x="159" y="394"/>
			<point x="215" y="464"/>
			<point x="319" y="464" type="curve" smooth="yes"/>
			<point x="372" y="464"/>
			<point x="422" y="449"/>
			<point x="458" y="423" type="curve"/>
			<point x="458" y="212" type="line" smooth="yes"/>
			<point x="458" y="126"/>
			<point x="397" y="63"/>
		</contour>
	</outline>
	<anchor name="bottom" x="338" y="-30"/>
	<anchor name="top" x="313" y="550"/>
</glyph>
<glyph name="Eogonek" format="2">
	<unicode hex="0118"/>
	<advance width="686"/>
	<outline>
		<contour>
			<point x="495" y="-229" type="curve" smooth="yes"/>
			<point x="537" y="-229"/>
			<point x="577" y="-211"/>
			<point x="602" y="-194" type="curve"/>
			<point x="588" y="-152" type="line"/>
			<point x="574" y="-159"/>
			<point x="552" y="-165"/>
			<point x="533" y="-165" type="curve" smooth="yes"/>
			<point x="500" y="-165"/>
			<point x="488" y="-150"/>
			<point x="488" y="-123" type="curve" smooth="yes"/>
			<point x="488" y="-80"/>
			<point x="522" y="-44"/>
			<point x="603" y="0" type="curve"/>
			<point x="626" y="189" type="line"/>
			<point x="570" y="189" type="line"/>
			<point x="540" y="82"/>
			<point x="511" y="60"/>
			<point x="409" y="60" type="curve" smooth="yes"/>
			<point x="269" y="60" type="line"/>
			<point x="269" y="326" type="line"/>
			<point x="361" y="326" type="line" smooth="yes"/>
			<point x="432" y="326"/>
			<point x="444" y="319"/>
			<point x="459" y="237" type="curve"/>
			<point x="507" y="245" type="line"/>
			<point x="507" y="475" type="line"/>
			<point x="459" y="469" type="line"/>
			<point x="439" y="393"/>
			<point x="435" y="386"/>
			<point x="363" y="386" type="curve" smooth="yes"/>
			<point x="269" y="386" type="line"/>
			<point x="269" y="640" type="line"/>
			<point x="378" y="640" type="line" smooth="yes"/>
			<point x="478" y="640"/>
			<point x="505" y="630"/>
			<point x="550" y="515" type="curve"/>
			<point x="604" y="532" type="line"/>
			<point x="567" y="700" type="line"/>
			<point x="69" y="700" type="line"/>
			<point x="69" y="647" type="line"/>
			<point x="136" y="643" type="line" smooth="yes"/>
			<point x="165" y="641"/>
			<point x="171" y="629"/>
			<point x="171" y="596" type="curve" smooth="yes"/>
			<point x="171" y="108" type="line" smooth="yes"/>
			<point x="171" y="68"/>
			<point x="162" y="58"/>
			<point x="138" y="57" type="curve" smooth="yes"/>
			<point x="69" y="53" type="line"/>
			<point x="69" y="0" type="line"/>
			<point x="534" y="0" type="line"/>
			<point x="472" y="-29"/>
			<point x="401" y="-75"/>
			<point x="401" y="-145" type="curve" smooth="yes"/>
			<point x="401" y="-193"/>
			<point x="436" y="-229"/>
		</contour>
	</outline>
	<anchor name="bottom" x="368" y="-30"/>
	<anchor name="top" x="345" y="730"/>
</glyph>
<glyph name="eogonek" format="2">
	<unicode hex="0119"/>
	<advance width="575"/>
	<outline>
		<contour>
			<point x="352" y="-229" type="curve" smooth="yes"/>
			<point x="394" y="-229"/>
			<point x="432" y="-211"/>
			<point x="457" y="-194" type="curve"/>
			<point x="443" y="-152" type="line"/>
			<point x="429" y="-159"/>
			<point x="409" y="-165"/>
			<point x="390" y="-165" type="curve" smooth="yes"/>
			<point x="357" y="-165"/>
			<point x="345" y="-150"/>
			<point x="345" y="-123" type="curve" smooth="yes"/>
			<point x="345" y="-78"/>
			<point x="379" y="-31"/>
			<point x="438" y="15" type="curve"/>
			<point x="472" y="32"/>
			<point x="502" y="56"/>
			<point x="525" y="85" type="curve"/>
			<point x="488" y="124" type="line"/>
			<point x="448" y="87"/>
			<point x="394" y="65"/>
			<point x="340" y="65" type="curve" smooth="yes"/>
			<point x="234" y="65"/>
			<point x="165" y="126"/>
			<point x="161" y="247" type="curve"/>
			<point x="507" y="247" type="line"/>
			<point x="513" y="283"/>
			<point x="515" y="314"/>
			<point x="515" y="349" type="curve" smooth="yes"/>
			<point x="515" y="462"/>
			<point x="438" y="533"/>
			<point x="319" y="533" type="curve" smooth="yes"/>
			<point x="163" y="533"/>
			<point x="62" y="424"/>
			<point x="62" y="247" type="curve" smooth="yes"/>
			<point x="62" y="88"/>
			<point x="162" y="-14"/>
			<point x="317" y="-14" type="curve" smooth="yes"/>
			<point x="326" y="-14"/>
			<point x="336" y="-13"/>
			<point x="345" y="-12" type="curve"/>
			<point x="302" y="-46"/>
			<point x="258" y="-93"/>
			<point x="258" y="-147" type="curve" smooth="yes"/>
			<point x="258" y="-193"/>
			<point x="293" y="-229"/>
		</contour>
		<contour>
			<point x="161" y="310" type="line"/>
			<point x="172" y="413"/>
			<point x="227" y="468"/>
			<point x="309" y="468" type="curve" smooth="yes"/>
			<point x="382" y="468"/>
			<point x="421" y="426"/>
			<point x="421" y="353" type="curve" smooth="yes"/>
			<point x="421" y="337"/>
			<point x="420" y="323"/>
			<point x="418" y="310" type="curve"/>
		</contour>
	</outline>
	<anchor name="bottom" x="309" y="-30"/>
	<anchor name="top" x="306" y="550"/>
</glyph>
<glyph name="gcircumflex" format="2">
	<unicode hex="011D"/>
	<advance width="609"/>
	<outline>
		<contour>
			<point x="147" y="601" type="line"/>
			<point x="277" y="698" type="line"/>
			<point x="403" y="601" type="line"/>
			<point x="433" y="632" type="line"/>
			<point x="318" y="771" type="line" smooth="yes"/>
			<point x="299" y="794"/>
			<point x="291" y="799"/>
			<point x="277" y="799" type="curve" smooth="yes"/>
			<point x="263" y="799"/>
			<point x="250" y="792"/>
			<point x="238" y="777" type="curve" smooth="yes"/>
			<point x="118" y="631" type="line"/>
		</contour>
		<component base="g"/>
	</outline>
</glyph>
<glyph name="hbar" format="2">
	<unicode hex="0127"/>
	<advance width="725"/>
	<outline>
		<contour>
			<point x="61" y="0" type="line"/>
			<point x="319" y="0" type="line"/>
			<point x="319" y="53" type="line"/>
			<point x="266" y="59" type="line" smooth="yes"/>
			<point x="245" y="61"/>
			<point x="239" y="72"/>
			<point x="239" y="102" type="curve" smooth="yes"/>
			<point x="239" y="317" type="line" smooth="yes"/>
			<point x="239" y="401"/>
			<point x="299" y="456"/>
			<point x="392" y="456" type="curve" smooth="yes"/>
			<point x="480" y="456"/>
			<point x="506" y="413"/>
			<point x="506" y="328" type="curve" smooth="yes"/>
			<point x="506" y="97" type="line" smooth="yes"/>
			<point x="506" y="65"/>
			<point x="499" y="58"/>
			<point x="473" y="56" type="curve" smooth="yes"/>
			<point x="430" y="53" type="line"/>
			<point x="430" y="0" type="line"/>
			<point x="689" y="0" type="line"/>
			<point x="689" y="53" type="line"/>
			<point x="632" y="56" type="line" smooth="yes"/>
			<point x="599" y="58"/>
			<point x="599" y="77"/>
			<point x="599" y="98" type="curve" smooth="yes"/>
			<point x="599" y="362" type="line" smooth="yes"/>
			<point x="599" y="473"/>
			<point x="532" y="533"/>
			<point x="421" y="533" type="curve" smooth="yes"/>
			<point x="348" y="533"/>
			<point x="274" y="497"/>
			<point x="240" y="442" type="curve"/>
			<point x="239" y="442" type="line"/>
			<point x="239" y="569" type="line"/>
			<point x="365" y="569" type="line"/>
			<point x="365" y="626" type="line"/>
			<point x="239" y="626" type="line"/>
			<point x="239" y="755" type="line"/>
			<point x="227" y="766" type="line"/>
			<point x="46" y="761" type="line"/>
			<point x="40" y="708" type="line"/>
			<point x="99" y="704" type="line" smooth="yes"/>
			<point x="140" y="701"/>
			<point x="146" y="689"/>
			<point x="146" y="644" type="curve" smooth="yes"/>
			<point x="146" y="626" type="line"/>
			<point x="39" y="626" type="line"/>
			<point x="31" y="569" type="line"/>
			<point x="146" y="569" type="line"/>
			<point x="146" y="104" type="line" smooth="yes"/>
			<point x="146" y="70"/>
			<point x="141" y="59"/>
			<point x="116" y="57" type="curve" smooth="yes"/>
			<point x="61" y="53" type="line"/>
		</contour>
	</outline>
	<anchor name="bottom" x="372" y="-30"/>
	<anchor name="top" x="141" y="780"/>
</glyph>
<glyph name="kgreenlandic" format="2">
	<unicode hex="0138"/>
	<advance width="663"/>
	<outline>
		<contour>
			<point x="568" y="-9" type="curve" smooth="yes"/>
			<point x="600" y="-9"/>
			<point x="635" y="6"/>
			<point x="663" y="31" type="curve"/>
			<point x="652" y="67" type="line"/>
			<point x="632" y="61"/>
			<point x="622" y="59"/>
			<point x="610" y="59" type="curve" smooth="yes"/>
			<point x="578" y="59"/>
			<point x="554" y="72"/>
			<point x="529" y="100" type="curve" smooth="yes"/>
			<point x="351" y="294" type="line"/>
			<point x="518" y="428" type="line" smooth="yes"/>
			<point x="541" y="446"/>
			<point x="570" y="463"/>
			<point x="595" y="465" type="curve" smooth="yes"/>
			<point x="626" y="468" type="line"/>
			<point x="626" y="519" type="line"/>
			<point x="398" y="519" type="line"/>
			<point x="386" y="466" type="line"/>
			<point x="428" y="462" type="line" smooth="yes"/>
			<point x="446" y="460"/>
			<point x="447" y="437"/>
			<point x="428" y="422" type="curve" smooth="yes"/>
			<point x="248" y="280" type="line"/>
			<point x="247" y="272" type="line"/>
			<point x="432" y="65" type="line" smooth="yes"/>
			<point x="483" y="7"/>
			<point x="510" y="-9"/>
		</contour>
		<contour>
			<point x="61" y="0" type="line"/>
			<point x="313" y="0" type="line"/>
			<point x="313" y="53" type="line"/>
			<point x="268" y="57" type="line" smooth="yes"/>
			<point x="245" y="59"/>
			<point x="239" y="71"/>
			<point x="239" y="103" type="curve" smooth="yes"/>
			<point x="239" y="519" type="line"/>
			<point x="226" y="526" type="line"/>
			<point x="55" y="516" type="line"/>
			<point x="47" y="462" type="line"/>
			<point x="106" y="458" type="line" smooth="yes"/>
			<point x="139" y="456"/>
			<point x="146" y="445"/>
			<point x="146" y="395" type="curve" smooth="yes"/>
			<point x="146" y="104" type="line" smooth="yes"/>
			<point x="146" y="70"/>
			<point x="141" y="59"/>
			<point x="116" y="57" type="curve" smooth="yes"/>
			<point x="61" y="53" type="line"/>
		</contour>
	</outline>
</glyph>
<glyph name="eng" format="2">
	<unicode hex="014B"/>
	<advance width="693"/>
	<outline>
		<contour>
			<point x="423" y="533" type="curve" smooth="yes"/>
			<point x="347" y="533"/>
			<point x="272" y="493"/>
			<point x="232" y="430" type="curve"/>
			<point x="226" y="430" type="line"/>
			<point x="218" y="519" type="line"/>
			<point x="205" y="526" type="line"/>
			<point x="60" y="515" type="line"/>
			<point x="52" y="462" type="line"/>
			<point x="110" y="458" type="line" smooth="yes"/>
			<point x="141" y="456"/>
			<point x="147" y="444"/>
			<point x="147" y="401" type="curve" smooth="yes"/>
			<point x="147" y="105" type="line" smooth="yes"/>
			<point x="147" y="66"/>
			<point x="138" y="58"/>
			<point x="119" y="57" type="curve" smooth="yes"/>
			<point x="62" y="53" type="line"/>
			<point x="62" y="0" type="line"/>
			<point x="320" y="0" type="line"/>
			<point x="320" y="53" type="line"/>
			<point x="267" y="57" type="line" smooth="yes"/>
			<point x="245" y="59"/>
			<point x="240" y="70"/>
			<point x="240" y="102" type="curve" smooth="yes"/>
			<point x="240" y="317" type="line" smooth="yes"/>
			<point x="240" y="401"/>
			<point x="301" y="456"/>
			<point x="395" y="456" type="curve" smooth="yes"/>
			<point x="483" y="456"/>
			<point x="507" y="413"/>
			<point x="507" y="328" type="curve" smooth="yes"/>
			<point x="507" y="28" type="line" smooth="yes"/>
			<point x="507" y="-81"/>
			<point x="481" y="-142"/>
			<point x="415" y="-191" type="curve"/>
			<point x="441" y="-229" type="line"/>
			<point x="566" y="-166"/>
			<point x="600" y="-85"/>
			<point x="600" y="95" type="curve" smooth="yes"/>
			<point x="600" y="362" type="line" smooth="yes"/>
			<point x="600" y="473"/>
			<point x="535" y="533"/>
		</contour>
	</outline>
	<anchor name="bottom" x="194" y="-30"/>
	<anchor name="top" x="370" y="550"/>
</glyph>
<glyph name="Scedilla" format="2">
	<unicode hex="015E"/>
	<advance width="651"/>
	<outline>
		<contour>
			<point x="318" y="-229" type="curve" smooth="yes"/>
			<point x="398" y="-229"/>
			<point x="435" y="-189"/>
			<point x="435" y="-133" type="curve" smooth="yes"/>
			<point x="435" y="-76"/>
			<point x="395" y="-49"/>
			<point x="329" y="-53" type="curve"/>
			<point x="345" y="-14" type="line"/>
			<point x="486" y="-14"/>
			<point x="586" y="75"/>
			<point x="586" y="200" type="curve" smooth="yes"/>
			<point x="586" y="303"/>
			<point x="533" y="357"/>
			<point x="362" y="409" type="curve" smooth="yes"/>
			<point x="234" y="448"/>
			<point x="194" y="483"/>
			<point x="194" y="549" type="curve" smooth="yes"/>
			<point x="194" y="615"/>
			<point x="247" y="650"/>
			<point x="326" y="650" type="curve" smooth="yes"/>
			<point x="418" y="650"/>
			<point x="478" y="609"/>
			<point x="511" y="504" type="curve"/>
			<point x="565" y="516" type="line"/>
			<point x="546" y="714" type="line"/>
			<point x="497" y="714" type="line"/>
			<point x="482" y="662" type="line"/>
			<point x="441" y="694"/>
			<point x="381" y="714"/>
			<point x="323" y="714" type="curve" smooth="yes"/>
			<point x="189" y="714"/>
			<point x="94" y="636"/>
			<point x="94" y="521" type="curve" smooth="yes"/>
			<point x="94" y="418"/>
			<point x="148" y="361"/>
			<point x="315" y="313" type="curve" smooth="yes"/>
			<point x="444" y="276"/>
			<point x="486" y="238"/>
			<point x="486" y="165" type="curve" smooth="yes"/>
			<point x="486" y="92"/>
			<point x="432" y="58"/>
			<point x="344" y="58" type="curve" smooth="yes"/>
			<point x="244" y="58"/>
			<point x="165" y="99"/>
			<point x="120" y="220" type="curve"/>
			<point x="65" y="215" type="line"/>
			<point x="88" y="-6" type="line"/>
			<point x="133" y="-6" type="line"/>
			<point x="151" y="53" type="line"/>
			<point x="186" y="21"/>
			<point x="239" y="-1"/>
			<point x="296" y="-10" type="curve"/>
			<point x="270" y="-75" type="line"/>
			<point x="278" y="-98" type="line"/>
			<point x="287" y="-96"/>
			<point x="295" y="-95"/>
			<point x="308" y="-95" type="curve" smooth="yes"/>
			<point x="345" y="-95"/>
			<point x="363" y="-104"/>
			<point x="363" y="-131" type="curve" smooth="yes"/>
			<point x="363" y="-161"/>
			<point x="336" y="-172"/>
			<point x="310" y="-172" type="curve" smooth="yes"/>
			<point x="288" y="-172"/>
			<point x="256" y="-160"/>
			<point x="239" y="-148" type="curve"/>
			<point x="213" y="-193" type="line"/>
			<point x="227" y="-206"/>
			<point x="264" y="-229"/>
		</contour>
	</outline>
	<anchor name="bottom" x="326" y="-30"/>
	<anchor name="top" x="323" y="730"/>
</glyph>
<glyph name="Tbar" format="2">
	<unicode hex="0166"/>
	<advance width="778"/>
	<outline>
		<contour>
			<point x="217" y="0" type="line"/>
			<point x="563" y="0" type="line"/>
			<point x="563" y="53" type="line"/>
			<point x="475" y="60" type="line" smooth="yes"/>
			<point x="445" y="62"/>
			<point x="439" y="74"/>
			<point x="439" y="106" type="curve" smooth="yes"/>
			<point x="439" y="313" type="line"/>
			<point x="604" y="313" type="line"/>
			<point x="604" y="380" type="line"/>
			<point x="439" y="380" type="line"/>
			<point x="439" y="640" type="line"/>
			<point x="508" y="640" type="line" smooth="yes"/>
			<point x="598" y="640"/>
			<point x="622" y="633"/>
			<point x="674" y="487" type="curve"/>
			<point x="728" y="499" type="line"/>
			<point x="691" y="700" type="line"/>
			<point x="89" y="700" type="line"/>
			<point x="50" y="499" type="line"/>
			<point x="103" y="487" type="line"/>
			<point x="155" y="633"/>
			<point x="178" y="640"/>
			<point x="271" y="640" type="curve" smooth="yes"/>
			<point x="341" y="640" type="line"/>
			<point x="341" y="380" type="line"/>
			<point x="182" y="380" type="line"/>
			<point x="174" y="313" type="line"/>
			<point x="341" y="313" type="line"/>
			<point x="341" y="110" type="line" smooth="yes"/>
			<point x="341" y="77"/>
			<point x="333" y="62"/>
			<point x="305" y="60" type="curve" smooth="yes"/>
			<point x="217" y="53" type="line"/>
		</contour>
	</outline>
	<anchor name="bottom" x="387" y="-30"/>
	<anchor name="top" x="387" y="730"/>
</glyph>
<glyph name="uogonek" format="2">
	<unicode hex="0173"/>
	<advance width="703"/>
	<outline>
		<contour>
			<point x="550" y="-229" type="curve" smooth="yes"/>
			<point x="592" y="-229"/>
			<point x="632" y="-211"/>
			<point x="657" y="-194" type="curve"/>
			<point x="643" y="-152" type="line"/>
			<point x="629" y="-159"/>
			<point x="607" y="-165"/>
			<point x="588" y="-165" type="curve" smooth="yes"/>
			<point x="555" y="-165"/>
			<point x="543" y="-150"/>
			<point x="543" y="-123" type="curve" smooth="yes"/>
			<point x="543" y="-82"/>
			<point x="573" y="-47"/>
			<point x="631" y="-1" type="curve"/>
			<point x="660" y="0" type="line"/>
			<point x="660" y="53" type="line"/>
			<point x="605" y="57" type="line" smooth="yes"/>
			<point x="578" y="59"/>
			<point x="571" y="71"/>
			<point x="571" y="102" type="curve" smooth="yes"/>
			<point x="571" y="519" type="line"/>
			<point x="558" y="526" type="line"/>
			<point x="400" y="515" type="line"/>
			<point x="392" y="462" type="line"/>
			<point x="441" y="458" type="line" smooth="yes"/>
			<point x="475" y="455"/>
			<point x="478" y="439"/>
			<point x="478" y="396" type="curve" smooth="yes"/>
			<point x="478" y="208" type="line" smooth="yes"/>
			<point x="478" y="123"/>
			<point x="420" y="57"/>
			<point x="328" y="57" type="curve" smooth="yes"/>
			<point x="239" y="57"/>
			<point x="222" y="102"/>
			<point x="222" y="186" type="curve" smooth="yes"/>
			<point x="222" y="519" type="line"/>
			<point x="209" y="526" type="line"/>
			<point x="54" y="515" type="line"/>
			<point x="45" y="462" type="line"/>
			<point x="92" y="458" type="line" smooth="yes"/>
			<point x="123" y="455"/>
			<point x="129" y="444"/>
			<point x="129" y="396" type="curve" smooth="yes"/>
			<point x="129" y="157" type="line" smooth="yes"/>
			<point x="129" y="45"/>
			<point x="189" y="-14"/>
			<point x="300" y="-14" type="curve" smooth="yes"/>
			<point x="366" y="-14"/>
			<point x="422" y="13"/>
			<point x="480" y="75" type="curve"/>
			<point x="483" y="75" type="line"/>
			<point x="498" y="-6" type="line"/>
			<point x="570" y="-3" type="line"/>
			<point x="520" y="-35"/>
			<point x="456" y="-80"/>
			<point x="456" y="-145" type="curve" smooth="yes"/>
			<point x="456" y="-193"/>
			<point x="491" y="-229"/>
		</contour>
	</outline>
	<anchor name="bottom" x="357" y="-30"/>
	<anchor name="top" x="337" y="550"/>
</glyph>
<glyph name="Ohorn" format="2">
	<unicode hex="01A0"/>
	<advance width="911"/>
	<outline>
		<contour>
			<point x="412" y="-14" type="curve" smooth="yes"/>
			<point x="623" y="-14"/>
			<point x="770" y="140"/>
			<point x="770" y="368" type="curve" smooth="yes"/>
			<point x="770" y="400"/>
			<point x="767" y="430"/>
			<point x="761" y="458" type="curve"/>
			<point x="863" y="494"/>
			<point x="911" y="601"/>
			<point x="911" y="670" type="curve" smooth="yes"/>
			<point x="911" y="719"/>
			<point x="894" y="761"/>
			<point x="838" y="761" type="curve" smooth="yes"/>
			<point x="799" y="761"/>
			<point x="770" y="735"/>
			<point x="770" y="692" type="curve" smooth="yes"/>
			<point x="770" y="658"/>
			<point x="787" y="636"/>
			<point x="831" y="636" type="curve" smooth="yes"/>
			<point x="837" y="636" type="line"/>
			<point x="835" y="591"/>
			<point x="810" y="544"/>
			<point x="743" y="515" type="curve"/>
			<point x="693" y="639"/>
			<point x="577" y="714"/>
			<point x="422" y="714" type="curve" smooth="yes"/>
			<point x="198" y="714"/>
			<point x="64" y="567"/>
			<point x="64" y="336" type="curve" smooth="yes"/>
			<point x="64" y="126"/>
			<point x="204" y="-14"/>
		</contour>
		<contour>
			<point x="425" y="57" type="curve" smooth="yes"/>
			<point x="272" y="57"/>
			<point x="174" y="165"/>
			<point x="174" y="356" type="curve" smooth="yes"/>
			<point x="174" y="543"/>
			<point x="259" y="644"/>
			<point x="408" y="644" type="curve" smooth="yes"/>
			<point x="564" y="644"/>
			<point x="660" y="541"/>
			<point x="660" y="348" type="curve" smooth="yes"/>
			<point x="660" y="155"/>
			<point x="577" y="57"/>
		</contour>
	</outline>
	<anchor name="bottom" x="411" y="-30"/>
	<anchor name="top" x="417" y="730"/>
</glyph>
<glyph name="ohorn" format="2">
	<unicode hex="01A1"/>
	<advance width="693"/>
	<outline>
		<contour>
			<point x="313" y="-14" type="curve" smooth="yes"/>
			<point x="485" y="-14"/>
			<point x="585" y="93"/>
			<point x="585" y="271" type="curve" smooth="yes"/>
			<point x="585" y="311"/>
			<point x="579" y="347"/>
			<point x="568" y="379" type="curve"/>
			<point x="653" y="421"/>
			<point x="693" y="513"/>
			<point x="693" y="576" type="curve" smooth="yes"/>
			<point x="693" y="625"/>
			<point x="676" y="667"/>
			<point x="620" y="667" type="curve" smooth="yes"/>
			<point x="581" y="667"/>
			<point x="552" y="641"/>
			<point x="552" y="598" type="curve" smooth="yes"/>
			<point x="552" y="564"/>
			<point x="569" y="544"/>
			<point x="615" y="544" type="curve" smooth="yes"/>
			<point x="622" y="544" type="line"/>
			<point x="618" y="501"/>
			<point x="596" y="461"/>
			<point x="541" y="433" type="curve"/>
			<point x="497" y="497"/>
			<point x="423" y="533"/>
			<point x="328" y="533" type="curve" smooth="yes"/>
			<point x="165" y="533"/>
			<point x="62" y="423"/>
			<point x="62" y="246" type="curve" smooth="yes"/>
			<point x="62" y="85"/>
			<point x="157" y="-14"/>
		</contour>
		<contour>
			<point x="329" y="51" type="curve" smooth="yes"/>
			<point x="227" y="51"/>
			<point x="161" y="130"/>
			<point x="161" y="269" type="curve" smooth="yes"/>
			<point x="161" y="398"/>
			<point x="217" y="467"/>
			<point x="312" y="467" type="curve" smooth="yes"/>
			<point x="418" y="467"/>
			<point x="486" y="389"/>
			<point x="486" y="244" type="curve" smooth="yes"/>
			<point x="486" y="117"/>
			<point x="429" y="51"/>
		</contour>
	</outline>
	<anchor name="bottom" x="324" y="-30"/>
	<anchor name="top" x="320" y="550"/>
</glyph>
<glyph name="Uhorn" format="2">
	<unicode hex="01AF"/>
	<advance width="950"/>
	<outline>
		<contour>
			<point x="442" y="-14" type="curve" smooth="yes"/>
			<point x="639" y="-14"/>
			<point x="738" y="88"/>
			<point x="738" y="291" type="curve" smooth="yes"/>
			<point x="738" y="452" type="line"/>
			<point x="896" y="480"/>
			<point x="950" y="597"/>
			<point x="950" y="670" type="curve" smooth="yes"/>
			<point x="950" y="719"/>
			<point x="933" y="761"/>
			<point x="877" y="761" type="curve" smooth="yes"/>
			<point x="838" y="761"/>
			<point x="809" y="735"/>
			<point x="809" y="692" type="curve" smooth="yes"/>
			<point x="809" y="658"/>
			<point x="826" y="636"/>
			<point x="870" y="636" type="curve" smooth="yes"/>
			<point x="876" y="636" type="line"/>
			<point x="874" y="590"/>
			<point x="848" y="540"/>
			<point x="738" y="511" type="curve"/>
			<point x="738" y="700" type="line"/>
			<point x="568" y="700" type="line"/>
			<point x="568" y="647" type="line"/>
			<point x="628" y="643" type="line" smooth="yes"/>
			<point x="657" y="641"/>
			<point x="664" y="629"/>
			<point x="664" y="596" type="curve" smooth="yes"/>
			<point x="664" y="279" type="line" smooth="yes"/>
			<point x="664" y="127"/>
			<point x="596" y="58"/>
			<point x="457" y="58" type="curve" smooth="yes"/>
			<point x="305" y="58"/>
			<point x="258" y="134"/>
			<point x="258" y="272" type="curve" smooth="yes"/>
			<point x="258" y="592" type="line" smooth="yes"/>
			<point x="258" y="630"/>
			<point x="267" y="642"/>
			<point x="290" y="643" type="curve" smooth="yes"/>
			<point x="353" y="647" type="line"/>
			<point x="353" y="700" type="line"/>
			<point x="60" y="700" type="line"/>
			<point x="60" y="647" type="line"/>
			<point x="120" y="643" type="line" smooth="yes"/>
			<point x="149" y="641"/>
			<point x="156" y="629"/>
			<point x="156" y="596" type="curve" smooth="yes"/>
			<point x="156" y="265" type="line" smooth="yes"/>
			<point x="156" y="76"/>
			<point x="251" y="-14"/>
		</contour>
	</outline>
	<anchor name="bottom" x="448" y="-30"/>
	<anchor name="top" x="460" y="730"/>
</glyph>
<glyph name="Oogonek" format="2">
	<unicode hex="01EA"/>
	<advance width="834"/>
	<outline>
		<contour>
			<point x="437" y="-229" type="curve" smooth="yes"/>
			<point x="479" y="-229"/>
			<point x="519" y="-211"/>
			<point x="544" y="-194" type="curve"/>
			<point x="530" y="-152" type="line"/>
			<point x="516" y="-159"/>
			<point x="494" y="-165"/>
			<point x="475" y="-165" type="curve" smooth="yes"/>
			<point x="442" y="-165"/>
			<point x="430" y="-150"/>
			<point x="430" y="-123" type="curve" smooth="yes"/>
			<point x="430" y="-81"/>
			<point x="461" y="-46"/>
			<point x="521" y="1" type="curve"/>
			<point x="672" y="45"/>
			<point x="770" y="182"/>
			<point x="770" y="368" type="curve" smooth="yes"/>
			<point x="770" y="576"/>
			<point x="632" y="714"/>
			<point x="422" y="714" type="curve" smooth="yes"/>
			<point x="198" y="714"/>
			<point x="64" y="567"/>
			<point x="64" y="336" type="curve" smooth="yes"/>
			<point x="64" y="126"/>
			<point x="204" y="-14"/>
			<point x="412" y="-14" type="curve" smooth="yes"/>
			<point x="422" y="-14"/>
			<point x="432" y="-14"/>
			<point x="442" y="-13" type="curve"/>
			<point x="395" y="-44"/>
			<point x="343" y="-86"/>
			<point x="343" y="-145" type="curve" smooth="yes"/>
			<point x="343" y="-193"/>
			<point x="378" y="-229"/>
		</contour>
		<contour>
			<point x="425" y="57" type="curve" smooth="yes"/>
			<point x="272" y="57"/>
			<point x="174" y="165"/>
			<point x="174" y="356" type="curve" smooth="yes"/>
			<point x="174" y="543"/>
			<point x="259" y="644"/>
			<point x="408" y="644" type="curve" smooth="yes"/>
			<point x="564" y="644"/>
			<point x="660" y="541"/>
			<point x="660" y="348" type="curve" smooth="yes"/>
			<point x="660" y="155"/>
			<point x="577" y="57"/>
		</contour>
	</outline>
	<anchor name="bottom" x="411" y="-30"/>
	<anchor name="top" x="417" y="730"/>
</glyph>
<glyph name="jdotless" format="2">
	<unicode hex="0237"/>
	<advance width="328"/>
	<outline>
		<contour>
			<point x="76" y="-229" type="line"/>
			<point x="201" y="-166"/>
			<point x="235" y="-85"/>
			<point x="235" y="95" type="curve" smooth="yes"/>
			<point x="235" y="519" type="line"/>
			<point x="222" y="526" type="line"/>
			<point x="51" y="516" type="line"/>
			<point x="43" y="462" type="line"/>
			<point x="103" y="458" type="line" smooth="yes"/>
			<point x="135" y="456"/>
			<point x="142" y="445"/>
			<point x="142" y="397" type="curve" smooth="yes"/>
			<point x="142" y="28" type="line" smooth="yes"/>
			<point x="142" y="-81"/>
			<point x="116" y="-142"/>
			<point x="50" y="-191" type="curve"/>
		</contour>
	</outline>
	<anchor name="top" x="155" y="550"/>
</glyph>
<glyph name="alpha-latin" format="2">
	<unicode hex="0251"/>
	<advance width="681"/>
	<outline>
		<contour>
			<point x="281" y="-14" type="curve" smooth="yes"/>
			<point x="350" y="-14"/>
			<point x="408" y="7"/>
			<point x="458" y="73" type="curve"/>
			<point x="461" y="72" type="line"/>
			<point x="469" y="15"/>
			<point x="500" y="-14"/>
			<point x="563" y="-14" type="curve" smooth="yes"/>
			<point x="602" y="-14"/>
			<point x="644" y="5"/>
			<point x="667" y="26" type="curve"/>
			<point x="655" y="71" type="line"/>
			<point x="636" y="64"/>
			<point x="620" y="61"/>
			<point x="600" y="61" type="curve" smooth="yes"/>
			<point x="568" y="61"/>
			<point x="551" y="75"/>
			<point x="551" y="105" type="curve" smooth="yes"/>
			<point x="551" y="523" type="line"/>
			<point x="523" y="531" type="line"/>
			<point x="478" y="488" type="line"/>
			<point x="439" y="515"/>
			<point x="382" y="533"/>
			<point x="325" y="533" type="curve" smooth="yes"/>
			<point x="165" y="533"/>
			<point x="60" y="428"/>
			<point x="60" y="245" type="curve" smooth="yes"/>
			<point x="60" y="79"/>
			<point x="145" y="-14"/>
		</contour>
		<contour>
			<point x="311" y="63" type="curve" smooth="yes"/>
			<point x="215" y="63"/>
			<point x="159" y="130"/>
			<point x="159" y="257" type="curve" smooth="yes"/>
			<point x="159" y="395"/>
			<point x="217" y="464"/>
			<point x="319" y="464" type="curve" smooth="yes"/>
			<point x="374" y="464"/>
			<point x="423" y="448"/>
			<point x="458" y="423" type="curve"/>
			<point x="458" y="212" type="line" smooth="yes"/>
			<point x="458" y="126"/>
			<point x="395" y="63"/>
		</contour>
	</outline>
</glyph>
<glyph name="schwa" format="2">
	<unicode hex="0259"/>
	<advance width="583"/>
	<outline>
		<contour>
			<point x="268" y="-14" type="curve" smooth="yes"/>
			<point x="424" y="-14"/>
			<point x="525" y="95"/>
			<point x="525" y="272" type="curve" smooth="yes"/>
			<point x="525" y="431"/>
			<point x="425" y="533"/>
			<point x="270" y="533" type="curve" smooth="yes"/>
			<point x="190" y="533"/>
			<point x="111" y="495"/>
			<point x="62" y="434" type="curve"/>
			<point x="99" y="395" type="line"/>
			<point x="139" y="432"/>
			<point x="193" y="454"/>
			<point x="247" y="454" type="curve" smooth="yes"/>
			<point x="353" y="454"/>
			<point x="422" y="393"/>
			<point x="426" y="272" type="curve"/>
			<point x="80" y="272" type="line"/>
			<point x="74" y="236"/>
			<point x="72" y="205"/>
			<point x="72" y="170" type="curve" smooth="yes"/>
			<point x="72" y="57"/>
			<point x="149" y="-14"/>
		</contour>
		<contour>
			<point x="278" y="51" type="curve" smooth="yes"/>
			<point x="205" y="51"/>
			<point x="166" y="93"/>
			<point x="166" y="166" type="curve" smooth="yes"/>
			<point x="166" y="182"/>
			<point x="167" y="196"/>
			<point x="169" y="209" type="curve"/>
			<point x="426" y="209" type="line"/>
			<point x="415" y="106"/>
			<point x="360" y="51"/>
		</contour>
	</outline>
	<anchor name="bottom" x="270" y="-30"/>
	<anchor name="top" x="270" y="550"/>
</glyph>
<glyph name="gsingle" format="2">
	<unicode hex="0261"/>
	<advance width="644"/>
	<outline>
		<contour>
			<point x="298" y="-229" type="curve"/>
			<point x="400" y="-229"/>
			<point x="551" y="-185"/>
			<point x="551" y="22" type="curve" smooth="yes"/>
			<point x="551" y="523" type="line"/>
			<point x="523" y="531" type="line"/>
			<point x="478" y="488" type="line"/>
			<point x="439" y="515"/>
			<point x="382" y="533"/>
			<point x="325" y="533" type="curve" smooth="yes"/>
			<point x="165" y="533"/>
			<point x="60" y="428"/>
			<point x="60" y="245" type="curve" smooth="yes"/>
			<point x="60" y="79"/>
			<point x="145" y="-14"/>
			<point x="281" y="-14" type="curve" smooth="yes"/>
			<point x="350" y="-14"/>
			<point x="411" y="9"/>
			<point x="456" y="67" type="curve"/>
			<point x="458" y="66" type="line"/>
			<point x="458" y="-5" type="line" smooth="yes"/>
			<point x="458" y="-138"/>
			<point x="381" y="-172"/>
			<point x="290" y="-172" type="curve" smooth="yes"/>
			<point x="258" y="-172"/>
			<point x="220" y="-168"/>
			<point x="195" y="-156" type="curve"/>
			<point x="205" y="-132"/>
			<point x="207" y="-123"/>
			<point x="207" y="-110" type="curve" smooth="yes"/>
			<point x="207" y="-82"/>
			<point x="190" y="-66"/>
			<point x="156" y="-66" type="curve" smooth="yes"/>
			<point x="122" y="-66"/>
			<point x="90" y="-88"/>
			<point x="90" y="-133" type="curve" smooth="yes"/>
			<point x="90" y="-185"/>
			<point x="147" y="-229"/>
		</contour>
		<contour>
			<point x="311" y="63" type="curve" smooth="yes"/>
			<point x="215" y="63"/>
			<point x="159" y="130"/>
			<point x="159" y="257" type="curve" smooth="yes"/>
			<point x="159" y="395"/>
			<point x="217" y="464"/>
			<point x="319" y="464" type="curve" smooth="yes"/>
			<point x="374" y="464"/>
			<point x="423" y="448"/>
			<point x="458" y="423" type="curve"/>
			<point x="458" y="212" type="line" smooth="yes"/>
			<point x="458" y="126"/>
			<point x="395" y="63"/>
		</contour>
	</outline>
</glyph>
<glyph name="ringhalfright" format="2">
	<unicode hex="02BE"/>
	<advance width="500"/>
	<outline>
		<contour>
			<point x="220" y="584" type="line"/>
			<point x="227" y="584" type="line" smooth="yes"/>
			<point x="313" y="584"/>
			<point x="348" y="639"/>
			<point x="348" y="693" type="curve" smooth="yes"/>
			<point x="348" y="753"/>
			<point x="316" y="801"/>
			<point x="229" y="801" type="curve" smooth="yes"/>
			<point x="220" y="801" type="line"/>
			<point x="220" y="748" type="line"/>
			<point x="228" y="748" type="line" smooth="yes"/>
			<point x="265" y="748"/>
			<point x="280" y="724"/>
			<point x="280" y="693" type="curve" smooth="yes"/>
			<point x="280" y="663"/>
			<point x="267" y="636"/>
			<point x="230" y="636" type="curve" smooth="yes"/>
			<point x="220" y="636" type="line"/>
		</contour>
	</outline>
	<anchor name="_top" x="250" y="550"/>
</glyph>
<glyph name="ringhalfleft" format="2">
	<unicode hex="02BF"/>
	<advance width="500"/>
	<outline>
		<contour>
			<point x="271" y="584" type="curve" smooth="yes"/>
			<point x="280" y="584" type="line"/>
			<point x="280" y="637" type="line"/>
			<point x="272" y="637" type="line" smooth="yes"/>
			<point x="235" y="637"/>
			<point x="220" y="661"/>
			<point x="220" y="692" type="curve" smooth="yes"/>
			<point x="220" y="722"/>
			<point x="233" y="749"/>
			<point x="270" y="749" type="curve" smooth="yes"/>
			<point x="280" y="749" type="line"/>
			<point x="280" y="801" type="line"/>
			<point x="273" y="801" type="line" smooth="yes"/>
			<point x="187" y="801"/>
			<point x="152" y="746"/>
			<point x="152" y="692" type="curve" smooth="yes"/>
			<point x="152" y="632"/>
			<point x="184" y="584"/>
		</contour>
	</outline>
	<anchor name="_top" x="250" y="550"/>
</glyph>
<glyph name="circumflex" format="2">
	<unicode hex="02C6"/>
	<advance width="500"/>
	<outline>
		<contour>
			<point x="122" y="591" type="line"/>
			<point x="252" y="688" type="line"/>
			<point x="378" y="591" type="line"/>
			<point x="411" y="622" type="line"/>
			<point x="299" y="761" type="line" smooth="yes"/>
			<point x="281" y="784"/>
			<point x="269" y="790"/>
			<point x="252" y="790" type="curve" smooth="yes"/>
			<point x="233" y="790"/>
			<point x="218" y="781"/>
			<point x="206" y="766" type="curve" smooth="yes"/>
			<point x="90" y="621" type="line"/>
		</contour>
	</outline>
	<anchor name="_top" x="250" y="550"/>
</glyph>
<glyph name="caron" format="2">
	<unicode hex="02C7"/>
	<advance width="500"/>
	<outline>
		<contour>
			<point x="249" y="591" type="curve" smooth="yes"/>
			<point x="268" y="591"/>
			<point x="281" y="598"/>
			<point x="293" y="613" type="curve" smooth="yes"/>
			<point x="408" y="759" type="line"/>
			<point x="374" y="789" type="line"/>
			<point x="249" y="692" type="line"/>
			<point x="128" y="789" type="line"/>
			<point x="93" y="758" type="line"/>
			<point x="201" y="619" type="line" smooth="yes"/>
			<point x="219" y="596"/>
			<point x="228" y="591"/>
		</contour>
	</outline>
	<anchor name="_top" x="249" y="550"/>
</glyph>
<glyph name="tilde" format="2">
	<unicode hex="02DC"/>
	<advance width="500"/>
	<outline>
		<contour>
			<point x="326" y="614" type="curve" smooth="yes"/>
			<point x="358" y="614"/>
			<point x="381" y="631"/>
			<point x="417" y="703" type="curve"/>
			<point x="378" y="726" type="line"/>
			<point x="361" y="696"/>
			<point x="352" y="688"/>
			<point x="339" y="688" type="curve" smooth="yes"/>
			<point x="329" y="688"/>
			<point x="310" y="693"/>
			<point x="269" y="712" type="curve" smooth="yes"/>
			<point x="228" y="731"/>
			<point x="205" y="736"/>
			<point x="180" y="736" type="curve" smooth="yes"/>
			<point x="142" y="736"/>
			<point x="117" y="720"/>
			<point x="82" y="649" type="curve"/>
			<point x="121" y="625" type="line"/>
			<point x="141" y="655"/>
			<point x="150" y="663"/>
			<point x="165" y="663" type="curve" smooth="yes"/>
			<point x="176" y="663"/>
			<point x="194" y="660"/>
			<point x="241" y="638" type="curve" smooth="yes"/>
			<point x="278" y="621"/>
			<point x="301" y="614"/>
		</contour>
	</outline>
	<anchor name="_top" x="250" y="550"/>
</glyph>
<glyph name="hungarumlaut" format="2">
	<unicode hex="02DD"/>
	<advance width="500"/>
	<outline>
		<contour>
			<point x="324" y="590" type="line"/>
			<point x="444" y="674" type="line" smooth="yes"/>
			<point x="465" y="689"/>
			<point x="478" y="711"/>
			<point x="478" y="731" type="curve" smooth="yes"/>
			<point x="478" y="754"/>
			<point x="465" y="778"/>
			<point x="436" y="778" type="curve" smooth="yes"/>
			<point x="422" y="778"/>
			<point x="412" y="770"/>
			<point x="396" y="749" type="curve" smooth="yes"/>
			<point x="295" y="620" type="line"/>
		</contour>
		<contour>
			<point x="168" y="590" type="line"/>
			<point x="277" y="681" type="line" smooth="yes"/>
			<point x="298" y="698"/>
			<point x="308" y="716"/>
			<point x="308" y="735" type="curve" smooth="yes"/>
			<point x="308" y="760"/>
			<point x="292" y="784"/>
			<point x="266" y="784" type="curve" smooth="yes"/>
			<point x="252" y="784"/>
			<point x="242" y="777"/>
			<point x="228" y="755" type="curve" smooth="yes"/>
			<point x="139" y="620" type="line"/>
		</contour>
	</outline>
	<anchor name="_top" x="250" y="550"/>
</glyph>
<glyph name="dieresiscomb" format="2">
	<unicode hex="0308"/>
	<outline>
		<contour>
			<point x="102" y="620" type="curve" smooth="yes"/>
			<point x="139" y="620"/>
			<point x="166" y="647"/>
			<point x="166" y="683" type="curve" smooth="yes"/>
			<point x="166" y="719"/>
			<point x="139" y="745"/>
			<point x="102" y="745" type="curve" smooth="yes"/>
			<point x="65" y="745"/>
			<point x="38" y="718"/>
			<point x="38" y="682" type="curve" smooth="yes"/>
			<point x="38" y="646"/>
			<point x="65" y="620"/>
		</contour>
		<contour>
			<point x="-103" y="620" type="curve" smooth="yes"/>
			<point x="-65" y="620"/>
			<point x="-38" y="647"/>
			<point x="-38" y="683" type="curve" smooth="yes"/>
			<point x="-38" y="719"/>
			<point x="-65" y="745"/>
			<point x="-103" y="745" type="curve" smooth="yes"/>
			<point x="-139" y="745"/>
			<point x="-166" y="718"/>
			<point x="-166" y="682" type="curve" smooth="yes"/>
			<point x="-166" y="646"/>
			<point x="-139" y="620"/>
		</contour>
	</outline>
	<anchor name="_top" x="1" y="550"/>
</glyph>
<glyph name="hungarumlautcomb" format="2">
	<unicode hex="030B"/>
	<outline>
		<contour>
			<point x="65" y="590" type="line"/>
			<point x="185" y="674" type="line" smooth="yes"/>
			<point x="206" y="689"/>
			<point x="219" y="711"/>
			<point x="219" y="731" type="curve" smooth="yes"/>
			<point x="219" y="754"/>
			<point x="206" y="778"/>
			<point x="177" y="778" type="curve" smooth="yes"/>
			<point x="163" y="778"/>
			<point x="153" y="770"/>
			<point x="137" y="749" type="curve" smooth="yes"/>
			<point x="36" y="620" type="line"/>
		</contour>
		<contour>
			<point x="-91" y="590" type="line"/>
			<point x="18" y="681" type="line" smooth="yes"/>
			<point x="39" y="698"/>
			<point x="49" y="716"/>
			<point x="49" y="735" type="curve" smooth="yes"/>
			<point x="49" y="760"/>
			<point x="33" y="784"/>
			<point x="7" y="784" type="curve" smooth="yes"/>
			<point x="-7" y="784"/>
			<point x="-17" y="777"/>
			<point x="-31" y="755" type="curve" smooth="yes"/>
			<point x="-120" y="620" type="line"/>
		</contour>
	</outline>
	<anchor name="_top" x="0" y="550"/>
</glyph>
<glyph name="caroncomb" format="2">
	<unicode hex="030C"/>
	<outline>
		<contour>
			<point x="0" y="591" type="curve" smooth="yes"/>
			<point x="14" y="591"/>
			<point x="27" y="598"/>
			<point x="39" y="613" type="curve" smooth="yes"/>
			<point x="159" y="759" type="line"/>
			<point x="130" y="789" type="line"/>
			<point x="0" y="692" type="line"/>
			<point x="-126" y="789" type="line"/>
			<point x="-156" y="758" type="line"/>
			<point x="-41" y="619" type="line" smooth="yes"/>
			<point x="-22" y="596"/>
			<point x="-14" y="591"/>
		</contour>
	</outline>
	<anchor name="_top" x="0" y="550"/>
</glyph>
<glyph name="breveinvertedcomb" format="2">
	<unicode hex="0311"/>
	<outline>
		<contour>
			<point x="5" y="772" type="curve" smooth="yes"/>
			<point x="-96" y="772"/>
			<point x="-147" y="681"/>
			<point x="-154" y="602" type="curve"/>
			<point x="-109" y="592" type="line"/>
			<point x="-97" y="649"/>
			<point x="-60" y="692"/>
			<point x="0" y="692" type="curve" smooth="yes"/>
			<point x="59" y="692"/>
			<point x="94" y="657"/>
			<point x="110" y="591" type="curve"/>
			<point x="157" y="603" type="line"/>
			<point x="148" y="689"/>
			<point x="104" y="772"/>
		</contour>
	</outline>
	<anchor name="_top" x="0" y="550"/>
</glyph>
<glyph name="horncomb" format="2">
	<unicode hex="031B"/>
	<outline>
		<contour>
			<point x="-98" y="362" type="line"/>
			<point x="18" y="390"/>
			<point x="73" y="503"/>
			<point x="73" y="576" type="curve" smooth="yes"/>
			<point x="73" y="625"/>
			<point x="56" y="667"/>
			<point x="0" y="667" type="curve" smooth="yes"/>
			<point x="-39" y="667"/>
			<point x="-68" y="641"/>
			<point x="-68" y="598" type="curve" smooth="yes"/>
			<point x="-68" y="564"/>
			<point x="-51" y="544"/>
			<point x="-5" y="544" type="curve" smooth="yes"/>
			<point x="2" y="544" type="line"/>
			<point x="-2" y="496"/>
			<point x="-29" y="453"/>
			<point x="-98" y="424" type="curve"/>
		</contour>
	</outline>
</glyph>
<glyph name="dieresisbelowcomb" format="2">
	<unicode hex="0324"/>
	<outline>
		<contour>
			<point x="102" y="-190" type="curve" smooth="yes"/>
			<point x="139" y="-190"/>
			<point x="166" y="-163"/>
			<point x="166" y="-127" type="curve" smooth="yes"/>
			<point x="166" y="-91"/>
			<point x="139" y="-65"/>
			<point x="102" y="-65" type="curve" smooth="yes"/>
			<point x="65" y="-65"/>
			<point x="38" y="-92"/>
			<point x="38" y="-128" type="curve" smooth="yes"/>
			<point x="38" y="-164"/>
			<point x="65" y="-190"/>
		</contour>
		<contour>
			<point x="-103" y="-190" type="curve" smooth="yes"/>
			<point x="-65" y="-190"/>
			<point x="-38" y="-163"/>
			<point x="-38" y="-127" type="curve" smooth="yes"/>
			<point x="-38" y="-91"/>
			<point x="-65" y="-65"/>
			<point x="-103" y="-65" type="curve" smooth="yes"/>
			<point x="-139" y="-65"/>
			<point x="-166" y="-92"/>
			<point x="-166" y="-128" type="curve" smooth="yes"/>
			<point x="-166" y="-164"/>
			<point x="-139" y="-190"/>
		</contour>
	</outline>
	<anchor name="_bottom" x="0" y="-30"/>
</glyph>
<glyph name="cedillacomb" format="2">
	<unicode hex="0327"/>
	<outline>
		<contour>
			<point x="-8" y="-229" type="curve" smooth="yes"/>
			<point x="72" y="-229"/>
			<point x="109" y="-189"/>
			<point x="109" y="-133" type="curve" smooth="yes"/>
			<point x="109" y="-76"/>
			<point x="69" y="-49"/>
			<point x="3" y="-53" type="curve"/>
			<point x="30" y="13" type="line"/>
			<point x="-21" y="13" type="line"/>
			<point x="-56" y="-75" type="line"/>
			<point x="-48" y="-98" type="line"/>
			<point x="-39" y="-96"/>
			<point x="-31" y="-95"/>
			<point x="-18" y="-95" type="curve" smooth="yes"/>
			<point x="19" y="-95"/>
			<point x="37" y="-104"/>
			<point x="37" y="-131" type="curve" smooth="yes"/>
			<point x="37" y="-161"/>
			<point x="10" y="-172"/>
			<point x="-16" y="-172" type="curve" smooth="yes"/>
			<point x="-38" y="-172"/>
			<point x="-70" y="-160"/>
			<point x="-87" y="-148" type="curve"/>
			<point x="-113" y="-193" type="line"/>
			<point x="-99" y="-206"/>
			<point x="-62" y="-229"/>
		</contour>
	</outline>
	<anchor name="_bottom" x="0" y="-30"/>
</glyph>
<glyph name="brevebelowcomb" format="2">
	<unicode hex="032E"/>
	<outline>
		<contour>
			<point x="-4" y="-229" type="curve" smooth="yes"/>
			<point x="97" y="-229"/>
			<point x="150" y="-143"/>
			<point x="157" y="-64" type="curve"/>
			<point x="111" y="-54" type="line"/>
			<point x="96" y="-111"/>
			<point x="63" y="-149"/>
			<point x="1" y="-149" type="curve" smooth="yes"/>
			<point x="-60" y="-149"/>
			<point x="-91" y="-119"/>
			<point x="-110" y="-53" type="curve"/>
			<point x="-158" y="-65" type="line"/>
			<point x="-149" y="-151"/>
			<point x="-103" y="-229"/>
		</contour>
	</outline>
	<anchor name="_bottom" x="0" y="-30"/>
</glyph>
<glyph name="macronbelowcomb" format="2">
	<unicode hex="0331"/>
	<outline>
		<contour>
			<point x="-144" y="-161" type="line"/>
			<point x="144" y="-161" type="line"/>
			<point x="144" y="-88" type="line"/>
			<point x="-144" y="-88" type="line"/>
		</contour>
	</outline>
	<anchor name="_bottom" x="0" y="-30"/>
</glyph>
<glyph name="numeral-greek" format="2">
	<unicode hex="0374"/>
	<advance width="350"/>
	<outline>
		<contour>
			<point x="99" y="510" type="line"/>
			<point x="249" y="693" type="line"/>
			<point x="249" y="708" type="line"/>
			<point x="231" y="746"/>
			<point x="213" y="761"/>
			<point x="184" y="761" type="curve" smooth="yes"/>
			<point x="159" y="761"/>
			<point x="146" y="750"/>
			<point x="133" y="716" type="curve" smooth="yes"/>
			<point x="63" y="529" type="line"/>
		</contour>
	</outline>
</glyph>
<glyph name="ypogegrammeni" format="2">
	<unicode hex="037A"/>
	<advance width="257"/>
	<outline>
		<contour>
			<point x="157" y="-229" type="curve" smooth="yes"/>
			<point x="188" y="-229"/>
			<point x="220" y="-218"/>
			<point x="244" y="-199" type="curve"/>
			<point x="234" y="-160" type="line"/>
			<point x="213" y="-164"/>
			<point x="204" y="-165"/>
			<point x="197" y="-165" type="curve" smooth="yes"/>
			<point x="165" y="-165"/>
			<point x="152" y="-151"/>
			<point x="152" y="-117" type="curve" smooth="yes"/>
			<point x="152" y="-98"/>
			<point x="153" y="-89"/>
			<point x="159" y="-46" type="curve"/>
			<point x="148" y="-41" type="line"/>
			<point x="71" y="-51" type="line"/>
			<point x="71" y="-136" type="line" smooth="yes"/>
			<point x="71" y="-201"/>
			<point x="96" y="-229"/>
		</contour>
	</outline>
	<anchor name="_bottom" x="114" y="-30"/>
</glyph>
<glyph name="Gamma" format="2">
	<unicode hex="0393"/>
	<advance width="640"/>
	<outline>
		<contour>
			<point x="69" y="0" type="line"/>
			<point x="395" y="0" type="line"/>
			<point x="395" y="52" type="line"/>
			<point x="309" y="57" type="line" smooth="yes"/>
			<point x="278" y="59"/>
			<point x="269" y="71"/>
			<point x="269" y="106" type="curve"/>
			<point x="269" y="640" type="line"/>
			<point x="368" y="640" type="line" smooth="yes"/>
			<point x="473" y="640"/>
			<point x="498" y="621"/>
			<point x="542" y="506" type="curve"/>
			<point x="595" y="522" type="line"/>
			<point x="557" y="700" type="line"/>
			<point x="69" y="700" type="line"/>
			<point x="69" y="647" type="line"/>
			<point x="136" y="643" type="line" smooth="yes"/>
			<point x="163" y="641"/>
			<point x="171" y="631"/>
			<point x="171" y="596" type="curve" smooth="yes"/>
			<point x="171" y="108" type="line" smooth="yes"/>
			<point x="171" y="70"/>
			<point x="164" y="59"/>
			<point x="138" y="57" type="curve" smooth="yes"/>
			<point x="69" y="53" type="line"/>
		</contour>
	</outline>
</glyph>
<glyph name="Delta" format="2">
	<unicode hex="0394"/>
	<advance width="679"/>
	<outline>
		<contour>
			<point x="40" y="0" type="line"/>
			<point x="640" y="0" type="line"/>
			<point x="653" y="58" type="line"/>
			<point x="397" y="700" type="line"/>
			<point x="285" y="700" type="line"/>
			<point x="26" y="58" type="line"/>
		</contour>
		<contour>
			<point x="112" y="84" type="line"/>
			<point x="319" y="617" type="line"/>
			<point x="327" y="617" type="line"/>
			<point x="531" y="84" type="line"/>
		</contour>
	</outline>
</glyph>
<glyph name="Xi" format="2">
	<unicode hex="039E"/>
	<advance width="726"/>
	<outline>
		<contour>
			<point x="83" y="0" type="line"/>
			<point x="643" y="0" type="line"/>
			<point x="666" y="199" type="line"/>
			<point x="610" y="199" type="line"/>
			<point x="581" y="104"/>
			<point x="553" y="84"/>
			<point x="449" y="84" type="curve" smooth="yes"/>
			<point x="277" y="84" type="line" smooth="yes"/>
			<point x="173" y="84"/>
			<point x="145" y="104"/>
			<point x="116" y="199" type="curve"/>
			<point x="60" y="199" type="line"/>
		</contour>
		<contour>
			<point x="155" y="232" type="line"/>
			<point x="203" y="238" type="line"/>
			<point x="223" y="304"/>
			<point x="227" y="319"/>
			<point x="299" y="319" type="curve" smooth="yes"/>
			<point x="418" y="319" type="line" smooth="yes"/>
			<point x="487" y="319"/>
			<point x="500" y="307"/>
			<point x="516" y="232" type="curve"/>
			<point x="564" y="240" type="line"/>
			<point x="564" y="470" type="line"/>
			<point x="516" y="464" type="line"/>
			<point x="496" y="398"/>
			<point x="492" y="383"/>
			<point x="420" y="383" type="curve" smooth="yes"/>
			<point x="301" y="383" type="line" smooth="yes"/>
			<point x="232" y="383"/>
			<point x="219" y="395"/>
			<point x="203" y="470" type="curve"/>
			<point x="155" y="462" type="line"/>
		</contour>
		<contour>
			<point x="122" y="505" type="line"/>
			<point x="162" y="604"/>
			<point x="181" y="616"/>
			<point x="294" y="616" type="curve" smooth="yes"/>
			<point x="432" y="616" type="line" smooth="yes"/>
			<point x="546" y="616"/>
			<point x="564" y="604"/>
			<point x="604" y="505" type="curve"/>
			<point x="658" y="522" type="line"/>
			<point x="621" y="700" type="line"/>
			<point x="105" y="700" type="line"/>
			<point x="68" y="522" type="line"/>
		</contour>
	</outline>
</glyph>
<glyph name="Pi" format="2">
	<unicode hex="03A0"/>
	<advance width="907"/>
	<outline>
		<contour>
			<point x="69" y="0" type="line"/>
			<point x="370" y="0" type="line"/>
			<point x="370" y="53" type="line"/>
			<point x="304" y="57" type="line" smooth="yes"/>
			<point x="277" y="59"/>
			<point x="269" y="70"/>
			<point x="269" y="104" type="curve"/>
			<point x="269" y="636" type="line"/>
			<point x="640" y="636" type="line"/>
			<point x="640" y="108" type="line"/>
			<point x="640" y="70"/>
			<point x="633" y="59"/>
			<point x="607" y="57" type="curve" smooth="yes"/>
			<point x="540" y="53" type="line"/>
			<point x="540" y="0" type="line"/>
			<point x="838" y="0" type="line"/>
			<point x="838" y="53" type="line"/>
			<point x="773" y="57" type="line" smooth="yes"/>
			<point x="745" y="59"/>
			<point x="738" y="69"/>
			<point x="738" y="104" type="curve" smooth="yes"/>
			<point x="738" y="592" type="line" smooth="yes"/>
			<point x="738" y="630"/>
			<point x="745" y="642"/>
			<point x="770" y="643" type="curve" smooth="yes"/>
			<point x="838" y="647" type="line"/>
			<point x="838" y="700" type="line"/>
			<point x="69" y="700" type="line"/>
			<point x="69" y="647" type="line"/>
			<point x="135" y="643" type="line" smooth="yes"/>
			<point x="163" y="641"/>
			<point x="171" y="630"/>
			<point x="171" y="596" type="curve" smooth="yes"/>
			<point x="171" y="108" type="line" smooth="yes"/>
			<point x="171" y="70"/>
			<point x="164" y="59"/>
			<point x="138" y="57" type="curve" smooth="yes"/>
			<point x="69" y="53" type="line"/>
		</contour>
	</outline>
</glyph>
<glyph name="Sigma" format="2">
	<unicode hex="03A3"/>
	<advance width="706"/>
	<outline>
		<contour>
			<point x="62" y="0" type="line"/>
			<point x="618" y="0" type="line"/>
			<point x="642" y="224" type="line"/>
			<point x="586" y="224" type="line"/>
			<point x="548" y="104"/>
			<point x="527" y="84"/>
			<point x="438" y="84" type="curve" smooth="yes"/>
			<point x="145" y="84" type="line"/>
			<point x="142" y="24" type="line"/>
			<point x="403" y="346" type="line"/>
			<point x="403" y="354" type="line"/>
			<point x="202" y="640" type="line"/>
			<point x="410" y="640" type="line" smooth="yes"/>
			<point x="501" y="640"/>
			<point x="533" y="613"/>
			<point x="570" y="506" type="curve"/>
			<point x="623" y="522" type="line"/>
			<point x="585" y="700" type="line"/>
			<point x="65" y="700" type="line"/>
			<point x="65" y="650" type="line"/>
			<point x="302" y="327" type="line"/>
			<point x="62" y="38" type="line"/>
		</contour>
	</outline>
</glyph>
<glyph name="Phi" format="2">
	<unicode hex="03A6"/>
	<advance width="893"/>
	<outline>
		<contour>
			<point x="296" y="-30" type="line"/>
			<point x="598" y="-30" type="line"/>
			<point x="598" y="23" type="line"/>
			<point x="530" y="27" type="line" smooth="yes"/>
			<point x="506" y="29"/>
			<point x="496" y="39"/>
			<point x="496" y="62" type="curve" smooth="yes"/>
			<point x="496" y="70" type="line"/>
			<point x="701" y="77"/>
			<point x="829" y="189"/>
			<point x="829" y="363" type="curve" smooth="yes"/>
			<point x="829" y="522"/>
			<point x="697" y="627"/>
			<point x="495" y="629" type="curve"/>
			<point x="495" y="635" type="line" smooth="yes"/>
			<point x="495" y="661"/>
			<point x="504" y="672"/>
			<point x="527" y="673" type="curve" smooth="yes"/>
			<point x="597" y="677" type="line"/>
			<point x="597" y="730" type="line"/>
			<point x="295" y="730" type="line"/>
			<point x="295" y="677" type="line"/>
			<point x="361" y="673" type="line" smooth="yes"/>
			<point x="388" y="671"/>
			<point x="397" y="661"/>
			<point x="397" y="634" type="curve" smooth="yes"/>
			<point x="397" y="629" type="line"/>
			<point x="185" y="623"/>
			<point x="64" y="518"/>
			<point x="64" y="338" type="curve" smooth="yes"/>
			<point x="64" y="179"/>
			<point x="196" y="72"/>
			<point x="398" y="69" type="curve"/>
			<point x="398" y="63" type="line" smooth="yes"/>
			<point x="398" y="39"/>
			<point x="388" y="28"/>
			<point x="365" y="27" type="curve" smooth="yes"/>
			<point x="296" y="23" type="line"/>
		</contour>
		<contour>
			<point x="398" y="131" type="line"/>
			<point x="257" y="138"/>
			<point x="174" y="220"/>
			<point x="174" y="354" type="curve" smooth="yes"/>
			<point x="174" y="497"/>
			<point x="248" y="568"/>
			<point x="397" y="569" type="curve"/>
		</contour>
		<contour>
			<point x="496" y="129" type="curve"/>
			<point x="495" y="568" type="line"/>
			<point x="639" y="562"/>
			<point x="720" y="483"/>
			<point x="720" y="347" type="curve" smooth="yes"/>
			<point x="720" y="201"/>
			<point x="647" y="130"/>
		</contour>
	</outline>
</glyph>
<glyph name="Psi" format="2">
	<unicode hex="03A8"/>
	<advance width="968"/>
	<outline>
		<contour>
			<point x="333" y="0" type="line"/>
			<point x="635" y="0" type="line"/>
			<point x="635" y="53" type="line"/>
			<point x="567" y="57" type="line" smooth="yes"/>
			<point x="541" y="59"/>
			<point x="533" y="70"/>
			<point x="533" y="104" type="curve" smooth="yes"/>
			<point x="533" y="189" type="line"/>
			<point x="729" y="196"/>
			<point x="833" y="299"/>
			<point x="833" y="484" type="curve" smooth="yes"/>
			<point x="833" y="592" type="line" smooth="yes"/>
			<point x="833" y="628"/>
			<point x="841" y="641"/>
			<point x="865" y="643" type="curve" smooth="yes"/>
			<point x="908" y="647" type="line"/>
			<point x="908" y="700" type="line"/>
			<point x="736" y="700" type="line"/>
			<point x="736" y="482" type="line" smooth="yes"/>
			<point x="736" y="335"/>
			<point x="673" y="267"/>
			<point x="533" y="261" type="curve"/>
			<point x="533" y="592" type="line" smooth="yes"/>
			<point x="533" y="630"/>
			<point x="541" y="642"/>
			<point x="565" y="643" type="curve" smooth="yes"/>
			<point x="635" y="647" type="line"/>
			<point x="635" y="700" type="line"/>
			<point x="333" y="700" type="line"/>
			<point x="333" y="647" type="line"/>
			<point x="399" y="643" type="line" smooth="yes"/>
			<point x="427" y="641"/>
			<point x="435" y="631"/>
			<point x="435" y="596" type="curve" smooth="yes"/>
			<point x="435" y="261" type="line"/>
			<point x="296" y="267"/>
			<point x="233" y="336"/>
			<point x="233" y="482" type="curve" smooth="yes"/>
			<point x="233" y="700" type="line"/>
			<point x="60" y="700" type="line"/>
			<point x="60" y="647" type="line"/>
			<point x="103" y="643" type="line" smooth="yes"/>
			<point x="127" y="641"/>
			<point x="135" y="628"/>
			<point x="135" y="592" type="curve" smooth="yes"/>
			<point x="135" y="474" type="line" smooth="yes"/>
			<point x="135" y="292"/>
			<point x="235" y="197"/>
			<point x="435" y="189" type="curve"/>
			<point x="435" y="108" type="line" smooth="yes"/>
			<point x="435" y="70"/>
			<point x="427" y="58"/>
			<point x="402" y="57" type="curve" smooth="yes"/>
			<point x="333" y="53" type="line"/>
		</contour>
	</outline>
</glyph>
<glyph name="Omega" format="2">
	<unicode hex="03A9"/>
	<advance width="840"/>
	<outline>
		<contour>
			<point x="68" y="0" type="line"/>
			<point x="368" y="0" type="line"/>
			<point x="368" y="176" type="line"/>
			<point x="244" y="208"/>
			<point x="183" y="284"/>
			<point x="183" y="407" type="curve" smooth="yes"/>
			<point x="183" y="560"/>
			<point x="269" y="645"/>
			<point x="426" y="645" type="curve" smooth="yes"/>
			<point x="567" y="645"/>
			<point x="658" y="554"/>
			<point x="658" y="414" type="curve" smooth="yes"/>
			<point x="658" y="283"/>
			<point x="600" y="209"/>
			<point x="472" y="175" type="curve"/>
			<point x="472" y="0" type="line"/>
			<point x="772" y="0" type="line"/>
			<point x="795" y="214" type="line"/>
			<point x="740" y="214" type="line"/>
			<point x="701" y="92"/>
			<point x="684" y="74"/>
			<point x="607" y="74" type="curve" smooth="yes"/>
			<point x="536" y="74" type="line"/>
			<point x="536" y="128" type="line"/>
			<point x="669" y="163"/>
			<point x="767" y="284"/>
			<point x="767" y="411" type="curve" smooth="yes"/>
			<point x="767" y="596"/>
			<point x="636" y="714"/>
			<point x="432" y="714" type="curve" smooth="yes"/>
			<point x="222" y="714"/>
			<point x="73" y="583"/>
			<point x="73" y="400" type="curve" smooth="yes"/>
			<point x="73" y="272"/>
			<point x="170" y="158"/>
			<point x="304" y="129" type="curve"/>
			<point x="304" y="74" type="line"/>
			<point x="231" y="74" type="line" smooth="yes"/>
			<point x="156" y="74"/>
			<point x="140" y="91"/>
			<point x="101" y="214" type="curve"/>
			<point x="45" y="214" type="line"/>
		</contour>
	</outline>
	<anchor name="bottom" x="400" y="-45"/>
	<anchor name="side" x="839" y="217"/>
	<anchor name="topleft" x="53" y="700"/>
	<guideline x="63" y="418" angle="90"/>
</glyph>
<glyph name="delta" format="2">
	<unicode hex="03B4"/>
	<advance width="618"/>
	<outline>
		<contour>
			<point x="310" y="-14" type="curve" smooth="yes"/>
			<point x="461" y="-14"/>
			<point x="565" y="84"/>
			<point x="565" y="226" type="curve" smooth="yes"/>
			<point x="565" y="338"/>
			<point x="509" y="412"/>
			<point x="350" y="511" type="curve" smooth="yes"/>
			<point x="235" y="583"/>
			<point x="206" y="611"/>
			<point x="206" y="654" type="curve" smooth="yes"/>
			<point x="206" y="698"/>
			<point x="250" y="725"/>
			<point x="323" y="725" type="curve" smooth="yes"/>
			<point x="383" y="725"/>
			<point x="421" y="711"/>
			<point x="457" y="676" type="curve"/>
			<point x="437" y="645"/>
			<point x="431" y="630"/>
			<point x="431" y="613" type="curve" smooth="yes"/>
			<point x="431" y="586"/>
			<point x="457" y="567"/>
			<point x="494" y="567" type="curve" smooth="yes"/>
			<point x="537" y="567"/>
			<point x="565" y="593"/>
			<point x="565" y="632" type="curve" smooth="yes"/>
			<point x="565" y="720"/>
			<point x="469" y="782"/>
			<point x="335" y="782" type="curve" smooth="yes"/>
			<point x="207" y="782"/>
			<point x="122" y="722"/>
			<point x="122" y="632" type="curve" smooth="yes"/>
			<point x="122" y="576"/>
			<point x="155" y="535"/>
			<point x="253" y="471" type="curve"/>
			<point x="118" y="422"/>
			<point x="52" y="336"/>
			<point x="52" y="208" type="curve" smooth="yes"/>
			<point x="52" y="74"/>
			<point x="154" y="-14"/>
		</contour>
		<contour>
			<point x="309" y="51" type="curve" smooth="yes"/>
			<point x="205" y="51"/>
			<point x="149" y="107"/>
			<point x="149" y="213" type="curve" smooth="yes"/>
			<point x="149" y="320"/>
			<point x="211" y="401"/>
			<point x="323" y="439" type="curve"/>
			<point x="424" y="373"/>
			<point x="467" y="308"/>
			<point x="467" y="219" type="curve" smooth="yes"/>
			<point x="467" y="116"/>
			<point x="406" y="51"/>
		</contour>
	</outline>
</glyph>
<glyph name="epsilon" format="2">
	<unicode hex="03B5"/>
	<advance width="580"/>
	<outline>
		<contour>
			<point x="297" y="-14" type="curve" smooth="yes"/>
			<point x="394" y="-14"/>
			<point x="476" y="20"/>
			<point x="531" y="84" type="curve"/>
			<point x="493" y="124" type="line"/>
			<point x="438" y="79"/>
			<point x="384" y="61"/>
			<point x="305" y="61" type="curve" smooth="yes"/>
			<point x="215" y="61"/>
			<point x="161" y="95"/>
			<point x="161" y="151" type="curve" smooth="yes"/>
			<point x="161" y="191"/>
			<point x="193" y="225"/>
			<point x="245" y="240" type="curve"/>
			<point x="265" y="224"/>
			<point x="295" y="213"/>
			<point x="319" y="213" type="curve" smooth="yes"/>
			<point x="354" y="213"/>
			<point x="381" y="236"/>
			<point x="381" y="267" type="curve" smooth="yes"/>
			<point x="381" y="297"/>
			<point x="355" y="318"/>
			<point x="319" y="318" type="curve" smooth="yes"/>
			<point x="298" y="318"/>
			<point x="276" y="309"/>
			<point x="250" y="291" type="curve"/>
			<point x="190" y="306"/>
			<point x="163" y="333"/>
			<point x="163" y="375" type="curve" smooth="yes"/>
			<point x="163" y="435"/>
			<point x="217" y="471"/>
			<point x="308" y="471" type="curve" smooth="yes"/>
			<point x="350" y="471"/>
			<point x="404" y="459"/>
			<point x="426" y="445" type="curve"/>
			<point x="408" y="417"/>
			<point x="399" y="394"/>
			<point x="399" y="375" type="curve" smooth="yes"/>
			<point x="399" y="348"/>
			<point x="424" y="329"/>
			<point x="461" y="329" type="curve" smooth="yes"/>
			<point x="499" y="329"/>
			<point x="526" y="358"/>
			<point x="526" y="400" type="curve" smooth="yes"/>
			<point x="526" y="481"/>
			<point x="441" y="533"/>
			<point x="308" y="533" type="curve" smooth="yes"/>
			<point x="168" y="533"/>
			<point x="80" y="474"/>
			<point x="80" y="379" type="curve" smooth="yes"/>
			<point x="80" y="324"/>
			<point x="114" y="284"/>
			<point x="177" y="264" type="curve"/>
			<point x="177" y="263" type="line"/>
			<point x="105" y="238"/>
			<point x="67" y="192"/>
			<point x="67" y="130" type="curve" smooth="yes"/>
			<point x="67" y="39"/>
			<point x="152" y="-14"/>
		</contour>
	</outline>
	<anchor name="top" x="294" y="550"/>
</glyph>
<glyph name="zeta" format="2">
	<unicode hex="03B6"/>
	<advance width="496"/>
	<outline>
		<contour>
			<point x="371" y="-230" type="line"/>
			<point x="434" y="-177"/>
			<point x="470" y="-117"/>
			<point x="470" y="-65" type="curve" smooth="yes"/>
			<point x="470" y="13"/>
			<point x="431" y="44"/>
			<point x="289" y="79" type="curve" smooth="yes"/>
			<point x="177" y="106"/>
			<point x="140" y="139"/>
			<point x="140" y="212" type="curve" smooth="yes"/>
			<point x="140" y="340"/>
			<point x="270" y="519"/>
			<point x="492" y="698" type="curve"/>
			<point x="492" y="713" type="line"/>
			<point x="422" y="773" type="line"/>
			<point x="397" y="755"/>
			<point x="384" y="743"/>
			<point x="347" y="704" type="curve"/>
			<point x="335" y="702"/>
			<point x="306" y="701"/>
			<point x="273" y="701" type="curve" smooth="yes"/>
			<point x="228" y="701"/>
			<point x="190" y="705"/>
			<point x="169" y="712" type="curve"/>
			<point x="179" y="731"/>
			<point x="184" y="745"/>
			<point x="184" y="755" type="curve" smooth="yes"/>
			<point x="184" y="784"/>
			<point x="160" y="805"/>
			<point x="126" y="805" type="curve" smooth="yes"/>
			<point x="88" y="805"/>
			<point x="60" y="778"/>
			<point x="60" y="739" type="curve" smooth="yes"/>
			<point x="60" y="674"/>
			<point x="109" y="642"/>
			<point x="208" y="642" type="curve" smooth="yes"/>
			<point x="232" y="642"/>
			<point x="259" y="644"/>
			<point x="292" y="647" type="curve"/>
			<point x="139" y="485"/>
			<point x="52" y="320"/>
			<point x="52" y="194" type="curve" smooth="yes"/>
			<point x="52" y="83"/>
			<point x="102" y="34"/>
			<point x="265" y="-13" type="curve" smooth="yes"/>
			<point x="356" y="-39"/>
			<point x="375" y="-52"/>
			<point x="375" y="-88" type="curve" smooth="yes"/>
			<point x="375" y="-119"/>
			<point x="364" y="-144"/>
			<point x="327" y="-196" type="curve"/>
		</contour>
	</outline>
</glyph>
<glyph name="theta" format="2">
	<unicode hex="03B8"/>
	<advance width="653"/>
	<outline>
		<contour>
			<point x="325" y="-14" type="curve" smooth="yes"/>
			<point x="492" y="-14"/>
			<point x="585" y="129"/>
			<point x="585" y="384" type="curve" smooth="yes"/>
			<point x="585" y="649"/>
			<point x="502" y="782"/>
			<point x="336" y="782" type="curve" smooth="yes"/>
			<point x="166" y="782"/>
			<point x="72" y="642"/>
			<point x="72" y="386" type="curve" smooth="yes"/>
			<point x="72" y="119"/>
			<point x="156" y="-14"/>
		</contour>
		<contour>
			<point x="333" y="51" type="curve" smooth="yes"/>
			<point x="231" y="51"/>
			<point x="173" y="152"/>
			<point x="167" y="339" type="curve"/>
			<point x="490" y="353" type="line"/>
			<point x="490" y="161"/>
			<point x="433" y="51"/>
		</contour>
		<contour>
			<point x="167" y="427" type="line"/>
			<point x="167" y="613"/>
			<point x="223" y="716"/>
			<point x="323" y="716" type="curve" smooth="yes"/>
			<point x="430" y="716"/>
			<point x="490" y="612"/>
			<point x="490" y="427" type="curve"/>
		</contour>
	</outline>
</glyph>
<glyph name="mu" format="2">
	<unicode hex="03BC"/>
	<advance width="664"/>
	<outline>
		<contour>
			<point x="105" y="-223" type="line"/>
			<point x="194" y="-217" type="line"/>
			<point x="181" y="-136"/>
			<point x="174" y="-54"/>
			<point x="174" y="23" type="curve"/>
			<point x="176" y="23" type="line"/>
			<point x="198" y="-1"/>
			<point x="234" y="-14"/>
			<point x="278" y="-14" type="curve" smooth="yes"/>
			<point x="353" y="-14"/>
			<point x="410" y="24"/>
			<point x="438" y="93" type="curve"/>
			<point x="441" y="93" type="line"/>
			<point x="448" y="24"/>
			<point x="480" y="-14"/>
			<point x="531" y="-14" type="curve" smooth="yes"/>
			<point x="567" y="-14"/>
			<point x="610" y="2"/>
			<point x="636" y="26" type="curve"/>
			<point x="624" y="71" type="line"/>
			<point x="603" y="64"/>
			<point x="587" y="61"/>
			<point x="570" y="61" type="curve" smooth="yes"/>
			<point x="529" y="61"/>
			<point x="512" y="84"/>
			<point x="512" y="140" type="curve" smooth="yes"/>
			<point x="512" y="234"/>
			<point x="519" y="405"/>
			<point x="528" y="519" type="curve"/>
			<point x="515" y="526" type="line"/>
			<point x="425" y="520" type="line"/>
			<point x="427" y="396"/>
			<point x="429" y="265"/>
			<point x="429" y="207" type="curve" smooth="yes"/>
			<point x="429" y="117"/>
			<point x="369" y="57"/>
			<point x="279" y="57" type="curve" smooth="yes"/>
			<point x="236" y="57"/>
			<point x="194" y="70"/>
			<point x="174" y="90" type="curve"/>
			<point x="174" y="202"/>
			<point x="179" y="375"/>
			<point x="187" y="519" type="curve"/>
			<point x="174" y="526" type="line"/>
			<point x="81" y="519" type="line"/>
			<point x="81" y="242"/>
			<point x="81" y="71"/>
			<point x="81" y="34" type="curve" smooth="yes"/>
			<point x="81" y="-63"/>
			<point x="85" y="-148"/>
			<point x="92" y="-216" type="curve"/>
		</contour>
	</outline>
</glyph>
<glyph name="xi" format="2">
	<unicode hex="03BE"/>
	<advance width="514"/>
	<outline>
		<contour>
			<point x="381" y="-230" type="line"/>
			<point x="446" y="-174"/>
			<point x="480" y="-118"/>
			<point x="480" y="-66" type="curve" smooth="yes"/>
			<point x="480" y="9"/>
			<point x="434" y="46"/>
			<point x="301" y="78" type="curve" smooth="yes"/>
			<point x="192" y="104"/>
			<point x="153" y="135"/>
			<point x="153" y="196" type="curve" smooth="yes"/>
			<point x="153" y="261"/>
			<point x="190" y="305"/>
			<point x="275" y="342" type="curve"/>
			<point x="308" y="321"/>
			<point x="339" y="312"/>
			<point x="374" y="312" type="curve" smooth="yes"/>
			<point x="417" y="312"/>
			<point x="449" y="342"/>
			<point x="449" y="382" type="curve" smooth="yes"/>
			<point x="449" y="421"/>
			<point x="418" y="448"/>
			<point x="374" y="448" type="curve" smooth="yes"/>
			<point x="342" y="448"/>
			<point x="311" y="437"/>
			<point x="275" y="413" type="curve"/>
			<point x="214" y="427"/>
			<point x="185" y="456"/>
			<point x="185" y="504" type="curve" smooth="yes"/>
			<point x="185" y="579"/>
			<point x="296" y="649"/>
			<point x="478" y="688" type="curve"/>
			<point x="478" y="704" type="line"/>
			<point x="434" y="766" type="line"/>
			<point x="375" y="754"/>
			<point x="309" y="730"/>
			<point x="257" y="701" type="curve"/>
			<point x="182" y="701"/>
			<point x="154" y="704"/>
			<point x="140" y="714" type="curve"/>
			<point x="152" y="739"/>
			<point x="155" y="748"/>
			<point x="155" y="756" type="curve" smooth="yes"/>
			<point x="155" y="785"/>
			<point x="131" y="806"/>
			<point x="97" y="806" type="curve" smooth="yes"/>
			<point x="59" y="806"/>
			<point x="32" y="779"/>
			<point x="32" y="740" type="curve" smooth="yes"/>
			<point x="32" y="670"/>
			<point x="89" y="642"/>
			<point x="193" y="660" type="curve"/>
			<point x="130" y="611"/>
			<point x="100" y="562"/>
			<point x="100" y="507" type="curve" smooth="yes"/>
			<point x="100" y="443"/>
			<point x="138" y="400"/>
			<point x="221" y="371" type="curve"/>
			<point x="221" y="369" type="line"/>
			<point x="122" y="340"/>
			<point x="65" y="271"/>
			<point x="65" y="182" type="curve" smooth="yes"/>
			<point x="65" y="78"/>
			<point x="128" y="20"/>
			<point x="274" y="-11" type="curve" smooth="yes"/>
			<point x="353" y="-28"/>
			<point x="385" y="-50"/>
			<point x="385" y="-89" type="curve" smooth="yes"/>
			<point x="385" y="-124"/>
			<point x="368" y="-155"/>
			<point x="327" y="-196" type="curve"/>
		</contour>
	</outline>
</glyph>
<glyph name="omicron" format="2">
	<unicode hex="03BF"/>
	<advance width="603"/>
	<outline>
		<contour>
			<point x="294" y="-14" type="curve" smooth="yes"/>
			<point x="453" y="-14"/>
			<point x="545" y="91"/>
			<point x="545" y="272" type="curve" smooth="yes"/>
			<point x="545" y="433"/>
			<point x="454" y="533"/>
			<point x="308" y="533" type="curve" smooth="yes"/>
			<point x="157" y="533"/>
			<point x="62" y="422"/>
			<point x="62" y="246" type="curve" smooth="yes"/>
			<point x="62" y="85"/>
			<point x="151" y="-14"/>
		</contour>
		<contour>
			<point x="309" y="51" type="curve" smooth="yes"/>
			<point x="217" y="51"/>
			<point x="161" y="133"/>
			<point x="161" y="269" type="curve" smooth="yes"/>
			<point x="161" y="396"/>
			<point x="209" y="467"/>
			<point x="294" y="467" type="curve" smooth="yes"/>
			<point x="390" y="467"/>
			<point x="447" y="384"/>
			<point x="447" y="244" type="curve" smooth="yes"/>
			<point x="447" y="119"/>
			<point x="398" y="51"/>
		</contour>
	</outline>
	<anchor name="top" x="310" y="550"/>
</glyph>
<glyph name="tau" format="2">
	<unicode hex="03C4"/>
	<advance width="524"/>
	<outline>
		<contour>
			<point x="317" y="-14" type="curve" smooth="yes"/>
			<point x="373" y="-14"/>
			<point x="433" y="12"/>
			<point x="471" y="53" type="curve"/>
			<point x="442" y="95" type="line"/>
			<point x="404" y="69"/>
			<point x="377" y="59"/>
			<point x="347" y="59" type="curve" smooth="yes"/>
			<point x="293" y="59"/>
			<point x="265" y="93"/>
			<point x="265" y="160" type="curve" smooth="yes"/>
			<point x="265" y="212"/>
			<point x="264" y="367"/>
			<point x="271" y="450" type="curve"/>
			<point x="467" y="450" type="line"/>
			<point x="481" y="457" type="line"/>
			<point x="481" y="533" type="line"/>
			<point x="151" y="528" type="line"/>
			<point x="125" y="527"/>
			<point x="66" y="516"/>
			<point x="32" y="505" type="curve"/>
			<point x="23" y="450" type="line"/>
			<point x="200" y="450" type="line"/>
			<point x="190" y="365"/>
			<point x="176" y="187"/>
			<point x="176" y="133" type="curve" smooth="yes"/>
			<point x="176" y="35"/>
			<point x="223" y="-14"/>
		</contour>
	</outline>
</glyph>
<glyph name="upsilon" format="2">
	<unicode hex="03C5"/>
	<advance width="625"/>
	<outline>
		<contour>
			<point x="333" y="-14" type="curve" smooth="yes"/>
			<point x="482" y="-14"/>
			<point x="567" y="88"/>
			<point x="567" y="266" type="curve" smooth="yes"/>
			<point x="567" y="350"/>
			<point x="546" y="443"/>
			<point x="509" y="519" type="curve"/>
			<point x="496" y="526" type="line"/>
			<point x="409" y="508" type="line"/>
			<point x="449" y="422"/>
			<point x="471" y="327"/>
			<point x="471" y="246" type="curve" smooth="yes"/>
			<point x="471" y="118"/>
			<point x="425" y="51"/>
			<point x="339" y="51" type="curve" smooth="yes"/>
			<point x="257" y="51"/>
			<point x="216" y="109"/>
			<point x="216" y="225" type="curve" smooth="yes"/>
			<point x="216" y="322"/>
			<point x="227" y="351"/>
			<point x="227" y="427" type="curve" smooth="yes"/>
			<point x="227" y="490"/>
			<point x="192" y="528"/>
			<point x="135" y="528" type="curve" smooth="yes"/>
			<point x="99" y="528"/>
			<point x="60" y="512"/>
			<point x="35" y="488" type="curve"/>
			<point x="45" y="450" type="line"/>
			<point x="61" y="456"/>
			<point x="75" y="458"/>
			<point x="91" y="458" type="curve" smooth="yes"/>
			<point x="119" y="458"/>
			<point x="134" y="440"/>
			<point x="134" y="408" type="curve" smooth="yes"/>
			<point x="134" y="357"/>
			<point x="127" y="290"/>
			<point x="127" y="213" type="curve" smooth="yes"/>
			<point x="127" y="64"/>
			<point x="198" y="-14"/>
		</contour>
	</outline>
	<anchor name="top" x="323" y="550"/>
</glyph>
<glyph name="phi" format="2">
	<unicode hex="03C6"/>
	<advance width="822"/>
	<outline>
		<contour>
			<point x="370" y="-216" type="line"/>
			<point x="445" y="-216" type="line"/>
			<point x="450" y="-14" type="line"/>
			<point x="651" y="-6"/>
			<point x="764" y="95"/>
			<point x="764" y="266" type="curve" smooth="yes"/>
			<point x="764" y="426"/>
			<point x="651" y="526"/>
			<point x="462" y="534" type="curve"/>
			<point x="467" y="726" type="line"/>
			<point x="454" y="733" type="line"/>
			<point x="361" y="726" type="line"/>
			<point x="366" y="534" type="line"/>
			<point x="171" y="520"/>
			<point x="62" y="419"/>
			<point x="62" y="253" type="curve" smooth="yes"/>
			<point x="62" y="96"/>
			<point x="177" y="-4"/>
			<point x="368" y="-13" type="curve"/>
		</contour>
		<contour>
			<point x="368" y="51" type="line"/>
			<point x="225" y="64"/>
			<point x="160" y="136"/>
			<point x="160" y="280" type="curve" smooth="yes"/>
			<point x="160" y="405"/>
			<point x="229" y="470"/>
			<point x="366" y="474" type="curve"/>
		</contour>
		<contour>
			<point x="451" y="45" type="curve"/>
			<point x="461" y="469" type="line"/>
			<point x="599" y="455"/>
			<point x="665" y="382"/>
			<point x="665" y="246" type="curve" smooth="yes"/>
			<point x="665" y="113"/>
			<point x="594" y="46"/>
		</contour>
	</outline>
</glyph>
<glyph name="psi" format="2">
	<unicode hex="03C8"/>
	<advance width="803"/>
	<outline>
		<contour>
			<point x="398" y="-216" type="line"/>
			<point x="476" y="-216" type="line"/>
			<point x="481" y="-14" type="line"/>
			<point x="643" y="-12"/>
			<point x="745" y="96"/>
			<point x="745" y="266" type="curve" smooth="yes"/>
			<point x="745" y="350"/>
			<point x="724" y="443"/>
			<point x="687" y="519" type="curve"/>
			<point x="674" y="526" type="line"/>
			<point x="587" y="508" type="line"/>
			<point x="627" y="422"/>
			<point x="649" y="327"/>
			<point x="649" y="246" type="curve" smooth="yes"/>
			<point x="649" y="118"/>
			<point x="594" y="54"/>
			<point x="482" y="51" type="curve"/>
			<point x="497" y="726" type="line"/>
			<point x="484" y="733" type="line"/>
			<point x="388" y="726" type="line"/>
			<point x="396" y="51" type="line"/>
			<point x="273" y="55"/>
			<point x="216" y="110"/>
			<point x="216" y="225" type="curve" smooth="yes"/>
			<point x="216" y="322"/>
			<point x="227" y="351"/>
			<point x="227" y="427" type="curve" smooth="yes"/>
			<point x="227" y="490"/>
			<point x="193" y="528"/>
			<point x="136" y="528" type="curve" smooth="yes"/>
			<point x="101" y="528"/>
			<point x="61" y="512"/>
			<point x="35" y="488" type="curve"/>
			<point x="45" y="450" type="line"/>
			<point x="61" y="456"/>
			<point x="75" y="458"/>
			<point x="91" y="458" type="curve" smooth="yes"/>
			<point x="119" y="458"/>
			<point x="134" y="441"/>
			<point x="134" y="408" type="curve" smooth="yes"/>
			<point x="134" y="357"/>
			<point x="127" y="290"/>
			<point x="127" y="213" type="curve" smooth="yes"/>
			<point x="127" y="58"/>
			<point x="211" y="-13"/>
			<point x="397" y="-14" type="curve"/>
		</contour>
	</outline>
</glyph>
<glyph name="koppaArchaic" format="2">
	<unicode hex="03D9"/>
	<advance width="643"/>
	<outline>
		<contour>
			<point x="290" y="-162" type="line"/>
			<point x="362" y="-153" type="line"/>
			<point x="359" y="-119"/>
			<point x="357" y="-63"/>
			<point x="357" y="-12" type="curve"/>
			<point x="502" y="6"/>
			<point x="585" y="109"/>
			<point x="585" y="271" type="curve" smooth="yes"/>
			<point x="585" y="433"/>
			<point x="487" y="533"/>
			<point x="328" y="533" type="curve" smooth="yes"/>
			<point x="164" y="533"/>
			<point x="62" y="422"/>
			<point x="62" y="246" type="curve" smooth="yes"/>
			<point x="62" y="93"/>
			<point x="147" y="-3"/>
			<point x="289" y="-13" type="curve"/>
			<point x="288" y="-45"/>
			<point x="285" y="-87"/>
			<point x="277" y="-155" type="curve"/>
		</contour>
		<contour>
			<point x="360" y="53" type="curve"/>
			<point x="362" y="82"/>
			<point x="366" y="110"/>
			<point x="369" y="139" type="curve"/>
			<point x="356" y="146" type="line"/>
			<point x="284" y="137" type="line"/>
			<point x="287" y="95"/>
			<point x="288" y="75"/>
			<point x="288" y="56" type="curve"/>
			<point x="208" y="74"/>
			<point x="161" y="153"/>
			<point x="161" y="269" type="curve" smooth="yes"/>
			<point x="161" y="396"/>
			<point x="215" y="467"/>
			<point x="312" y="467" type="curve" smooth="yes"/>
			<point x="422" y="467"/>
			<point x="486" y="384"/>
			<point x="486" y="244" type="curve" smooth="yes"/>
			<point x="486" y="133"/>
			<point x="442" y="66"/>
		</contour>
	</outline>
</glyph>
<glyph name="Stigma" format="2">
	<unicode hex="03DA"/>
	<advance width="678"/>
	<outline>
		<contour>
			<point x="472" y="-210" type="line"/>
			<point x="535" y="-157"/>
			<point x="571" y="-97"/>
			<point x="571" y="-45" type="curve" smooth="yes"/>
			<point x="571" y="29"/>
			<point x="535" y="63"/>
			<point x="428" y="92" type="curve" smooth="yes"/>
			<point x="230" y="145"/>
			<point x="174" y="206"/>
			<point x="174" y="366" type="curve" smooth="yes"/>
			<point x="174" y="547"/>
			<point x="256" y="647"/>
			<point x="404" y="647" type="curve" smooth="yes"/>
			<point x="443" y="647"/>
			<point x="479" y="636"/>
			<point x="508" y="615" type="curve"/>
			<point x="487" y="574"/>
			<point x="480" y="556"/>
			<point x="480" y="540" type="curve" smooth="yes"/>
			<point x="480" y="506"/>
			<point x="506" y="485"/>
			<point x="549" y="485" type="curve" smooth="yes"/>
			<point x="592" y="485"/>
			<point x="623" y="516"/>
			<point x="623" y="561" type="curve" smooth="yes"/>
			<point x="623" y="648"/>
			<point x="529" y="714"/>
			<point x="403" y="714" type="curve" smooth="yes"/>
			<point x="196" y="714"/>
			<point x="64" y="577"/>
			<point x="64" y="361" type="curve" smooth="yes"/>
			<point x="64" y="171"/>
			<point x="152" y="73"/>
			<point x="378" y="10" type="curve" smooth="yes"/>
			<point x="452" y="-11"/>
			<point x="476" y="-30"/>
			<point x="476" y="-68" type="curve" smooth="yes"/>
			<point x="476" y="-99"/>
			<point x="465" y="-124"/>
			<point x="428" y="-176" type="curve"/>
		</contour>
	</outline>
</glyph>
<glyph name="stigma" format="2">
	<unicode hex="03DB"/>
	<advance width="556"/>
	<outline>
		<contour>
			<point x="368" y="-230" type="line"/>
			<point x="433" y="-174"/>
			<point x="467" y="-118"/>
			<point x="467" y="-66" type="curve" smooth="yes"/>
			<point x="467" y="12"/>
			<point x="426" y="47"/>
			<point x="298" y="78" type="curve" smooth="yes"/>
			<point x="176" y="108"/>
			<point x="130" y="161"/>
			<point x="130" y="272" type="curve" smooth="yes"/>
			<point x="130" y="399"/>
			<point x="194" y="456"/>
			<point x="334" y="454" type="curve" smooth="yes"/>
			<point x="471" y="452"/>
			<point x="512" y="473"/>
			<point x="512" y="544" type="curve" smooth="yes"/>
			<point x="512" y="578"/>
			<point x="497" y="617"/>
			<point x="472" y="651" type="curve"/>
			<point x="427" y="639" type="line"/>
			<point x="435" y="619"/>
			<point x="437" y="606"/>
			<point x="437" y="584" type="curve" smooth="yes"/>
			<point x="437" y="540"/>
			<point x="425" y="534"/>
			<point x="335" y="534" type="curve" smooth="yes"/>
			<point x="164" y="534"/>
			<point x="62" y="429"/>
			<point x="62" y="255" type="curve" smooth="yes"/>
			<point x="62" y="101"/>
			<point x="126" y="20"/>
			<point x="271" y="-11" type="curve" smooth="yes"/>
			<point x="345" y="-27"/>
			<point x="372" y="-48"/>
			<point x="372" y="-89" type="curve" smooth="yes"/>
			<point x="372" y="-121"/>
			<point x="358" y="-152"/>
			<point x="324" y="-196" type="curve"/>
		</contour>
	</outline>
</glyph>
<glyph name="digamma" format="2">
	<unicode hex="03DD"/>
	<advance width="422"/>
	<outline>
		<contour>
			<point x="158" y="-7" type="line"/>
			<point x="238" y="0" type="line"/>
			<point x="238" y="456" type="line"/>
			<point x="396" y="456" type="line"/>
			<point x="396" y="519" type="line"/>
			<point x="238" y="519" type="line"/>
			<point x="238" y="593" type="line" smooth="yes"/>
			<point x="238" y="684"/>
			<point x="268" y="727"/>
			<point x="333" y="727" type="curve" smooth="yes"/>
			<point x="355" y="727"/>
			<point x="373" y="723"/>
			<point x="395" y="714" type="curve"/>
			<point x="376" y="683"/>
			<point x="370" y="669"/>
			<point x="370" y="655" type="curve" smooth="yes"/>
			<point x="370" y="631"/>
			<point x="391" y="616"/>
			<point x="425" y="616" type="curve" smooth="yes"/>
			<point x="460" y="616"/>
			<point x="485" y="643"/>
			<point x="485" y="682" type="curve" smooth="yes"/>
			<point x="485" y="742"/>
			<point x="427" y="782"/>
			<point x="339" y="782" type="curve" smooth="yes"/>
			<point x="217" y="782"/>
			<point x="145" y="695"/>
			<point x="145" y="545" type="curve" smooth="yes"/>
			<point x="145" y="516" type="line"/>
			<point x="58" y="506" type="line"/>
			<point x="58" y="456" type="line"/>
			<point x="145" y="456" type="line"/>
			<point x="145" y="0" type="line"/>
		</contour>
	</outline>
</glyph>
<glyph name="Koppa" format="2">
	<unicode hex="03DE"/>
	<advance width="580"/>
	<outline>
		<contour>
			<point x="344" y="-89" type="curve" smooth="yes"/>
			<point x="378" y="-89"/>
			<point x="415" y="-73"/>
			<point x="439" y="-49" type="curve"/>
			<point x="430" y="-13" type="line"/>
			<point x="407" y="-19"/>
			<point x="392" y="-22"/>
			<point x="380" y="-22" type="curve" smooth="yes"/>
			<point x="355" y="-22"/>
			<point x="341" y="-9"/>
			<point x="341" y="14" type="curve" smooth="yes"/>
			<point x="341" y="48"/>
			<point x="364" y="94"/>
			<point x="431" y="194" type="curve" smooth="yes"/>
			<point x="532" y="344" type="line"/>
			<point x="494" y="399" type="line"/>
			<point x="168" y="235" type="line"/>
			<point x="307" y="414"/>
			<point x="335" y="461"/>
			<point x="335" y="517" type="curve" smooth="yes"/>
			<point x="335" y="568"/>
			<point x="299" y="600"/>
			<point x="241" y="600" type="curve" smooth="yes"/>
			<point x="208" y="600"/>
			<point x="170" y="584"/>
			<point x="146" y="560" type="curve"/>
			<point x="155" y="524" type="line"/>
			<point x="178" y="530"/>
			<point x="193" y="533"/>
			<point x="205" y="533" type="curve" smooth="yes"/>
			<point x="230" y="533"/>
			<point x="244" y="520"/>
			<point x="244" y="497" type="curve" smooth="yes"/>
			<point x="244" y="463"/>
			<point x="221" y="417"/>
			<point x="154" y="317" type="curve" smooth="yes"/>
			<point x="53" y="167" type="line"/>
			<point x="91" y="112" type="line"/>
			<point x="422" y="286" type="line"/>
			<point x="277" y="95"/>
			<point x="250" y="49"/>
			<point x="250" y="-6" type="curve" smooth="yes"/>
			<point x="250" y="-57"/>
			<point x="286" y="-89"/>
		</contour>
	</outline>
</glyph>
<glyph name="Sampi" format="2">
	<unicode hex="03E0"/>
	<advance width="806"/>
	<outline>
		<contour>
			<point x="270" y="-182" type="line"/>
			<point x="303" y="-160" type="line"/>
			<point x="286" y="-127" type="line" smooth="yes"/>
			<point x="279" y="-114"/>
			<point x="283" y="-105"/>
			<point x="299" y="-93" type="curve" smooth="yes"/>
			<point x="635" y="162" type="line"/>
			<point x="647" y="112"/>
			<point x="653" y="53"/>
			<point x="653" y="-17" type="curve" smooth="yes"/>
			<point x="653" y="-47"/>
			<point x="651" y="-107"/>
			<point x="648" y="-170" type="curve"/>
			<point x="735" y="-172" type="line"/>
			<point x="740" y="-108"/>
			<point x="742" y="-65"/>
			<point x="742" y="-15" type="curve" smooth="yes"/>
			<point x="742" y="351"/>
			<point x="560" y="528"/>
			<point x="180" y="532" type="curve"/>
			<point x="177" y="460" type="line"/>
			<point x="309" y="458"/>
			<point x="402" y="437"/>
			<point x="475" y="393" type="curve"/>
			<point x="142" y="136" type="line" smooth="yes"/>
			<point x="123" y="120"/>
			<point x="116" y="121"/>
			<point x="100" y="137" type="curve" smooth="yes"/>
			<point x="82" y="155" type="line"/>
			<point x="50" y="135" type="line"/>
			<point x="153" y="-14" type="line"/>
			<point x="187" y="8" type="line"/>
			<point x="169" y="41" type="line" smooth="yes"/>
			<point x="163" y="53"/>
			<point x="167" y="63"/>
			<point x="183" y="75" type="curve" smooth="yes"/>
			<point x="537" y="345" type="line"/>
			<point x="569" y="313"/>
			<point x="593" y="277"/>
			<point x="610" y="238" type="curve"/>
			<point x="259" y="-32" type="line" smooth="yes"/>
			<point x="238" y="-48"/>
			<point x="233" y="-48"/>
			<point x="216" y="-31" type="curve" smooth="yes"/>
			<point x="198" y="-13" type="line"/>
			<point x="166" y="-33" type="line"/>
		</contour>
	</outline>
</glyph>
<glyph name="sampi" format="2">
	<unicode hex="03E1"/>
	<advance width="600"/>
	<outline>
		<contour>
			<point x="161" y="536" type="curve"/>
			<point x="138" y="465" type="line"/>
			<point x="226" y="441"/>
			<point x="299" y="393"/>
			<point x="352" y="327" type="curve"/>
			<point x="97" y="225" type="line" smooth="yes"/>
			<point x="79" y="218"/>
			<point x="73" y="219"/>
			<point x="66" y="230" type="curve" smooth="yes"/>
			<point x="51" y="256" type="line"/>
			<point x="7" y="240" type="line"/>
			<point x="76" y="69" type="line"/>
			<point x="119" y="83" type="line"/>
			<point x="112" y="115" type="line" smooth="yes"/>
			<point x="109" y="127"/>
			<point x="114" y="134"/>
			<point x="130" y="141" type="curve" smooth="yes"/>
			<point x="401" y="250" type="line"/>
			<point x="418" y="215"/>
			<point x="431" y="177"/>
			<point x="439" y="136" type="curve"/>
			<point x="175" y="31" type="line" smooth="yes"/>
			<point x="158" y="23"/>
			<point x="151" y="24"/>
			<point x="144" y="36" type="curve" smooth="yes"/>
			<point x="129" y="62" type="line"/>
			<point x="85" y="46" type="line"/>
			<point x="154" y="-125" type="line"/>
			<point x="197" y="-111" type="line"/>
			<point x="190" y="-79" type="line" smooth="yes"/>
			<point x="187" y="-67"/>
			<point x="192" y="-60"/>
			<point x="208" y="-53" type="curve" smooth="yes"/>
			<point x="451" y="44" type="line"/>
			<point x="451" y="-67"/>
			<point x="435" y="-153"/>
			<point x="397" y="-247" type="curve"/>
			<point x="480" y="-267" type="line"/>
			<point x="522" y="-179"/>
			<point x="549" y="-58"/>
			<point x="549" y="37" type="curve" smooth="yes"/>
			<point x="549" y="315"/>
			<point x="411" y="493"/>
		</contour>
	</outline>
</glyph>
<glyph name="E-cy" format="2">
	<unicode hex="0404"/>
	<advance width="746"/>
	<outline>
		<contour>
			<point x="420" y="-14" type="curve" smooth="yes"/>
			<point x="535" y="-14"/>
			<point x="630" y="43"/>
			<point x="691" y="138" type="curve"/>
			<point x="645" y="174" type="line"/>
			<point x="581" y="99"/>
			<point x="525" y="61"/>
			<point x="424" y="61" type="curve" smooth="yes"/>
			<point x="281" y="61"/>
			<point x="183" y="155"/>
			<point x="175" y="328" type="curve"/>
			<point x="546" y="328" type="line"/>
			<point x="546" y="392" type="line"/>
			<point x="175" y="392" type="line"/>
			<point x="185" y="551"/>
			<point x="266" y="647"/>
			<point x="407" y="647" type="curve" smooth="yes"/>
			<point x="519" y="647"/>
			<point x="585" y="591"/>
			<point x="627" y="470" type="curve"/>
			<point x="681" y="482" type="line"/>
			<point x="642" y="714" type="line"/>
			<point x="593" y="714" type="line"/>
			<point x="581" y="651" type="line"/>
			<point x="539" y="690"/>
			<point x="483" y="714"/>
			<point x="403" y="714" type="curve" smooth="yes"/>
			<point x="203" y="714"/>
			<point x="64" y="573"/>
			<point x="64" y="351" type="curve" smooth="yes"/>
			<point x="64" y="131"/>
			<point x="197" y="-14"/>
		</contour>
	</outline>
	<anchor name="top" x="399" y="730"/>
</glyph>
<glyph name="Lje-cy" format="2">
	<unicode hex="0409"/>
	<advance width="1078"/>
	<outline>
		<contour>
			<point x="92" y="-13" type="curve" smooth="yes"/>
			<point x="202" y="-13"/>
			<point x="274" y="99"/>
			<point x="294" y="356" type="curve" smooth="yes"/>
			<point x="299" y="420"/>
			<point x="307" y="571"/>
			<point x="307" y="636" type="curve"/>
			<point x="541" y="636" type="line"/>
			<point x="541" y="108" type="line" smooth="yes"/>
			<point x="541" y="67"/>
			<point x="531" y="58"/>
			<point x="508" y="57" type="curve" smooth="yes"/>
			<point x="439" y="53" type="line"/>
			<point x="439" y="0" type="line"/>
			<point x="735" y="0" type="line" smooth="yes"/>
			<point x="894" y="0"/>
			<point x="1028" y="53"/>
			<point x="1028" y="216" type="curve" smooth="yes"/>
			<point x="1028" y="366"/>
			<point x="886" y="410"/>
			<point x="745" y="410" type="curve" smooth="yes"/>
			<point x="711" y="410"/>
			<point x="667" y="407"/>
			<point x="639" y="405" type="curve"/>
			<point x="639" y="592" type="line" smooth="yes"/>
			<point x="639" y="630"/>
			<point x="647" y="642"/>
			<point x="671" y="643" type="curve" smooth="yes"/>
			<point x="741" y="647" type="line"/>
			<point x="741" y="700" type="line"/>
			<point x="126" y="700" type="line"/>
			<point x="126" y="647" type="line"/>
			<point x="193" y="643" type="line" smooth="yes"/>
			<point x="222" y="641"/>
			<point x="232" y="630"/>
			<point x="232" y="596" type="curve" smooth="yes"/>
			<point x="232" y="401"/>
			<point x="219" y="159"/>
			<point x="149" y="88" type="curve"/>
			<point x="129" y="126"/>
			<point x="95" y="140"/>
			<point x="78" y="140" type="curve" smooth="yes"/>
			<point x="39" y="140"/>
			<point x="10" y="97"/>
			<point x="10" y="60" type="curve" smooth="yes"/>
			<point x="10" y="14"/>
			<point x="53" y="-13"/>
		</contour>
		<contour>
			<point x="639" y="62" type="curve"/>
			<point x="639" y="345" type="line"/>
			<point x="669" y="348"/>
			<point x="704" y="350"/>
			<point x="737" y="350" type="curve" smooth="yes"/>
			<point x="847" y="350"/>
			<point x="920" y="307"/>
			<point x="920" y="213" type="curve" smooth="yes"/>
			<point x="920" y="88"/>
			<point x="829" y="58"/>
			<point x="717" y="58" type="curve" smooth="yes"/>
			<point x="691" y="58"/>
			<point x="665" y="60"/>
		</contour>
	</outline>
</glyph>
<glyph name="Nje-cy" format="2">
	<unicode hex="040A"/>
	<advance width="1187"/>
	<outline>
		<contour>
			<point x="69" y="0" type="line"/>
			<point x="370" y="0" type="line"/>
			<point x="370" y="53" type="line"/>
			<point x="304" y="57" type="line" smooth="yes"/>
			<point x="276" y="59"/>
			<point x="269" y="71"/>
			<point x="269" y="104" type="curve" smooth="yes"/>
			<point x="269" y="328" type="line"/>
			<point x="650" y="328" type="line"/>
			<point x="650" y="108" type="line" smooth="yes"/>
			<point x="650" y="67"/>
			<point x="640" y="58"/>
			<point x="617" y="57" type="curve" smooth="yes"/>
			<point x="548" y="53" type="line"/>
			<point x="548" y="0" type="line"/>
			<point x="844" y="0" type="line" smooth="yes"/>
			<point x="1003" y="0"/>
			<point x="1137" y="53"/>
			<point x="1137" y="216" type="curve" smooth="yes"/>
			<point x="1137" y="366"/>
			<point x="995" y="410"/>
			<point x="854" y="410" type="curve" smooth="yes"/>
			<point x="820" y="410"/>
			<point x="776" y="407"/>
			<point x="748" y="405" type="curve"/>
			<point x="748" y="592" type="line" smooth="yes"/>
			<point x="748" y="630"/>
			<point x="756" y="642"/>
			<point x="780" y="643" type="curve" smooth="yes"/>
			<point x="850" y="647" type="line"/>
			<point x="850" y="700" type="line"/>
			<point x="548" y="700" type="line"/>
			<point x="548" y="647" type="line"/>
			<point x="614" y="643" type="line" smooth="yes"/>
			<point x="647" y="641"/>
			<point x="650" y="624"/>
			<point x="650" y="596" type="curve" smooth="yes"/>
			<point x="650" y="392" type="line"/>
			<point x="269" y="392" type="line"/>
			<point x="269" y="592" type="line" smooth="yes"/>
			<point x="269" y="630"/>
			<point x="278" y="642"/>
			<point x="301" y="643" type="curve" smooth="yes"/>
			<point x="370" y="647" type="line"/>
			<point x="370" y="700" type="line"/>
			<point x="69" y="700" type="line"/>
			<point x="69" y="647" type="line"/>
			<point x="135" y="643" type="line" smooth="yes"/>
			<point x="164" y="641"/>
			<point x="171" y="629"/>
			<point x="171" y="596" type="curve" smooth="yes"/>
			<point x="171" y="108" type="line" smooth="yes"/>
			<point x="171" y="71"/>
			<point x="164" y="59"/>
			<point x="138" y="57" type="curve" smooth="yes"/>
			<point x="69" y="53" type="line"/>
		</contour>
		<contour>
			<point x="748" y="62" type="curve"/>
			<point x="748" y="342" type="line"/>
			<point x="778" y="345"/>
			<point x="813" y="347"/>
			<point x="846" y="347" type="curve" smooth="yes"/>
			<point x="956" y="347"/>
			<point x="1029" y="307"/>
			<point x="1029" y="213" type="curve" smooth="yes"/>
			<point x="1029" y="88"/>
			<point x="938" y="58"/>
			<point x="826" y="58" type="curve" smooth="yes"/>
			<point x="800" y="58"/>
			<point x="774" y="60"/>
		</contour>
	</outline>
</glyph>
<glyph name="Tshe-cy" format="2">
	<unicode hex="040B"/>
	<advance width="1010"/>
	<outline>
		<contour>
			<point x="216" y="0" type="line"/>
			<point x="518" y="0" type="line"/>
			<point x="518" y="53" type="line"/>
			<point x="452" y="57" type="line" smooth="yes"/>
			<point x="419" y="59"/>
			<point x="416" y="76"/>
			<point x="416" y="104" type="curve" smooth="yes"/>
			<point x="416" y="315" type="line"/>
			<point x="470" y="347"/>
			<point x="546" y="378"/>
			<point x="619" y="378" type="curve" smooth="yes"/>
			<point x="743" y="378"/>
			<point x="780" y="312"/>
			<point x="780" y="235" type="curve" smooth="yes"/>
			<point x="780" y="108" type="line" smooth="yes"/>
			<point x="780" y="70"/>
			<point x="772" y="58"/>
			<point x="748" y="57" type="curve" smooth="yes"/>
			<point x="678" y="53" type="line"/>
			<point x="678" y="0" type="line"/>
			<point x="980" y="0" type="line"/>
			<point x="980" y="53" type="line"/>
			<point x="914" y="57" type="line" smooth="yes"/>
			<point x="881" y="59"/>
			<point x="878" y="76"/>
			<point x="878" y="104" type="curve" smooth="yes"/>
			<point x="878" y="252" type="line" smooth="yes"/>
			<point x="878" y="393"/>
			<point x="776" y="445"/>
			<point x="656" y="445" type="curve" smooth="yes"/>
			<point x="564" y="445"/>
			<point x="477" y="414"/>
			<point x="416" y="381" type="curve"/>
			<point x="416" y="640" type="line"/>
			<point x="554" y="640" type="line" smooth="yes"/>
			<point x="644" y="640"/>
			<point x="673" y="626"/>
			<point x="717" y="507" type="curve"/>
			<point x="771" y="519" type="line"/>
			<point x="737" y="700" type="line"/>
			<point x="89" y="700" type="line"/>
			<point x="50" y="499" type="line"/>
			<point x="103" y="487" type="line"/>
			<point x="155" y="633"/>
			<point x="178" y="640"/>
			<point x="271" y="640" type="curve" smooth="yes"/>
			<point x="318" y="640" type="line"/>
			<point x="318" y="108" type="line" smooth="yes"/>
			<point x="318" y="70"/>
			<point x="310" y="58"/>
			<point x="286" y="57" type="curve" smooth="yes"/>
			<point x="216" y="53" type="line"/>
		</contour>
	</outline>
</glyph>
